solid 
   facet normal -0.000000e+00 -1.000000e+00 0.000000e+00
      outer loop
         vertex 7.000000e+01 -1.000000e+02 -4.000000e+01
         vertex 7.500000e+01 -1.000000e+02 -3.500000e+01
         vertex 7.500000e+01 -1.000000e+02 3.500000e+01
      endloop
   endfacet
   facet normal -0.000000e+00 -1.000000e+00 0.000000e+00
      outer loop
         vertex 7.000000e+01 -1.000000e+02 -4.000000e+01
         vertex 7.462392e+01 -1.000000e+02 -3.833781e+01
         vertex 7.500000e+01 -1.000000e+02 -3.500000e+01
      endloop
   endfacet
   facet normal 0.000000e+00 -1.000000e+00 0.000000e+00
      outer loop
         vertex 7.000000e+01 -1.000000e+02 -4.000000e+01
         vertex 7.351453e+01 -1.000000e+02 -4.150826e+01
         vertex 7.462392e+01 -1.000000e+02 -3.833781e+01
      endloop
   endfacet
   facet normal 0.000000e+00 -1.000000e+00 0.000000e+00
      outer loop
         vertex 6.961940e+01 -1.000000e+02 -4.191342e+01
         vertex 7.172747e+01 -1.000000e+02 -4.435235e+01
         vertex 7.351453e+01 -1.000000e+02 -4.150826e+01
      endloop
   endfacet
   facet normal 0.000000e+00 -1.000000e+00 0.000000e+00
      outer loop
         vertex 6.853554e+01 -1.000000e+02 -4.353553e+01
         vertex 6.935235e+01 -1.000000e+02 -4.672747e+01
         vertex 7.172747e+01 -1.000000e+02 -4.435235e+01
      endloop
   endfacet
   facet normal 0.000000e+00 -1.000000e+00 0.000000e+00
      outer loop
         vertex 6.691341e+01 -1.000000e+02 -4.461940e+01
         vertex 6.650826e+01 -1.000000e+02 -4.851453e+01
         vertex 6.935235e+01 -1.000000e+02 -4.672747e+01
      endloop
   endfacet
   facet normal 0.000000e+00 -1.000000e+00 0.000000e+00
      outer loop
         vertex 6.500000e+01 -1.000000e+02 -4.500000e+01
         vertex 6.333781e+01 -1.000000e+02 -4.962392e+01
         vertex 6.650826e+01 -1.000000e+02 -4.851453e+01
      endloop
   endfacet
   facet normal 0.000000e+00 -1.000000e+00 0.000000e+00
      outer loop
         vertex 6.500000e+01 -1.000000e+02 -4.500000e+01
         vertex 6.000000e+01 -1.000000e+02 -5.000000e+01
         vertex 6.333781e+01 -1.000000e+02 -4.962392e+01
      endloop
   endfacet
   facet normal 0.000000e+00 -1.000000e+00 0.000000e+00
      outer loop
         vertex -6.500000e+01 -1.000000e+02 -4.500000e+01
         vertex -6.333781e+01 -1.000000e+02 -4.962392e+01
         vertex -6.000000e+01 -1.000000e+02 -5.000000e+01
      endloop
   endfacet
   facet normal 0.000000e+00 -1.000000e+00 0.000000e+00
      outer loop
         vertex -6.500000e+01 -1.000000e+02 -4.500000e+01
         vertex -6.650826e+01 -1.000000e+02 -4.851453e+01
         vertex -6.333781e+01 -1.000000e+02 -4.962392e+01
      endloop
   endfacet
   facet normal 0.000000e+00 -1.000000e+00 0.000000e+00
      outer loop
         vertex -6.691341e+01 -1.000000e+02 -4.461940e+01
         vertex -6.935235e+01 -1.000000e+02 -4.672747e+01
         vertex -6.650826e+01 -1.000000e+02 -4.851453e+01
      endloop
   endfacet
   facet normal 0.000000e+00 -1.000000e+00 0.000000e+00
      outer loop
         vertex -6.853554e+01 -1.000000e+02 -4.353553e+01
         vertex -7.172747e+01 -1.000000e+02 -4.435235e+01
         vertex -6.935235e+01 -1.000000e+02 -4.672747e+01
      endloop
   endfacet
   facet normal 0.000000e+00 -1.000000e+00 0.000000e+00
      outer loop
         vertex -6.961940e+01 -1.000000e+02 -4.191342e+01
         vertex -7.351453e+01 -1.000000e+02 -4.150826e+01
         vertex -7.172747e+01 -1.000000e+02 -4.435235e+01
      endloop
   endfacet
   facet normal 0.000000e+00 -1.000000e+00 0.000000e+00
      outer loop
         vertex -7.000000e+01 -1.000000e+02 -4.000000e+01
         vertex -7.462392e+01 -1.000000e+02 -3.833781e+01
         vertex -7.351453e+01 -1.000000e+02 -4.150826e+01
      endloop
   endfacet
   facet normal 0.000000e+00 -1.000000e+00 0.000000e+00
      outer loop
         vertex -7.000000e+01 -1.000000e+02 -4.000000e+01
         vertex -7.500000e+01 -1.000000e+02 -3.500000e+01
         vertex -7.462392e+01 -1.000000e+02 -3.833781e+01
      endloop
   endfacet
   facet normal 0.000000e+00 -1.000000e+00 0.000000e+00
      outer loop
         vertex -7.000000e+01 -1.000000e+02 -4.000000e+01
         vertex -7.500000e+01 -1.000000e+02 3.500000e+01
         vertex -7.500000e+01 -1.000000e+02 -3.500000e+01
      endloop
   endfacet
   facet normal 0.000000e+00 -1.000000e+00 -0.000000e+00
      outer loop
         vertex -7.000000e+01 -1.000000e+02 4.000000e+01
         vertex -7.462392e+01 -1.000000e+02 3.833781e+01
         vertex -7.500000e+01 -1.000000e+02 3.500000e+01
      endloop
   endfacet
   facet normal 0.000000e+00 -1.000000e+00 -0.000000e+00
      outer loop
         vertex -7.000000e+01 -1.000000e+02 4.000000e+01
         vertex -7.351453e+01 -1.000000e+02 4.150826e+01
         vertex -7.462392e+01 -1.000000e+02 3.833781e+01
      endloop
   endfacet
   facet normal 0.000000e+00 -1.000000e+00 -0.000000e+00
      outer loop
         vertex -6.961940e+01 -1.000000e+02 4.191342e+01
         vertex -7.172747e+01 -1.000000e+02 4.435235e+01
         vertex -7.351453e+01 -1.000000e+02 4.150826e+01
      endloop
   endfacet
   facet normal 0.000000e+00 -1.000000e+00 -0.000000e+00
      outer loop
         vertex -6.853554e+01 -1.000000e+02 4.353553e+01
         vertex -6.935235e+01 -1.000000e+02 4.672747e+01
         vertex -7.172747e+01 -1.000000e+02 4.435235e+01
      endloop
   endfacet
   facet normal 0.000000e+00 -1.000000e+00 0.000000e+00
      outer loop
         vertex -6.691341e+01 -1.000000e+02 4.461940e+01
         vertex -6.650826e+01 -1.000000e+02 4.851453e+01
         vertex -6.935235e+01 -1.000000e+02 4.672747e+01
      endloop
   endfacet
   facet normal 0.000000e+00 -1.000000e+00 0.000000e+00
      outer loop
         vertex -6.500000e+01 -1.000000e+02 4.500000e+01
         vertex -6.333781e+01 -1.000000e+02 4.962392e+01
         vertex -6.650826e+01 -1.000000e+02 4.851453e+01
      endloop
   endfacet
   facet normal 0.000000e+00 -1.000000e+00 0.000000e+00
      outer loop
         vertex -6.500000e+01 -1.000000e+02 4.500000e+01
         vertex -6.000000e+01 -1.000000e+02 5.000000e+01
         vertex -6.333781e+01 -1.000000e+02 4.962392e+01
      endloop
   endfacet
   facet normal -0.000000e+00 -1.000000e+00 -0.000000e+00
      outer loop
         vertex 6.500000e+01 -1.000000e+02 4.500000e+01
         vertex 6.333781e+01 -1.000000e+02 4.962392e+01
         vertex 6.000000e+01 -1.000000e+02 5.000000e+01
      endloop
   endfacet
   facet normal -0.000000e+00 -1.000000e+00 0.000000e+00
      outer loop
         vertex 6.500000e+01 -1.000000e+02 4.500000e+01
         vertex 6.650826e+01 -1.000000e+02 4.851453e+01
         vertex 6.333781e+01 -1.000000e+02 4.962392e+01
      endloop
   endfacet
   facet normal -0.000000e+00 -1.000000e+00 0.000000e+00
      outer loop
         vertex 6.691341e+01 -1.000000e+02 4.461940e+01
         vertex 6.935235e+01 -1.000000e+02 4.672747e+01
         vertex 6.650826e+01 -1.000000e+02 4.851453e+01
      endloop
   endfacet
   facet normal -0.000000e+00 -1.000000e+00 0.000000e+00
      outer loop
         vertex 6.853554e+01 -1.000000e+02 4.353553e+01
         vertex 7.172747e+01 -1.000000e+02 4.435235e+01
         vertex 6.935235e+01 -1.000000e+02 4.672747e+01
      endloop
   endfacet
   facet normal 0.000000e+00 -1.000000e+00 0.000000e+00
      outer loop
         vertex 6.961940e+01 -1.000000e+02 4.191342e+01
         vertex 7.351453e+01 -1.000000e+02 4.150826e+01
         vertex 7.172747e+01 -1.000000e+02 4.435235e+01
      endloop
   endfacet
   facet normal 0.000000e+00 -1.000000e+00 0.000000e+00
      outer loop
         vertex 7.000000e+01 -1.000000e+02 4.000000e+01
         vertex 7.462392e+01 -1.000000e+02 3.833781e+01
         vertex 7.351453e+01 -1.000000e+02 4.150826e+01
      endloop
   endfacet
   facet normal 0.000000e+00 -1.000000e+00 0.000000e+00
      outer loop
         vertex 7.000000e+01 -1.000000e+02 4.000000e+01
         vertex 7.500000e+01 -1.000000e+02 3.500000e+01
         vertex 7.462392e+01 -1.000000e+02 3.833781e+01
      endloop
   endfacet
   facet normal 0.000000e+00 -1.000000e+00 0.000000e+00
      outer loop
         vertex 6.650826e+01 -1.000000e+02 -4.851453e+01
         vertex 6.691341e+01 -1.000000e+02 -4.461940e+01
         vertex 6.500000e+01 -1.000000e+02 -4.500000e+01
      endloop
   endfacet
   facet normal 0.000000e+00 -1.000000e+00 -0.000000e+00
      outer loop
         vertex 6.935235e+01 -1.000000e+02 -4.672747e+01
         vertex 6.853554e+01 -1.000000e+02 -4.353553e+01
         vertex 6.691341e+01 -1.000000e+02 -4.461940e+01
      endloop
   endfacet
   facet normal 0.000000e+00 -1.000000e+00 -0.000000e+00
      outer loop
         vertex 7.172747e+01 -1.000000e+02 -4.435235e+01
         vertex 6.961940e+01 -1.000000e+02 -4.191342e+01
         vertex 6.853554e+01 -1.000000e+02 -4.353553e+01
      endloop
   endfacet
   facet normal 0.000000e+00 -1.000000e+00 -0.000000e+00
      outer loop
         vertex 7.351453e+01 -1.000000e+02 -4.150826e+01
         vertex 7.000000e+01 -1.000000e+02 -4.000000e+01
         vertex 6.961940e+01 -1.000000e+02 -4.191342e+01
      endloop
   endfacet
   facet normal 0.000000e+00 -1.000000e+00 0.000000e+00
      outer loop
         vertex 7.500000e+01 -1.000000e+02 3.500000e+01
         vertex 7.000000e+01 -1.000000e+02 4.000000e+01
         vertex 7.000000e+01 -1.000000e+02 -4.000000e+01
      endloop
   endfacet
   facet normal 0.000000e+00 -1.000000e+00 0.000000e+00
      outer loop
         vertex 7.351453e+01 -1.000000e+02 4.150826e+01
         vertex 6.961940e+01 -1.000000e+02 4.191342e+01
         vertex 7.000000e+01 -1.000000e+02 4.000000e+01
      endloop
   endfacet
   facet normal 0.000000e+00 -1.000000e+00 0.000000e+00
      outer loop
         vertex 7.172747e+01 -1.000000e+02 4.435235e+01
         vertex 6.853554e+01 -1.000000e+02 4.353553e+01
         vertex 6.961940e+01 -1.000000e+02 4.191342e+01
      endloop
   endfacet
   facet normal 0.000000e+00 -1.000000e+00 0.000000e+00
      outer loop
         vertex 6.935235e+01 -1.000000e+02 4.672747e+01
         vertex 6.691341e+01 -1.000000e+02 4.461940e+01
         vertex 6.853554e+01 -1.000000e+02 4.353553e+01
      endloop
   endfacet
   facet normal 0.000000e+00 -1.000000e+00 0.000000e+00
      outer loop
         vertex 6.650826e+01 -1.000000e+02 4.851453e+01
         vertex 6.500000e+01 -1.000000e+02 4.500000e+01
         vertex 6.691341e+01 -1.000000e+02 4.461940e+01
      endloop
   endfacet
   facet normal 0.000000e+00 -1.000000e+00 0.000000e+00
      outer loop
         vertex -6.000000e+01 -1.000000e+02 5.000000e+01
         vertex -6.500000e+01 -1.000000e+02 4.500000e+01
         vertex 6.500000e+01 -1.000000e+02 4.500000e+01
      endloop
   endfacet
   facet normal 0.000000e+00 -1.000000e+00 0.000000e+00
      outer loop
         vertex -6.650826e+01 -1.000000e+02 4.851453e+01
         vertex -6.691341e+01 -1.000000e+02 4.461940e+01
         vertex -6.500000e+01 -1.000000e+02 4.500000e+01
      endloop
   endfacet
   facet normal 0.000000e+00 -1.000000e+00 0.000000e+00
      outer loop
         vertex -6.935235e+01 -1.000000e+02 4.672747e+01
         vertex -6.853554e+01 -1.000000e+02 4.353553e+01
         vertex -6.691341e+01 -1.000000e+02 4.461940e+01
      endloop
   endfacet
   facet normal 0.000000e+00 -1.000000e+00 0.000000e+00
      outer loop
         vertex -7.172747e+01 -1.000000e+02 4.435235e+01
         vertex -6.961940e+01 -1.000000e+02 4.191342e+01
         vertex -6.853554e+01 -1.000000e+02 4.353553e+01
      endloop
   endfacet
   facet normal 0.000000e+00 -1.000000e+00 0.000000e+00
      outer loop
         vertex -7.351453e+01 -1.000000e+02 4.150826e+01
         vertex -7.000000e+01 -1.000000e+02 4.000000e+01
         vertex -6.961940e+01 -1.000000e+02 4.191342e+01
      endloop
   endfacet
   facet normal 0.000000e+00 -1.000000e+00 0.000000e+00
      outer loop
         vertex -7.500000e+01 -1.000000e+02 3.500000e+01
         vertex -7.000000e+01 -1.000000e+02 -4.000000e+01
         vertex -7.000000e+01 -1.000000e+02 4.000000e+01
      endloop
   endfacet
   facet normal 0.000000e+00 -1.000000e+00 0.000000e+00
      outer loop
         vertex -7.351453e+01 -1.000000e+02 -4.150826e+01
         vertex -6.961940e+01 -1.000000e+02 -4.191342e+01
         vertex -7.000000e+01 -1.000000e+02 -4.000000e+01
      endloop
   endfacet
   facet normal -0.000000e+00 -1.000000e+00 0.000000e+00
      outer loop
         vertex -7.172747e+01 -1.000000e+02 -4.435235e+01
         vertex -6.853554e+01 -1.000000e+02 -4.353553e+01
         vertex -6.961940e+01 -1.000000e+02 -4.191342e+01
      endloop
   endfacet
   facet normal -0.000000e+00 -1.000000e+00 0.000000e+00
      outer loop
         vertex -6.935235e+01 -1.000000e+02 -4.672747e+01
         vertex -6.691341e+01 -1.000000e+02 -4.461940e+01
         vertex -6.853554e+01 -1.000000e+02 -4.353553e+01
      endloop
   endfacet
   facet normal -0.000000e+00 -1.000000e+00 0.000000e+00
      outer loop
         vertex -6.650826e+01 -1.000000e+02 -4.851453e+01
         vertex -6.500000e+01 -1.000000e+02 -4.500000e+01
         vertex -6.691341e+01 -1.000000e+02 -4.461940e+01
      endloop
   endfacet
   facet normal -0.000000e+00 -1.000000e+00 0.000000e+00
      outer loop
         vertex 6.000000e+01 -1.000000e+02 -5.000000e+01
         vertex 6.500000e+01 -1.000000e+02 -4.500000e+01
         vertex -6.500000e+01 -1.000000e+02 -4.500000e+01
      endloop
   endfacet
   facet normal 0.000000e+00 -1.000000e+00 0.000000e+00
      outer loop
         vertex 6.000000e+01 -1.000000e+02 5.000000e+01
         vertex -6.000000e+01 -1.000000e+02 5.000000e+01
         vertex 6.500000e+01 -1.000000e+02 4.500000e+01
      endloop
   endfacet
   facet normal 0.000000e+00 -1.000000e+00 0.000000e+00
      outer loop
         vertex -6.500000e+01 -1.000000e+02 -4.500000e+01
         vertex -6.000000e+01 -1.000000e+02 -5.000000e+01
         vertex 6.000000e+01 -1.000000e+02 -5.000000e+01
      endloop
   endfacet
   facet normal -1.000000e+00 0.000000e+00 0.000000e+00
      outer loop
         vertex 6.500000e+01 5.000000e+00 4.000000e+01
         vertex 6.500000e+01 5.000000e+00 -4.000000e+01
         vertex 6.500000e+01 -9.500000e+01 -4.000000e+01
      endloop
   endfacet
   facet normal -1.000000e+00 0.000000e+00 0.000000e+00
      outer loop
         vertex 6.500000e+01 -9.500000e+01 -4.000000e+01
         vertex 6.500000e+01 -9.500000e+01 4.000000e+01
         vertex 6.500000e+01 5.000000e+00 4.000000e+01
      endloop
   endfacet
   facet normal 1.000000e+00 0.000000e+00 0.000000e+00
      outer loop
         vertex -6.500000e+01 5.000000e+00 -4.000000e+01
         vertex -6.500000e+01 5.000000e+00 4.000000e+01
         vertex -6.500000e+01 -9.500000e+01 4.000000e+01
      endloop
   endfacet
   facet normal 1.000000e+00 0.000000e+00 0.000000e+00
      outer loop
         vertex -6.500000e+01 -9.500000e+01 4.000000e+01
         vertex -6.500000e+01 -9.500000e+01 -4.000000e+01
         vertex -6.500000e+01 5.000000e+00 -4.000000e+01
      endloop
   endfacet
   facet normal -0.000000e+00 0.000000e+00 1.000000e+00
      outer loop
         vertex 6.500000e+01 5.000000e+00 -4.000000e+01
         vertex -6.500000e+01 5.000000e+00 -4.000000e+01
         vertex -6.500000e+01 -9.500000e+01 -4.000000e+01
      endloop
   endfacet
   facet normal 0.000000e+00 -0.000000e+00 1.000000e+00
      outer loop
         vertex -6.500000e+01 -9.500000e+01 -4.000000e+01
         vertex 6.500000e+01 -9.500000e+01 -4.000000e+01
         vertex 6.500000e+01 5.000000e+00 -4.000000e+01
      endloop
   endfacet
   facet normal -0.000000e+00 -0.000000e+00 -1.000000e+00
      outer loop
         vertex -6.500000e+01 5.000000e+00 4.000000e+01
         vertex 6.500000e+01 5.000000e+00 4.000000e+01
         vertex 6.500000e+01 -9.500000e+01 4.000000e+01
      endloop
   endfacet
   facet normal 0.000000e+00 0.000000e+00 -1.000000e+00
      outer loop
         vertex 6.500000e+01 -9.500000e+01 4.000000e+01
         vertex -6.500000e+01 -9.500000e+01 4.000000e+01
         vertex -6.500000e+01 5.000000e+00 4.000000e+01
      endloop
   endfacet
   facet normal -1.950913e-01 0.000000e+00 9.807851e-01
      outer loop
         vertex 6.691341e+01 -1.000000e+02 -4.461940e+01
         vertex 6.691341e+01 -9.500000e+01 -4.461940e+01
         vertex 6.500000e+01 -9.500000e+01 -4.500000e+01
      endloop
   endfacet
   facet normal -1.950913e-01 0.000000e+00 9.807851e-01
      outer loop
         vertex 6.500000e+01 -1.000000e+02 -4.500000e+01
         vertex 6.691341e+01 -1.000000e+02 -4.461940e+01
         vertex 6.500000e+01 -9.500000e+01 -4.500000e+01
      endloop
   endfacet
   facet normal -5.555681e-01 0.000000e+00 8.314711e-01
      outer loop
         vertex 6.853554e+01 -1.000000e+02 -4.353553e+01
         vertex 6.853554e+01 -9.500000e+01 -4.353553e+01
         vertex 6.691341e+01 -9.500000e+01 -4.461940e+01
      endloop
   endfacet
   facet normal -5.555681e-01 0.000000e+00 8.314711e-01
      outer loop
         vertex 6.691341e+01 -1.000000e+02 -4.461940e+01
         vertex 6.853554e+01 -1.000000e+02 -4.353553e+01
         vertex 6.691341e+01 -9.500000e+01 -4.461940e+01
      endloop
   endfacet
   facet normal -8.314699e-01 0.000000e+00 5.555699e-01
      outer loop
         vertex 6.961940e+01 -1.000000e+02 -4.191342e+01
         vertex 6.961940e+01 -9.500000e+01 -4.191342e+01
         vertex 6.853554e+01 -9.500000e+01 -4.353553e+01
      endloop
   endfacet
   facet normal -8.314699e-01 0.000000e+00 5.555699e-01
      outer loop
         vertex 6.853554e+01 -1.000000e+02 -4.353553e+01
         vertex 6.961940e+01 -1.000000e+02 -4.191342e+01
         vertex 6.853554e+01 -9.500000e+01 -4.353553e+01
      endloop
   endfacet
   facet normal -9.807855e-01 0.000000e+00 1.950891e-01
      outer loop
         vertex 7.000000e+01 -1.000000e+02 -4.000000e+01
         vertex 7.000000e+01 -9.500000e+01 -4.000000e+01
         vertex 6.961940e+01 -9.500000e+01 -4.191342e+01
      endloop
   endfacet
   facet normal -9.807855e-01 0.000000e+00 1.950891e-01
      outer loop
         vertex 6.961940e+01 -1.000000e+02 -4.191342e+01
         vertex 7.000000e+01 -1.000000e+02 -4.000000e+01
         vertex 6.961940e+01 -9.500000e+01 -4.191342e+01
      endloop
   endfacet
   facet normal -1.000000e+00 0.000000e+00 0.000000e+00
      outer loop
         vertex 7.000000e+01 -9.500000e+01 4.000000e+01
         vertex 7.000000e+01 -9.500000e+01 -4.000000e+01
         vertex 7.000000e+01 -1.000000e+02 -4.000000e+01
      endloop
   endfacet
   facet normal -1.000000e+00 0.000000e+00 0.000000e+00
      outer loop
         vertex 7.000000e+01 -1.000000e+02 -4.000000e+01
         vertex 7.000000e+01 -1.000000e+02 4.000000e+01
         vertex 7.000000e+01 -9.500000e+01 4.000000e+01
      endloop
   endfacet
   facet normal -9.807855e-01 -0.000000e+00 -1.950891e-01
      outer loop
         vertex 6.961940e+01 -1.000000e+02 4.191342e+01
         vertex 6.961940e+01 -9.500000e+01 4.191342e+01
         vertex 7.000000e+01 -9.500000e+01 4.000000e+01
      endloop
   endfacet
   facet normal -9.807855e-01 0.000000e+00 -1.950891e-01
      outer loop
         vertex 7.000000e+01 -1.000000e+02 4.000000e+01
         vertex 6.961940e+01 -1.000000e+02 4.191342e+01
         vertex 7.000000e+01 -9.500000e+01 4.000000e+01
      endloop
   endfacet
   facet normal -8.314699e-01 -0.000000e+00 -5.555699e-01
      outer loop
         vertex 6.853554e+01 -1.000000e+02 4.353553e+01
         vertex 6.853554e+01 -9.500000e+01 4.353553e+01
         vertex 6.961940e+01 -9.500000e+01 4.191342e+01
      endloop
   endfacet
   facet normal -8.314699e-01 0.000000e+00 -5.555699e-01
      outer loop
         vertex 6.961940e+01 -1.000000e+02 4.191342e+01
         vertex 6.853554e+01 -1.000000e+02 4.353553e+01
         vertex 6.961940e+01 -9.500000e+01 4.191342e+01
      endloop
   endfacet
   facet normal -5.555681e-01 -0.000000e+00 -8.314711e-01
      outer loop
         vertex 6.691341e+01 -1.000000e+02 4.461940e+01
         vertex 6.691341e+01 -9.500000e+01 4.461940e+01
         vertex 6.853554e+01 -9.500000e+01 4.353553e+01
      endloop
   endfacet
   facet normal -5.555681e-01 0.000000e+00 -8.314711e-01
      outer loop
         vertex 6.853554e+01 -1.000000e+02 4.353553e+01
         vertex 6.691341e+01 -1.000000e+02 4.461940e+01
         vertex 6.853554e+01 -9.500000e+01 4.353553e+01
      endloop
   endfacet
   facet normal -1.950913e-01 -0.000000e+00 -9.807851e-01
      outer loop
         vertex 6.500000e+01 -1.000000e+02 4.500000e+01
         vertex 6.500000e+01 -9.500000e+01 4.500000e+01
         vertex 6.691341e+01 -9.500000e+01 4.461940e+01
      endloop
   endfacet
   facet normal -1.950913e-01 0.000000e+00 -9.807851e-01
      outer loop
         vertex 6.691341e+01 -1.000000e+02 4.461940e+01
         vertex 6.500000e+01 -1.000000e+02 4.500000e+01
         vertex 6.691341e+01 -9.500000e+01 4.461940e+01
      endloop
   endfacet
   facet normal -0.000000e+00 -0.000000e+00 -1.000000e+00
      outer loop
         vertex -6.500000e+01 -9.500000e+01 4.500000e+01
         vertex 6.500000e+01 -9.500000e+01 4.500000e+01
         vertex 6.500000e+01 -1.000000e+02 4.500000e+01
      endloop
   endfacet
   facet normal 0.000000e+00 0.000000e+00 -1.000000e+00
      outer loop
         vertex 6.500000e+01 -1.000000e+02 4.500000e+01
         vertex -6.500000e+01 -1.000000e+02 4.500000e+01
         vertex -6.500000e+01 -9.500000e+01 4.500000e+01
      endloop
   endfacet
   facet normal 1.950913e-01 0.000000e+00 -9.807851e-01
      outer loop
         vertex -6.691341e+01 -1.000000e+02 4.461940e+01
         vertex -6.691341e+01 -9.500000e+01 4.461940e+01
         vertex -6.500000e+01 -9.500000e+01 4.500000e+01
      endloop
   endfacet
   facet normal 1.950913e-01 0.000000e+00 -9.807851e-01
      outer loop
         vertex -6.500000e+01 -1.000000e+02 4.500000e+01
         vertex -6.691341e+01 -1.000000e+02 4.461940e+01
         vertex -6.500000e+01 -9.500000e+01 4.500000e+01
      endloop
   endfacet
   facet normal 5.555681e-01 0.000000e+00 -8.314711e-01
      outer loop
         vertex -6.853554e+01 -1.000000e+02 4.353553e+01
         vertex -6.853554e+01 -9.500000e+01 4.353553e+01
         vertex -6.691341e+01 -9.500000e+01 4.461940e+01
      endloop
   endfacet
   facet normal 5.555681e-01 0.000000e+00 -8.314711e-01
      outer loop
         vertex -6.691341e+01 -1.000000e+02 4.461940e+01
         vertex -6.853554e+01 -1.000000e+02 4.353553e+01
         vertex -6.691341e+01 -9.500000e+01 4.461940e+01
      endloop
   endfacet
   facet normal 8.314699e-01 0.000000e+00 -5.555699e-01
      outer loop
         vertex -6.961940e+01 -1.000000e+02 4.191342e+01
         vertex -6.961940e+01 -9.500000e+01 4.191342e+01
         vertex -6.853554e+01 -9.500000e+01 4.353553e+01
      endloop
   endfacet
   facet normal 8.314699e-01 0.000000e+00 -5.555699e-01
      outer loop
         vertex -6.853554e+01 -1.000000e+02 4.353553e+01
         vertex -6.961940e+01 -1.000000e+02 4.191342e+01
         vertex -6.853554e+01 -9.500000e+01 4.353553e+01
      endloop
   endfacet
   facet normal 9.807855e-01 0.000000e+00 -1.950891e-01
      outer loop
         vertex -7.000000e+01 -1.000000e+02 4.000000e+01
         vertex -7.000000e+01 -9.500000e+01 4.000000e+01
         vertex -6.961940e+01 -9.500000e+01 4.191342e+01
      endloop
   endfacet
   facet normal 9.807855e-01 0.000000e+00 -1.950891e-01
      outer loop
         vertex -6.961940e+01 -1.000000e+02 4.191342e+01
         vertex -7.000000e+01 -1.000000e+02 4.000000e+01
         vertex -6.961940e+01 -9.500000e+01 4.191342e+01
      endloop
   endfacet
   facet normal 1.000000e+00 0.000000e+00 0.000000e+00
      outer loop
         vertex -7.000000e+01 -9.500000e+01 -4.000000e+01
         vertex -7.000000e+01 -9.500000e+01 4.000000e+01
         vertex -7.000000e+01 -1.000000e+02 4.000000e+01
      endloop
   endfacet
   facet normal 1.000000e+00 0.000000e+00 0.000000e+00
      outer loop
         vertex -7.000000e+01 -1.000000e+02 4.000000e+01
         vertex -7.000000e+01 -1.000000e+02 -4.000000e+01
         vertex -7.000000e+01 -9.500000e+01 -4.000000e+01
      endloop
   endfacet
   facet normal 9.807855e-01 0.000000e+00 1.950891e-01
      outer loop
         vertex -6.961940e+01 -1.000000e+02 -4.191342e+01
         vertex -6.961940e+01 -9.500000e+01 -4.191342e+01
         vertex -7.000000e+01 -9.500000e+01 -4.000000e+01
      endloop
   endfacet
   facet normal 9.807855e-01 0.000000e+00 1.950891e-01
      outer loop
         vertex -7.000000e+01 -1.000000e+02 -4.000000e+01
         vertex -6.961940e+01 -1.000000e+02 -4.191342e+01
         vertex -7.000000e+01 -9.500000e+01 -4.000000e+01
      endloop
   endfacet
   facet normal 8.314699e-01 0.000000e+00 5.555699e-01
      outer loop
         vertex -6.853554e+01 -1.000000e+02 -4.353553e+01
         vertex -6.853554e+01 -9.500000e+01 -4.353553e+01
         vertex -6.961940e+01 -9.500000e+01 -4.191342e+01
      endloop
   endfacet
   facet normal 8.314699e-01 0.000000e+00 5.555699e-01
      outer loop
         vertex -6.961940e+01 -1.000000e+02 -4.191342e+01
         vertex -6.853554e+01 -1.000000e+02 -4.353553e+01
         vertex -6.961940e+01 -9.500000e+01 -4.191342e+01
      endloop
   endfacet
   facet normal 5.555681e-01 0.000000e+00 8.314711e-01
      outer loop
         vertex -6.691341e+01 -1.000000e+02 -4.461940e+01
         vertex -6.691341e+01 -9.500000e+01 -4.461940e+01
         vertex -6.853554e+01 -9.500000e+01 -4.353553e+01
      endloop
   endfacet
   facet normal 5.555681e-01 0.000000e+00 8.314711e-01
      outer loop
         vertex -6.853554e+01 -1.000000e+02 -4.353553e+01
         vertex -6.691341e+01 -1.000000e+02 -4.461940e+01
         vertex -6.853554e+01 -9.500000e+01 -4.353553e+01
      endloop
   endfacet
   facet normal 1.950913e-01 0.000000e+00 9.807851e-01
      outer loop
         vertex -6.500000e+01 -1.000000e+02 -4.500000e+01
         vertex -6.500000e+01 -9.500000e+01 -4.500000e+01
         vertex -6.691341e+01 -9.500000e+01 -4.461940e+01
      endloop
   endfacet
   facet normal 1.950913e-01 0.000000e+00 9.807851e-01
      outer loop
         vertex -6.691341e+01 -1.000000e+02 -4.461940e+01
         vertex -6.500000e+01 -1.000000e+02 -4.500000e+01
         vertex -6.691341e+01 -9.500000e+01 -4.461940e+01
      endloop
   endfacet
   facet normal -0.000000e+00 0.000000e+00 1.000000e+00
      outer loop
         vertex 6.500000e+01 -9.500000e+01 -4.500000e+01
         vertex -6.500000e+01 -9.500000e+01 -4.500000e+01
         vertex -6.500000e+01 -1.000000e+02 -4.500000e+01
      endloop
   endfacet
   facet normal 0.000000e+00 -0.000000e+00 1.000000e+00
      outer loop
         vertex -6.500000e+01 -1.000000e+02 -4.500000e+01
         vertex 6.500000e+01 -1.000000e+02 -4.500000e+01
         vertex 6.500000e+01 -9.500000e+01 -4.500000e+01
      endloop
   endfacet
   facet normal 0.000000e+00 -1.000000e+00 0.000000e+00
      outer loop
         vertex -6.500000e+01 -9.500000e+01 -4.500000e+01
         vertex 6.500000e+01 -9.500000e+01 -4.500000e+01
         vertex -6.500000e+01 -9.500000e+01 -4.000000e+01
      endloop
   endfacet
   facet normal -0.000000e+00 -1.000000e+00 0.000000e+00
      outer loop
         vertex 6.500000e+01 -9.500000e+01 -4.500000e+01
         vertex 6.691341e+01 -9.500000e+01 -4.461940e+01
         vertex 6.500000e+01 -9.500000e+01 -4.000000e+01
      endloop
   endfacet
   facet normal -0.000000e+00 -1.000000e+00 0.000000e+00
      outer loop
         vertex 6.691341e+01 -9.500000e+01 -4.461940e+01
         vertex 6.853554e+01 -9.500000e+01 -4.353553e+01
         vertex 6.500000e+01 -9.500000e+01 -4.000000e+01
      endloop
   endfacet
   facet normal -0.000000e+00 -1.000000e+00 0.000000e+00
      outer loop
         vertex 6.853554e+01 -9.500000e+01 -4.353553e+01
         vertex 6.961940e+01 -9.500000e+01 -4.191342e+01
         vertex 6.500000e+01 -9.500000e+01 -4.000000e+01
      endloop
   endfacet
   facet normal -0.000000e+00 -1.000000e+00 0.000000e+00
      outer loop
         vertex 6.961940e+01 -9.500000e+01 -4.191342e+01
         vertex 7.000000e+01 -9.500000e+01 -4.000000e+01
         vertex 6.500000e+01 -9.500000e+01 -4.000000e+01
      endloop
   endfacet
   facet normal -0.000000e+00 -1.000000e+00 -0.000000e+00
      outer loop
         vertex 7.000000e+01 -9.500000e+01 -4.000000e+01
         vertex 7.000000e+01 -9.500000e+01 4.000000e+01
         vertex 6.500000e+01 -9.500000e+01 4.000000e+01
      endloop
   endfacet
   facet normal 0.000000e+00 -1.000000e+00 -0.000000e+00
      outer loop
         vertex 7.000000e+01 -9.500000e+01 4.000000e+01
         vertex 6.961940e+01 -9.500000e+01 4.191342e+01
         vertex 6.500000e+01 -9.500000e+01 4.000000e+01
      endloop
   endfacet
   facet normal 0.000000e+00 -1.000000e+00 -0.000000e+00
      outer loop
         vertex 6.961940e+01 -9.500000e+01 4.191342e+01
         vertex 6.853554e+01 -9.500000e+01 4.353553e+01
         vertex 6.500000e+01 -9.500000e+01 4.000000e+01
      endloop
   endfacet
   facet normal 0.000000e+00 -1.000000e+00 -0.000000e+00
      outer loop
         vertex 6.853554e+01 -9.500000e+01 4.353553e+01
         vertex 6.691341e+01 -9.500000e+01 4.461940e+01
         vertex 6.500000e+01 -9.500000e+01 4.000000e+01
      endloop
   endfacet
   facet normal 0.000000e+00 -1.000000e+00 0.000000e+00
      outer loop
         vertex 6.691341e+01 -9.500000e+01 4.461940e+01
         vertex 6.500000e+01 -9.500000e+01 4.500000e+01
         vertex 6.500000e+01 -9.500000e+01 4.000000e+01
      endloop
   endfacet
   facet normal 0.000000e+00 -1.000000e+00 0.000000e+00
      outer loop
         vertex 6.500000e+01 -9.500000e+01 4.500000e+01
         vertex -6.500000e+01 -9.500000e+01 4.500000e+01
         vertex -6.500000e+01 -9.500000e+01 4.000000e+01
      endloop
   endfacet
   facet normal 0.000000e+00 -1.000000e+00 0.000000e+00
      outer loop
         vertex -6.500000e+01 -9.500000e+01 4.500000e+01
         vertex -6.691341e+01 -9.500000e+01 4.461940e+01
         vertex -6.500000e+01 -9.500000e+01 4.000000e+01
      endloop
   endfacet
   facet normal 0.000000e+00 -1.000000e+00 0.000000e+00
      outer loop
         vertex -6.691341e+01 -9.500000e+01 4.461940e+01
         vertex -6.853554e+01 -9.500000e+01 4.353553e+01
         vertex -6.500000e+01 -9.500000e+01 4.000000e+01
      endloop
   endfacet
   facet normal 0.000000e+00 -1.000000e+00 0.000000e+00
      outer loop
         vertex -6.853554e+01 -9.500000e+01 4.353553e+01
         vertex -6.961940e+01 -9.500000e+01 4.191342e+01
         vertex -6.500000e+01 -9.500000e+01 4.000000e+01
      endloop
   endfacet
   facet normal 0.000000e+00 -1.000000e+00 0.000000e+00
      outer loop
         vertex -6.961940e+01 -9.500000e+01 4.191342e+01
         vertex -7.000000e+01 -9.500000e+01 4.000000e+01
         vertex -6.500000e+01 -9.500000e+01 4.000000e+01
      endloop
   endfacet
   facet normal 0.000000e+00 -1.000000e+00 0.000000e+00
      outer loop
         vertex -7.000000e+01 -9.500000e+01 4.000000e+01
         vertex -7.000000e+01 -9.500000e+01 -4.000000e+01
         vertex -6.500000e+01 -9.500000e+01 -4.000000e+01
      endloop
   endfacet
   facet normal 0.000000e+00 -1.000000e+00 0.000000e+00
      outer loop
         vertex -7.000000e+01 -9.500000e+01 -4.000000e+01
         vertex -6.961940e+01 -9.500000e+01 -4.191342e+01
         vertex -6.500000e+01 -9.500000e+01 -4.000000e+01
      endloop
   endfacet
   facet normal 0.000000e+00 -1.000000e+00 0.000000e+00
      outer loop
         vertex -6.961940e+01 -9.500000e+01 -4.191342e+01
         vertex -6.853554e+01 -9.500000e+01 -4.353553e+01
         vertex -6.500000e+01 -9.500000e+01 -4.000000e+01
      endloop
   endfacet
   facet normal 0.000000e+00 -1.000000e+00 0.000000e+00
      outer loop
         vertex -6.853554e+01 -9.500000e+01 -4.353553e+01
         vertex -6.691341e+01 -9.500000e+01 -4.461940e+01
         vertex -6.500000e+01 -9.500000e+01 -4.000000e+01
      endloop
   endfacet
   facet normal 0.000000e+00 -1.000000e+00 0.000000e+00
      outer loop
         vertex -6.691341e+01 -9.500000e+01 -4.461940e+01
         vertex -6.500000e+01 -9.500000e+01 -4.500000e+01
         vertex -6.500000e+01 -9.500000e+01 -4.000000e+01
      endloop
   endfacet
   facet normal -0.000000e+00 -1.000000e+00 -0.000000e+00
      outer loop
         vertex -6.500000e+01 -9.500000e+01 -4.000000e+01
         vertex -6.500000e+01 -9.500000e+01 4.000000e+01
         vertex -7.000000e+01 -9.500000e+01 4.000000e+01
      endloop
   endfacet
   facet normal 0.000000e+00 -1.000000e+00 0.000000e+00
      outer loop
         vertex -6.500000e+01 -9.500000e+01 4.000000e+01
         vertex 6.500000e+01 -9.500000e+01 4.000000e+01
         vertex 6.500000e+01 -9.500000e+01 4.500000e+01
      endloop
   endfacet
   facet normal 0.000000e+00 -1.000000e+00 0.000000e+00
      outer loop
         vertex 6.500000e+01 -9.500000e+01 4.000000e+01
         vertex 6.500000e+01 -9.500000e+01 -4.000000e+01
         vertex 7.000000e+01 -9.500000e+01 -4.000000e+01
      endloop
   endfacet
   facet normal 0.000000e+00 -1.000000e+00 0.000000e+00
      outer loop
         vertex 6.500000e+01 -9.500000e+01 -4.000000e+01
         vertex -6.500000e+01 -9.500000e+01 -4.000000e+01
         vertex 6.500000e+01 -9.500000e+01 -4.500000e+01
      endloop
   endfacet
   facet normal 9.937121e-01 -0.000000e+00 1.119651e-01
      outer loop
         vertex 7.462392e+01 1.000000e+01 3.833781e+01
         vertex 7.462392e+01 -1.000000e+02 3.833781e+01
         vertex 7.500000e+01 -1.000000e+02 3.500000e+01
      endloop
   endfacet
   facet normal 9.937121e-01 0.000000e+00 1.119651e-01
      outer loop
         vertex 7.500000e+01 1.000000e+01 3.500000e+01
         vertex 7.462392e+01 1.000000e+01 3.833781e+01
         vertex 7.500000e+01 -1.000000e+02 3.500000e+01
      endloop
   endfacet
   facet normal 9.438836e-01 -0.000000e+00 3.302784e-01
      outer loop
         vertex 7.351453e+01 1.000000e+01 4.150826e+01
         vertex 7.351453e+01 -1.000000e+02 4.150826e+01
         vertex 7.462392e+01 -1.000000e+02 3.833781e+01
      endloop
   endfacet
   facet normal 9.438836e-01 0.000000e+00 3.302784e-01
      outer loop
         vertex 7.462392e+01 1.000000e+01 3.833781e+01
         vertex 7.351453e+01 1.000000e+01 4.150826e+01
         vertex 7.462392e+01 -1.000000e+02 3.833781e+01
      endloop
   endfacet
   facet normal 8.467240e-01 -0.000000e+00 5.320324e-01
      outer loop
         vertex 7.172747e+01 1.000000e+01 4.435235e+01
         vertex 7.172747e+01 -1.000000e+02 4.435235e+01
         vertex 7.351453e+01 -1.000000e+02 4.150826e+01
      endloop
   endfacet
   facet normal 8.467240e-01 0.000000e+00 5.320324e-01
      outer loop
         vertex 7.351453e+01 1.000000e+01 4.150826e+01
         vertex 7.172747e+01 1.000000e+01 4.435235e+01
         vertex 7.351453e+01 -1.000000e+02 4.150826e+01
      endloop
   endfacet
   facet normal 7.071068e-01 -0.000000e+00 7.071068e-01
      outer loop
         vertex 6.935235e+01 1.000000e+01 4.672747e+01
         vertex 6.935235e+01 -1.000000e+02 4.672747e+01
         vertex 7.172747e+01 -1.000000e+02 4.435235e+01
      endloop
   endfacet
   facet normal 7.071068e-01 0.000000e+00 7.071068e-01
      outer loop
         vertex 7.172747e+01 1.000000e+01 4.435235e+01
         vertex 6.935235e+01 1.000000e+01 4.672747e+01
         vertex 7.172747e+01 -1.000000e+02 4.435235e+01
      endloop
   endfacet
   facet normal 5.320324e-01 -0.000000e+00 8.467240e-01
      outer loop
         vertex 6.650826e+01 1.000000e+01 4.851453e+01
         vertex 6.650826e+01 -1.000000e+02 4.851453e+01
         vertex 6.935235e+01 -1.000000e+02 4.672747e+01
      endloop
   endfacet
   facet normal 5.320324e-01 0.000000e+00 8.467240e-01
      outer loop
         vertex 6.935235e+01 1.000000e+01 4.672747e+01
         vertex 6.650826e+01 1.000000e+01 4.851453e+01
         vertex 6.935235e+01 -1.000000e+02 4.672747e+01
      endloop
   endfacet
   facet normal 3.302794e-01 -0.000000e+00 9.438832e-01
      outer loop
         vertex 6.333781e+01 1.000000e+01 4.962392e+01
         vertex 6.333781e+01 -1.000000e+02 4.962392e+01
         vertex 6.650826e+01 -1.000000e+02 4.851453e+01
      endloop
   endfacet
   facet normal 3.302794e-01 0.000000e+00 9.438832e-01
      outer loop
         vertex 6.650826e+01 1.000000e+01 4.851453e+01
         vertex 6.333781e+01 1.000000e+01 4.962392e+01
         vertex 6.650826e+01 -1.000000e+02 4.851453e+01
      endloop
   endfacet
   facet normal 1.119639e-01 -0.000000e+00 9.937123e-01
      outer loop
         vertex 6.000000e+01 1.000000e+01 5.000000e+01
         vertex 6.000000e+01 -1.000000e+02 5.000000e+01
         vertex 6.333781e+01 -1.000000e+02 4.962392e+01
      endloop
   endfacet
   facet normal 1.119639e-01 0.000000e+00 9.937123e-01
      outer loop
         vertex 6.333781e+01 1.000000e+01 4.962392e+01
         vertex 6.000000e+01 1.000000e+01 5.000000e+01
         vertex 6.333781e+01 -1.000000e+02 4.962392e+01
      endloop
   endfacet
   facet normal 0.000000e+00 0.000000e+00 1.000000e+00
      outer loop
         vertex 6.000000e+01 -1.000000e+02 5.000000e+01
         vertex 6.000000e+01 1.000000e+01 5.000000e+01
         vertex -6.000000e+01 1.000000e+01 5.000000e+01
      endloop
   endfacet
   facet normal 0.000000e+00 0.000000e+00 1.000000e+00
      outer loop
         vertex -6.000000e+01 1.000000e+01 5.000000e+01
         vertex -6.000000e+01 -1.000000e+02 5.000000e+01
         vertex 6.000000e+01 -1.000000e+02 5.000000e+01
      endloop
   endfacet
   facet normal -1.119639e-01 0.000000e+00 9.937123e-01
      outer loop
         vertex -6.333781e+01 1.000000e+01 4.962392e+01
         vertex -6.333781e+01 -1.000000e+02 4.962392e+01
         vertex -6.000000e+01 -1.000000e+02 5.000000e+01
      endloop
   endfacet
   facet normal -1.119639e-01 0.000000e+00 9.937123e-01
      outer loop
         vertex -6.000000e+01 1.000000e+01 5.000000e+01
         vertex -6.333781e+01 1.000000e+01 4.962392e+01
         vertex -6.000000e+01 -1.000000e+02 5.000000e+01
      endloop
   endfacet
   facet normal -3.302794e-01 0.000000e+00 9.438832e-01
      outer loop
         vertex -6.650826e+01 1.000000e+01 4.851453e+01
         vertex -6.650826e+01 -1.000000e+02 4.851453e+01
         vertex -6.333781e+01 -1.000000e+02 4.962392e+01
      endloop
   endfacet
   facet normal -3.302794e-01 0.000000e+00 9.438832e-01
      outer loop
         vertex -6.333781e+01 1.000000e+01 4.962392e+01
         vertex -6.650826e+01 1.000000e+01 4.851453e+01
         vertex -6.333781e+01 -1.000000e+02 4.962392e+01
      endloop
   endfacet
   facet normal -5.320324e-01 0.000000e+00 8.467240e-01
      outer loop
         vertex -6.935235e+01 1.000000e+01 4.672747e+01
         vertex -6.935235e+01 -1.000000e+02 4.672747e+01
         vertex -6.650826e+01 -1.000000e+02 4.851453e+01
      endloop
   endfacet
   facet normal -5.320324e-01 0.000000e+00 8.467240e-01
      outer loop
         vertex -6.650826e+01 1.000000e+01 4.851453e+01
         vertex -6.935235e+01 1.000000e+01 4.672747e+01
         vertex -6.650826e+01 -1.000000e+02 4.851453e+01
      endloop
   endfacet
   facet normal -7.071068e-01 0.000000e+00 7.071068e-01
      outer loop
         vertex -7.172747e+01 1.000000e+01 4.435235e+01
         vertex -7.172747e+01 -1.000000e+02 4.435235e+01
         vertex -6.935235e+01 -1.000000e+02 4.672747e+01
      endloop
   endfacet
   facet normal -7.071068e-01 0.000000e+00 7.071068e-01
      outer loop
         vertex -6.935235e+01 1.000000e+01 4.672747e+01
         vertex -7.172747e+01 1.000000e+01 4.435235e+01
         vertex -6.935235e+01 -1.000000e+02 4.672747e+01
      endloop
   endfacet
   facet normal -8.467240e-01 0.000000e+00 5.320324e-01
      outer loop
         vertex -7.351453e+01 1.000000e+01 4.150826e+01
         vertex -7.351453e+01 -1.000000e+02 4.150826e+01
         vertex -7.172747e+01 -1.000000e+02 4.435235e+01
      endloop
   endfacet
   facet normal -8.467240e-01 0.000000e+00 5.320324e-01
      outer loop
         vertex -7.172747e+01 1.000000e+01 4.435235e+01
         vertex -7.351453e+01 1.000000e+01 4.150826e+01
         vertex -7.172747e+01 -1.000000e+02 4.435235e+01
      endloop
   endfacet
   facet normal -9.438836e-01 0.000000e+00 3.302784e-01
      outer loop
         vertex -7.462392e+01 1.000000e+01 3.833781e+01
         vertex -7.462392e+01 -1.000000e+02 3.833781e+01
         vertex -7.351453e+01 -1.000000e+02 4.150826e+01
      endloop
   endfacet
   facet normal -9.438836e-01 0.000000e+00 3.302784e-01
      outer loop
         vertex -7.351453e+01 1.000000e+01 4.150826e+01
         vertex -7.462392e+01 1.000000e+01 3.833781e+01
         vertex -7.351453e+01 -1.000000e+02 4.150826e+01
      endloop
   endfacet
   facet normal -9.937121e-01 0.000000e+00 1.119651e-01
      outer loop
         vertex -7.500000e+01 1.000000e+01 3.500000e+01
         vertex -7.500000e+01 -1.000000e+02 3.500000e+01
         vertex -7.462392e+01 -1.000000e+02 3.833781e+01
      endloop
   endfacet
   facet normal -9.937121e-01 0.000000e+00 1.119651e-01
      outer loop
         vertex -7.462392e+01 1.000000e+01 3.833781e+01
         vertex -7.500000e+01 1.000000e+01 3.500000e+01
         vertex -7.462392e+01 -1.000000e+02 3.833781e+01
      endloop
   endfacet
   facet normal -1.000000e+00 0.000000e+00 0.000000e+00
      outer loop
         vertex -7.500000e+01 1.000000e+01 3.500000e+01
         vertex -7.500000e+01 1.000000e+01 -3.500000e+01
         vertex -7.500000e+01 -1.000000e+02 -3.500000e+01
      endloop
   endfacet
   facet normal -1.000000e+00 0.000000e+00 0.000000e+00
      outer loop
         vertex -7.500000e+01 -1.000000e+02 -3.500000e+01
         vertex -7.500000e+01 -1.000000e+02 3.500000e+01
         vertex -7.500000e+01 1.000000e+01 3.500000e+01
      endloop
   endfacet
   facet normal -9.937121e-01 0.000000e+00 -1.119651e-01
      outer loop
         vertex -7.462392e+01 1.000000e+01 -3.833781e+01
         vertex -7.462392e+01 -1.000000e+02 -3.833781e+01
         vertex -7.500000e+01 -1.000000e+02 -3.500000e+01
      endloop
   endfacet
   facet normal -9.937121e-01 0.000000e+00 -1.119651e-01
      outer loop
         vertex -7.500000e+01 1.000000e+01 -3.500000e+01
         vertex -7.462392e+01 1.000000e+01 -3.833781e+01
         vertex -7.500000e+01 -1.000000e+02 -3.500000e+01
      endloop
   endfacet
   facet normal -9.438836e-01 0.000000e+00 -3.302784e-01
      outer loop
         vertex -7.351453e+01 1.000000e+01 -4.150826e+01
         vertex -7.351453e+01 -1.000000e+02 -4.150826e+01
         vertex -7.462392e+01 -1.000000e+02 -3.833781e+01
      endloop
   endfacet
   facet normal -9.438836e-01 0.000000e+00 -3.302784e-01
      outer loop
         vertex -7.462392e+01 1.000000e+01 -3.833781e+01
         vertex -7.351453e+01 1.000000e+01 -4.150826e+01
         vertex -7.462392e+01 -1.000000e+02 -3.833781e+01
      endloop
   endfacet
   facet normal -8.467240e-01 0.000000e+00 -5.320324e-01
      outer loop
         vertex -7.172747e+01 1.000000e+01 -4.435235e+01
         vertex -7.172747e+01 -1.000000e+02 -4.435235e+01
         vertex -7.351453e+01 -1.000000e+02 -4.150826e+01
      endloop
   endfacet
   facet normal -8.467240e-01 0.000000e+00 -5.320324e-01
      outer loop
         vertex -7.351453e+01 1.000000e+01 -4.150826e+01
         vertex -7.172747e+01 1.000000e+01 -4.435235e+01
         vertex -7.351453e+01 -1.000000e+02 -4.150826e+01
      endloop
   endfacet
   facet normal -7.071068e-01 0.000000e+00 -7.071068e-01
      outer loop
         vertex -6.935235e+01 1.000000e+01 -4.672747e+01
         vertex -6.935235e+01 -1.000000e+02 -4.672747e+01
         vertex -7.172747e+01 -1.000000e+02 -4.435235e+01
      endloop
   endfacet
   facet normal -7.071068e-01 0.000000e+00 -7.071068e-01
      outer loop
         vertex -7.172747e+01 1.000000e+01 -4.435235e+01
         vertex -6.935235e+01 1.000000e+01 -4.672747e+01
         vertex -7.172747e+01 -1.000000e+02 -4.435235e+01
      endloop
   endfacet
   facet normal -5.320324e-01 0.000000e+00 -8.467240e-01
      outer loop
         vertex -6.650826e+01 1.000000e+01 -4.851453e+01
         vertex -6.650826e+01 -1.000000e+02 -4.851453e+01
         vertex -6.935235e+01 -1.000000e+02 -4.672747e+01
      endloop
   endfacet
   facet normal -5.320324e-01 0.000000e+00 -8.467240e-01
      outer loop
         vertex -6.935235e+01 1.000000e+01 -4.672747e+01
         vertex -6.650826e+01 1.000000e+01 -4.851453e+01
         vertex -6.935235e+01 -1.000000e+02 -4.672747e+01
      endloop
   endfacet
   facet normal -3.302794e-01 0.000000e+00 -9.438832e-01
      outer loop
         vertex -6.333781e+01 1.000000e+01 -4.962392e+01
         vertex -6.333781e+01 -1.000000e+02 -4.962392e+01
         vertex -6.650826e+01 -1.000000e+02 -4.851453e+01
      endloop
   endfacet
   facet normal -3.302794e-01 0.000000e+00 -9.438832e-01
      outer loop
         vertex -6.650826e+01 1.000000e+01 -4.851453e+01
         vertex -6.333781e+01 1.000000e+01 -4.962392e+01
         vertex -6.650826e+01 -1.000000e+02 -4.851453e+01
      endloop
   endfacet
   facet normal -1.119639e-01 0.000000e+00 -9.937123e-01
      outer loop
         vertex -6.000000e+01 1.000000e+01 -5.000000e+01
         vertex -6.000000e+01 -1.000000e+02 -5.000000e+01
         vertex -6.333781e+01 -1.000000e+02 -4.962392e+01
      endloop
   endfacet
   facet normal -1.119639e-01 0.000000e+00 -9.937123e-01
      outer loop
         vertex -6.333781e+01 1.000000e+01 -4.962392e+01
         vertex -6.000000e+01 1.000000e+01 -5.000000e+01
         vertex -6.333781e+01 -1.000000e+02 -4.962392e+01
      endloop
   endfacet
   facet normal -0.000000e+00 -0.000000e+00 -1.000000e+00
      outer loop
         vertex -6.000000e+01 1.000000e+01 -5.000000e+01
         vertex 6.000000e+01 1.000000e+01 -5.000000e+01
         vertex 6.000000e+01 -1.000000e+02 -5.000000e+01
      endloop
   endfacet
   facet normal 0.000000e+00 0.000000e+00 -1.000000e+00
      outer loop
         vertex 6.000000e+01 -1.000000e+02 -5.000000e+01
         vertex -6.000000e+01 -1.000000e+02 -5.000000e+01
         vertex -6.000000e+01 1.000000e+01 -5.000000e+01
      endloop
   endfacet
   facet normal 1.119639e-01 0.000000e+00 -9.937123e-01
      outer loop
         vertex 6.333781e+01 1.000000e+01 -4.962392e+01
         vertex 6.333781e+01 -1.000000e+02 -4.962392e+01
         vertex 6.000000e+01 -1.000000e+02 -5.000000e+01
      endloop
   endfacet
   facet normal 1.119639e-01 0.000000e+00 -9.937123e-01
      outer loop
         vertex 6.000000e+01 1.000000e+01 -5.000000e+01
         vertex 6.333781e+01 1.000000e+01 -4.962392e+01
         vertex 6.000000e+01 -1.000000e+02 -5.000000e+01
      endloop
   endfacet
   facet normal 3.302794e-01 0.000000e+00 -9.438832e-01
      outer loop
         vertex 6.650826e+01 1.000000e+01 -4.851453e+01
         vertex 6.650826e+01 -1.000000e+02 -4.851453e+01
         vertex 6.333781e+01 -1.000000e+02 -4.962392e+01
      endloop
   endfacet
   facet normal 3.302794e-01 0.000000e+00 -9.438832e-01
      outer loop
         vertex 6.333781e+01 1.000000e+01 -4.962392e+01
         vertex 6.650826e+01 1.000000e+01 -4.851453e+01
         vertex 6.333781e+01 -1.000000e+02 -4.962392e+01
      endloop
   endfacet
   facet normal 5.320324e-01 0.000000e+00 -8.467240e-01
      outer loop
         vertex 6.935235e+01 1.000000e+01 -4.672747e+01
         vertex 6.935235e+01 -1.000000e+02 -4.672747e+01
         vertex 6.650826e+01 -1.000000e+02 -4.851453e+01
      endloop
   endfacet
   facet normal 5.320324e-01 0.000000e+00 -8.467240e-01
      outer loop
         vertex 6.650826e+01 1.000000e+01 -4.851453e+01
         vertex 6.935235e+01 1.000000e+01 -4.672747e+01
         vertex 6.650826e+01 -1.000000e+02 -4.851453e+01
      endloop
   endfacet
   facet normal 7.071068e-01 0.000000e+00 -7.071068e-01
      outer loop
         vertex 7.172747e+01 1.000000e+01 -4.435235e+01
         vertex 7.172747e+01 -1.000000e+02 -4.435235e+01
         vertex 6.935235e+01 -1.000000e+02 -4.672747e+01
      endloop
   endfacet
   facet normal 7.071068e-01 0.000000e+00 -7.071068e-01
      outer loop
         vertex 6.935235e+01 1.000000e+01 -4.672747e+01
         vertex 7.172747e+01 1.000000e+01 -4.435235e+01
         vertex 6.935235e+01 -1.000000e+02 -4.672747e+01
      endloop
   endfacet
   facet normal 8.467240e-01 0.000000e+00 -5.320324e-01
      outer loop
         vertex 7.351453e+01 1.000000e+01 -4.150826e+01
         vertex 7.351453e+01 -1.000000e+02 -4.150826e+01
         vertex 7.172747e+01 -1.000000e+02 -4.435235e+01
      endloop
   endfacet
   facet normal 8.467240e-01 0.000000e+00 -5.320324e-01
      outer loop
         vertex 7.172747e+01 1.000000e+01 -4.435235e+01
         vertex 7.351453e+01 1.000000e+01 -4.150826e+01
         vertex 7.172747e+01 -1.000000e+02 -4.435235e+01
      endloop
   endfacet
   facet normal 9.438836e-01 0.000000e+00 -3.302784e-01
      outer loop
         vertex 7.462392e+01 1.000000e+01 -3.833781e+01
         vertex 7.462392e+01 -1.000000e+02 -3.833781e+01
         vertex 7.351453e+01 -1.000000e+02 -4.150826e+01
      endloop
   endfacet
   facet normal 9.438836e-01 0.000000e+00 -3.302784e-01
      outer loop
         vertex 7.351453e+01 1.000000e+01 -4.150826e+01
         vertex 7.462392e+01 1.000000e+01 -3.833781e+01
         vertex 7.351453e+01 -1.000000e+02 -4.150826e+01
      endloop
   endfacet
   facet normal 9.937121e-01 0.000000e+00 -1.119651e-01
      outer loop
         vertex 7.500000e+01 1.000000e+01 -3.500000e+01
         vertex 7.500000e+01 -1.000000e+02 -3.500000e+01
         vertex 7.462392e+01 -1.000000e+02 -3.833781e+01
      endloop
   endfacet
   facet normal 9.937121e-01 0.000000e+00 -1.119651e-01
      outer loop
         vertex 7.462392e+01 1.000000e+01 -3.833781e+01
         vertex 7.500000e+01 1.000000e+01 -3.500000e+01
         vertex 7.462392e+01 -1.000000e+02 -3.833781e+01
      endloop
   endfacet
   facet normal 1.000000e+00 0.000000e+00 0.000000e+00
      outer loop
         vertex 7.500000e+01 1.000000e+01 -3.500000e+01
         vertex 7.500000e+01 1.000000e+01 3.500000e+01
         vertex 7.500000e+01 -1.000000e+02 3.500000e+01
      endloop
   endfacet
   facet normal 1.000000e+00 0.000000e+00 0.000000e+00
      outer loop
         vertex 7.500000e+01 -1.000000e+02 3.500000e+01
         vertex 7.500000e+01 -1.000000e+02 -3.500000e+01
         vertex 7.500000e+01 1.000000e+01 -3.500000e+01
      endloop
   endfacet
   facet normal 0.000000e+00 1.000000e+00 0.000000e+00
      outer loop
         vertex 6.500000e+01 5.000000e+00 -4.500000e+01
         vertex -6.500000e+01 5.000000e+00 -4.500000e+01
         vertex -6.500000e+01 5.000000e+00 -4.000000e+01
      endloop
   endfacet
   facet normal -0.000000e+00 1.000000e+00 0.000000e+00
      outer loop
         vertex -6.500000e+01 5.000000e+00 -4.500000e+01
         vertex -6.691341e+01 5.000000e+00 -4.461940e+01
         vertex -6.500000e+01 5.000000e+00 -4.000000e+01
      endloop
   endfacet
   facet normal -0.000000e+00 1.000000e+00 0.000000e+00
      outer loop
         vertex -6.691341e+01 5.000000e+00 -4.461940e+01
         vertex -6.853554e+01 5.000000e+00 -4.353553e+01
         vertex -6.500000e+01 5.000000e+00 -4.000000e+01
      endloop
   endfacet
   facet normal -0.000000e+00 1.000000e+00 0.000000e+00
      outer loop
         vertex -6.853554e+01 5.000000e+00 -4.353553e+01
         vertex -6.961940e+01 5.000000e+00 -4.191342e+01
         vertex -6.500000e+01 5.000000e+00 -4.000000e+01
      endloop
   endfacet
   facet normal -0.000000e+00 1.000000e+00 0.000000e+00
      outer loop
         vertex -6.961940e+01 5.000000e+00 -4.191342e+01
         vertex -7.000000e+01 5.000000e+00 -4.000000e+01
         vertex -6.500000e+01 5.000000e+00 -4.000000e+01
      endloop
   endfacet
   facet normal 0.000000e+00 1.000000e+00 0.000000e+00
      outer loop
         vertex -7.000000e+01 5.000000e+00 -4.000000e+01
         vertex -7.000000e+01 5.000000e+00 4.000000e+01
         vertex -6.500000e+01 5.000000e+00 -4.000000e+01
      endloop
   endfacet
   facet normal 0.000000e+00 1.000000e+00 0.000000e+00
      outer loop
         vertex -7.000000e+01 5.000000e+00 4.000000e+01
         vertex -6.961940e+01 5.000000e+00 4.191342e+01
         vertex -6.500000e+01 5.000000e+00 4.000000e+01
      endloop
   endfacet
   facet normal 0.000000e+00 1.000000e+00 0.000000e+00
      outer loop
         vertex -6.961940e+01 5.000000e+00 4.191342e+01
         vertex -6.853554e+01 5.000000e+00 4.353553e+01
         vertex -6.500000e+01 5.000000e+00 4.000000e+01
      endloop
   endfacet
   facet normal 0.000000e+00 1.000000e+00 0.000000e+00
      outer loop
         vertex -6.853554e+01 5.000000e+00 4.353553e+01
         vertex -6.691341e+01 5.000000e+00 4.461940e+01
         vertex -6.500000e+01 5.000000e+00 4.000000e+01
      endloop
   endfacet
   facet normal 0.000000e+00 1.000000e+00 0.000000e+00
      outer loop
         vertex -6.691341e+01 5.000000e+00 4.461940e+01
         vertex -6.500000e+01 5.000000e+00 4.500000e+01
         vertex -6.500000e+01 5.000000e+00 4.000000e+01
      endloop
   endfacet
   facet normal 0.000000e+00 1.000000e+00 0.000000e+00
      outer loop
         vertex -6.500000e+01 5.000000e+00 4.500000e+01
         vertex 6.500000e+01 5.000000e+00 4.500000e+01
         vertex 6.500000e+01 5.000000e+00 4.000000e+01
      endloop
   endfacet
   facet normal 0.000000e+00 1.000000e+00 0.000000e+00
      outer loop
         vertex 6.500000e+01 5.000000e+00 4.500000e+01
         vertex 6.691341e+01 5.000000e+00 4.461940e+01
         vertex 6.500000e+01 5.000000e+00 4.000000e+01
      endloop
   endfacet
   facet normal 0.000000e+00 1.000000e+00 0.000000e+00
      outer loop
         vertex 6.691341e+01 5.000000e+00 4.461940e+01
         vertex 6.853554e+01 5.000000e+00 4.353553e+01
         vertex 6.500000e+01 5.000000e+00 4.000000e+01
      endloop
   endfacet
   facet normal 0.000000e+00 1.000000e+00 0.000000e+00
      outer loop
         vertex 6.853554e+01 5.000000e+00 4.353553e+01
         vertex 6.961940e+01 5.000000e+00 4.191342e+01
         vertex 6.500000e+01 5.000000e+00 4.000000e+01
      endloop
   endfacet
   facet normal 0.000000e+00 1.000000e+00 0.000000e+00
      outer loop
         vertex 6.961940e+01 5.000000e+00 4.191342e+01
         vertex 7.000000e+01 5.000000e+00 4.000000e+01
         vertex 6.500000e+01 5.000000e+00 4.000000e+01
      endloop
   endfacet
   facet normal 0.000000e+00 1.000000e+00 -0.000000e+00
      outer loop
         vertex 7.000000e+01 5.000000e+00 4.000000e+01
         vertex 7.000000e+01 5.000000e+00 -4.000000e+01
         vertex 6.500000e+01 5.000000e+00 -4.000000e+01
      endloop
   endfacet
   facet normal 0.000000e+00 1.000000e+00 -0.000000e+00
      outer loop
         vertex 7.000000e+01 5.000000e+00 -4.000000e+01
         vertex 6.961940e+01 5.000000e+00 -4.191342e+01
         vertex 6.500000e+01 5.000000e+00 -4.000000e+01
      endloop
   endfacet
   facet normal 0.000000e+00 1.000000e+00 -0.000000e+00
      outer loop
         vertex 6.961940e+01 5.000000e+00 -4.191342e+01
         vertex 6.853554e+01 5.000000e+00 -4.353553e+01
         vertex 6.500000e+01 5.000000e+00 -4.000000e+01
      endloop
   endfacet
   facet normal 0.000000e+00 1.000000e+00 -0.000000e+00
      outer loop
         vertex 6.853554e+01 5.000000e+00 -4.353553e+01
         vertex 6.691341e+01 5.000000e+00 -4.461940e+01
         vertex 6.500000e+01 5.000000e+00 -4.000000e+01
      endloop
   endfacet
   facet normal 0.000000e+00 1.000000e+00 0.000000e+00
      outer loop
         vertex 6.691341e+01 5.000000e+00 -4.461940e+01
         vertex 6.500000e+01 5.000000e+00 -4.500000e+01
         vertex 6.500000e+01 5.000000e+00 -4.000000e+01
      endloop
   endfacet
   facet normal 0.000000e+00 1.000000e+00 0.000000e+00
      outer loop
         vertex -6.500000e+01 5.000000e+00 -4.000000e+01
         vertex 6.500000e+01 5.000000e+00 -4.000000e+01
         vertex 6.500000e+01 5.000000e+00 -4.500000e+01
      endloop
   endfacet
   facet normal -0.000000e+00 1.000000e+00 0.000000e+00
      outer loop
         vertex 6.500000e+01 5.000000e+00 -4.000000e+01
         vertex 6.500000e+01 5.000000e+00 4.000000e+01
         vertex 7.000000e+01 5.000000e+00 4.000000e+01
      endloop
   endfacet
   facet normal 0.000000e+00 1.000000e+00 0.000000e+00
      outer loop
         vertex 6.500000e+01 5.000000e+00 4.000000e+01
         vertex -6.500000e+01 5.000000e+00 4.000000e+01
         vertex -6.500000e+01 5.000000e+00 4.500000e+01
      endloop
   endfacet
   facet normal 0.000000e+00 1.000000e+00 -0.000000e+00
      outer loop
         vertex -6.500000e+01 5.000000e+00 4.000000e+01
         vertex -6.500000e+01 5.000000e+00 -4.000000e+01
         vertex -7.000000e+01 5.000000e+00 4.000000e+01
      endloop
   endfacet
   facet normal 0.000000e+00 1.000000e+00 0.000000e+00
      outer loop
         vertex 6.000000e+01 1.000000e+01 5.000000e+01
         vertex 6.333781e+01 1.000000e+01 4.962392e+01
         vertex 6.500000e+01 1.000000e+01 4.500000e+01
      endloop
   endfacet
   facet normal 0.000000e+00 1.000000e+00 0.000000e+00
      outer loop
         vertex 6.333781e+01 1.000000e+01 4.962392e+01
         vertex 6.650826e+01 1.000000e+01 4.851453e+01
         vertex 6.500000e+01 1.000000e+01 4.500000e+01
      endloop
   endfacet
   facet normal 0.000000e+00 1.000000e+00 0.000000e+00
      outer loop
         vertex 6.650826e+01 1.000000e+01 4.851453e+01
         vertex 6.935235e+01 1.000000e+01 4.672747e+01
         vertex 6.691341e+01 1.000000e+01 4.461940e+01
      endloop
   endfacet
   facet normal 0.000000e+00 1.000000e+00 0.000000e+00
      outer loop
         vertex 6.935235e+01 1.000000e+01 4.672747e+01
         vertex 7.172747e+01 1.000000e+01 4.435235e+01
         vertex 6.853554e+01 1.000000e+01 4.353553e+01
      endloop
   endfacet
   facet normal 0.000000e+00 1.000000e+00 0.000000e+00
      outer loop
         vertex 7.172747e+01 1.000000e+01 4.435235e+01
         vertex 7.351453e+01 1.000000e+01 4.150826e+01
         vertex 6.961940e+01 1.000000e+01 4.191342e+01
      endloop
   endfacet
   facet normal 0.000000e+00 1.000000e+00 0.000000e+00
      outer loop
         vertex 7.351453e+01 1.000000e+01 4.150826e+01
         vertex 7.462392e+01 1.000000e+01 3.833781e+01
         vertex 7.000000e+01 1.000000e+01 4.000000e+01
      endloop
   endfacet
   facet normal 0.000000e+00 1.000000e+00 0.000000e+00
      outer loop
         vertex 7.462392e+01 1.000000e+01 3.833781e+01
         vertex 7.500000e+01 1.000000e+01 3.500000e+01
         vertex 7.000000e+01 1.000000e+01 4.000000e+01
      endloop
   endfacet
   facet normal 0.000000e+00 1.000000e+00 -0.000000e+00
      outer loop
         vertex 7.500000e+01 1.000000e+01 3.500000e+01
         vertex 7.500000e+01 1.000000e+01 -3.500000e+01
         vertex 7.000000e+01 1.000000e+01 -4.000000e+01
      endloop
   endfacet
   facet normal 0.000000e+00 1.000000e+00 -0.000000e+00
      outer loop
         vertex 7.500000e+01 1.000000e+01 -3.500000e+01
         vertex 7.462392e+01 1.000000e+01 -3.833781e+01
         vertex 7.000000e+01 1.000000e+01 -4.000000e+01
      endloop
   endfacet
   facet normal 0.000000e+00 1.000000e+00 -0.000000e+00
      outer loop
         vertex 7.462392e+01 1.000000e+01 -3.833781e+01
         vertex 7.351453e+01 1.000000e+01 -4.150826e+01
         vertex 7.000000e+01 1.000000e+01 -4.000000e+01
      endloop
   endfacet
   facet normal 0.000000e+00 1.000000e+00 -0.000000e+00
      outer loop
         vertex 7.351453e+01 1.000000e+01 -4.150826e+01
         vertex 7.172747e+01 1.000000e+01 -4.435235e+01
         vertex 6.961940e+01 1.000000e+01 -4.191342e+01
      endloop
   endfacet
   facet normal 0.000000e+00 1.000000e+00 -0.000000e+00
      outer loop
         vertex 7.172747e+01 1.000000e+01 -4.435235e+01
         vertex 6.935235e+01 1.000000e+01 -4.672747e+01
         vertex 6.853554e+01 1.000000e+01 -4.353553e+01
      endloop
   endfacet
   facet normal 0.000000e+00 1.000000e+00 0.000000e+00
      outer loop
         vertex 6.935235e+01 1.000000e+01 -4.672747e+01
         vertex 6.650826e+01 1.000000e+01 -4.851453e+01
         vertex 6.691341e+01 1.000000e+01 -4.461940e+01
      endloop
   endfacet
   facet normal 0.000000e+00 1.000000e+00 0.000000e+00
      outer loop
         vertex 6.650826e+01 1.000000e+01 -4.851453e+01
         vertex 6.333781e+01 1.000000e+01 -4.962392e+01
         vertex 6.500000e+01 1.000000e+01 -4.500000e+01
      endloop
   endfacet
   facet normal 0.000000e+00 1.000000e+00 0.000000e+00
      outer loop
         vertex 6.333781e+01 1.000000e+01 -4.962392e+01
         vertex 6.000000e+01 1.000000e+01 -5.000000e+01
         vertex 6.500000e+01 1.000000e+01 -4.500000e+01
      endloop
   endfacet
   facet normal -0.000000e+00 1.000000e+00 -0.000000e+00
      outer loop
         vertex -6.000000e+01 1.000000e+01 -5.000000e+01
         vertex -6.333781e+01 1.000000e+01 -4.962392e+01
         vertex -6.500000e+01 1.000000e+01 -4.500000e+01
      endloop
   endfacet
   facet normal -0.000000e+00 1.000000e+00 0.000000e+00
      outer loop
         vertex -6.333781e+01 1.000000e+01 -4.962392e+01
         vertex -6.650826e+01 1.000000e+01 -4.851453e+01
         vertex -6.500000e+01 1.000000e+01 -4.500000e+01
      endloop
   endfacet
   facet normal -0.000000e+00 1.000000e+00 0.000000e+00
      outer loop
         vertex -6.650826e+01 1.000000e+01 -4.851453e+01
         vertex -6.935235e+01 1.000000e+01 -4.672747e+01
         vertex -6.691341e+01 1.000000e+01 -4.461940e+01
      endloop
   endfacet
   facet normal -0.000000e+00 1.000000e+00 0.000000e+00
      outer loop
         vertex -6.935235e+01 1.000000e+01 -4.672747e+01
         vertex -7.172747e+01 1.000000e+01 -4.435235e+01
         vertex -6.853554e+01 1.000000e+01 -4.353553e+01
      endloop
   endfacet
   facet normal 0.000000e+00 1.000000e+00 0.000000e+00
      outer loop
         vertex -7.172747e+01 1.000000e+01 -4.435235e+01
         vertex -7.351453e+01 1.000000e+01 -4.150826e+01
         vertex -6.961940e+01 1.000000e+01 -4.191342e+01
      endloop
   endfacet
   facet normal 0.000000e+00 1.000000e+00 0.000000e+00
      outer loop
         vertex -7.351453e+01 1.000000e+01 -4.150826e+01
         vertex -7.462392e+01 1.000000e+01 -3.833781e+01
         vertex -7.000000e+01 1.000000e+01 -4.000000e+01
      endloop
   endfacet
   facet normal 0.000000e+00 1.000000e+00 0.000000e+00
      outer loop
         vertex -7.462392e+01 1.000000e+01 -3.833781e+01
         vertex -7.500000e+01 1.000000e+01 -3.500000e+01
         vertex -7.000000e+01 1.000000e+01 -4.000000e+01
      endloop
   endfacet
   facet normal -0.000000e+00 1.000000e+00 0.000000e+00
      outer loop
         vertex -7.500000e+01 1.000000e+01 -3.500000e+01
         vertex -7.500000e+01 1.000000e+01 3.500000e+01
         vertex -7.000000e+01 1.000000e+01 4.000000e+01
      endloop
   endfacet
   facet normal -0.000000e+00 1.000000e+00 0.000000e+00
      outer loop
         vertex -7.500000e+01 1.000000e+01 3.500000e+01
         vertex -7.462392e+01 1.000000e+01 3.833781e+01
         vertex -7.000000e+01 1.000000e+01 4.000000e+01
      endloop
   endfacet
   facet normal 0.000000e+00 1.000000e+00 0.000000e+00
      outer loop
         vertex -7.462392e+01 1.000000e+01 3.833781e+01
         vertex -7.351453e+01 1.000000e+01 4.150826e+01
         vertex -7.000000e+01 1.000000e+01 4.000000e+01
      endloop
   endfacet
   facet normal 0.000000e+00 1.000000e+00 0.000000e+00
      outer loop
         vertex -7.351453e+01 1.000000e+01 4.150826e+01
         vertex -7.172747e+01 1.000000e+01 4.435235e+01
         vertex -6.961940e+01 1.000000e+01 4.191342e+01
      endloop
   endfacet
   facet normal 0.000000e+00 1.000000e+00 0.000000e+00
      outer loop
         vertex -7.172747e+01 1.000000e+01 4.435235e+01
         vertex -6.935235e+01 1.000000e+01 4.672747e+01
         vertex -6.853554e+01 1.000000e+01 4.353553e+01
      endloop
   endfacet
   facet normal 0.000000e+00 1.000000e+00 0.000000e+00
      outer loop
         vertex -6.935235e+01 1.000000e+01 4.672747e+01
         vertex -6.650826e+01 1.000000e+01 4.851453e+01
         vertex -6.691341e+01 1.000000e+01 4.461940e+01
      endloop
   endfacet
   facet normal 0.000000e+00 1.000000e+00 0.000000e+00
      outer loop
         vertex -6.650826e+01 1.000000e+01 4.851453e+01
         vertex -6.333781e+01 1.000000e+01 4.962392e+01
         vertex -6.500000e+01 1.000000e+01 4.500000e+01
      endloop
   endfacet
   facet normal 0.000000e+00 1.000000e+00 0.000000e+00
      outer loop
         vertex -6.333781e+01 1.000000e+01 4.962392e+01
         vertex -6.000000e+01 1.000000e+01 5.000000e+01
         vertex -6.500000e+01 1.000000e+01 4.500000e+01
      endloop
   endfacet
   facet normal 0.000000e+00 1.000000e+00 0.000000e+00
      outer loop
         vertex -6.691341e+01 1.000000e+01 -4.461940e+01
         vertex -6.500000e+01 1.000000e+01 -4.500000e+01
         vertex -6.650826e+01 1.000000e+01 -4.851453e+01
      endloop
   endfacet
   facet normal 0.000000e+00 1.000000e+00 0.000000e+00
      outer loop
         vertex -6.500000e+01 1.000000e+01 -4.500000e+01
         vertex 6.500000e+01 1.000000e+01 -4.500000e+01
         vertex 6.000000e+01 1.000000e+01 -5.000000e+01
      endloop
   endfacet
   facet normal 0.000000e+00 1.000000e+00 0.000000e+00
      outer loop
         vertex 6.500000e+01 1.000000e+01 -4.500000e+01
         vertex 6.691341e+01 1.000000e+01 -4.461940e+01
         vertex 6.650826e+01 1.000000e+01 -4.851453e+01
      endloop
   endfacet
   facet normal 0.000000e+00 1.000000e+00 0.000000e+00
      outer loop
         vertex 6.691341e+01 1.000000e+01 -4.461940e+01
         vertex 6.853554e+01 1.000000e+01 -4.353553e+01
         vertex 6.935235e+01 1.000000e+01 -4.672747e+01
      endloop
   endfacet
   facet normal 0.000000e+00 1.000000e+00 0.000000e+00
      outer loop
         vertex 6.853554e+01 1.000000e+01 -4.353553e+01
         vertex 6.961940e+01 1.000000e+01 -4.191342e+01
         vertex 7.172747e+01 1.000000e+01 -4.435235e+01
      endloop
   endfacet
   facet normal 0.000000e+00 1.000000e+00 0.000000e+00
      outer loop
         vertex 6.961940e+01 1.000000e+01 -4.191342e+01
         vertex 7.000000e+01 1.000000e+01 -4.000000e+01
         vertex 7.351453e+01 1.000000e+01 -4.150826e+01
      endloop
   endfacet
   facet normal 0.000000e+00 1.000000e+00 0.000000e+00
      outer loop
         vertex 7.000000e+01 1.000000e+01 -4.000000e+01
         vertex 7.000000e+01 1.000000e+01 4.000000e+01
         vertex 7.500000e+01 1.000000e+01 3.500000e+01
      endloop
   endfacet
   facet normal 0.000000e+00 1.000000e+00 0.000000e+00
      outer loop
         vertex 7.000000e+01 1.000000e+01 4.000000e+01
         vertex 6.961940e+01 1.000000e+01 4.191342e+01
         vertex 7.351453e+01 1.000000e+01 4.150826e+01
      endloop
   endfacet
   facet normal -0.000000e+00 1.000000e+00 0.000000e+00
      outer loop
         vertex 6.961940e+01 1.000000e+01 4.191342e+01
         vertex 6.853554e+01 1.000000e+01 4.353553e+01
         vertex 7.172747e+01 1.000000e+01 4.435235e+01
      endloop
   endfacet
   facet normal -0.000000e+00 1.000000e+00 0.000000e+00
      outer loop
         vertex 6.853554e+01 1.000000e+01 4.353553e+01
         vertex 6.691341e+01 1.000000e+01 4.461940e+01
         vertex 6.935235e+01 1.000000e+01 4.672747e+01
      endloop
   endfacet
   facet normal -0.000000e+00 1.000000e+00 0.000000e+00
      outer loop
         vertex 6.691341e+01 1.000000e+01 4.461940e+01
         vertex 6.500000e+01 1.000000e+01 4.500000e+01
         vertex 6.650826e+01 1.000000e+01 4.851453e+01
      endloop
   endfacet
   facet normal 0.000000e+00 1.000000e+00 0.000000e+00
      outer loop
         vertex 6.500000e+01 1.000000e+01 4.500000e+01
         vertex -6.500000e+01 1.000000e+01 4.500000e+01
         vertex -6.000000e+01 1.000000e+01 5.000000e+01
      endloop
   endfacet
   facet normal 0.000000e+00 1.000000e+00 0.000000e+00
      outer loop
         vertex -6.500000e+01 1.000000e+01 4.500000e+01
         vertex -6.691341e+01 1.000000e+01 4.461940e+01
         vertex -6.650826e+01 1.000000e+01 4.851453e+01
      endloop
   endfacet
   facet normal 0.000000e+00 1.000000e+00 -0.000000e+00
      outer loop
         vertex -6.691341e+01 1.000000e+01 4.461940e+01
         vertex -6.853554e+01 1.000000e+01 4.353553e+01
         vertex -6.935235e+01 1.000000e+01 4.672747e+01
      endloop
   endfacet
   facet normal 0.000000e+00 1.000000e+00 -0.000000e+00
      outer loop
         vertex -6.853554e+01 1.000000e+01 4.353553e+01
         vertex -6.961940e+01 1.000000e+01 4.191342e+01
         vertex -7.172747e+01 1.000000e+01 4.435235e+01
      endloop
   endfacet
   facet normal 0.000000e+00 1.000000e+00 -0.000000e+00
      outer loop
         vertex -6.961940e+01 1.000000e+01 4.191342e+01
         vertex -7.000000e+01 1.000000e+01 4.000000e+01
         vertex -7.351453e+01 1.000000e+01 4.150826e+01
      endloop
   endfacet
   facet normal 0.000000e+00 1.000000e+00 -0.000000e+00
      outer loop
         vertex -7.000000e+01 1.000000e+01 4.000000e+01
         vertex -7.000000e+01 1.000000e+01 -4.000000e+01
         vertex -7.500000e+01 1.000000e+01 -3.500000e+01
      endloop
   endfacet
   facet normal 0.000000e+00 1.000000e+00 0.000000e+00
      outer loop
         vertex -7.000000e+01 1.000000e+01 -4.000000e+01
         vertex -6.961940e+01 1.000000e+01 -4.191342e+01
         vertex -7.351453e+01 1.000000e+01 -4.150826e+01
      endloop
   endfacet
   facet normal 0.000000e+00 1.000000e+00 0.000000e+00
      outer loop
         vertex -6.961940e+01 1.000000e+01 -4.191342e+01
         vertex -6.853554e+01 1.000000e+01 -4.353553e+01
         vertex -7.172747e+01 1.000000e+01 -4.435235e+01
      endloop
   endfacet
   facet normal 0.000000e+00 1.000000e+00 0.000000e+00
      outer loop
         vertex -6.853554e+01 1.000000e+01 -4.353553e+01
         vertex -6.691341e+01 1.000000e+01 -4.461940e+01
         vertex -6.935235e+01 1.000000e+01 -4.672747e+01
      endloop
   endfacet
   facet normal 0.000000e+00 1.000000e+00 0.000000e+00
      outer loop
         vertex -6.500000e+01 1.000000e+01 -4.500000e+01
         vertex 6.000000e+01 1.000000e+01 -5.000000e+01
         vertex -6.000000e+01 1.000000e+01 -5.000000e+01
      endloop
   endfacet
   facet normal 0.000000e+00 1.000000e+00 0.000000e+00
      outer loop
         vertex -6.000000e+01 1.000000e+01 5.000000e+01
         vertex 6.000000e+01 1.000000e+01 5.000000e+01
         vertex 6.500000e+01 1.000000e+01 4.500000e+01
      endloop
   endfacet
   facet normal 1.950913e-01 -0.000000e+00 9.807851e-01
      outer loop
         vertex -6.691341e+01 1.000000e+01 -4.461940e+01
         vertex -6.691341e+01 5.000000e+00 -4.461940e+01
         vertex -6.500000e+01 5.000000e+00 -4.500000e+01
      endloop
   endfacet
   facet normal 1.950913e-01 0.000000e+00 9.807851e-01
      outer loop
         vertex -6.500000e+01 1.000000e+01 -4.500000e+01
         vertex -6.691341e+01 1.000000e+01 -4.461940e+01
         vertex -6.500000e+01 5.000000e+00 -4.500000e+01
      endloop
   endfacet
   facet normal 5.555681e-01 -0.000000e+00 8.314711e-01
      outer loop
         vertex -6.853554e+01 1.000000e+01 -4.353553e+01
         vertex -6.853554e+01 5.000000e+00 -4.353553e+01
         vertex -6.691341e+01 5.000000e+00 -4.461940e+01
      endloop
   endfacet
   facet normal 5.555681e-01 0.000000e+00 8.314711e-01
      outer loop
         vertex -6.691341e+01 1.000000e+01 -4.461940e+01
         vertex -6.853554e+01 1.000000e+01 -4.353553e+01
         vertex -6.691341e+01 5.000000e+00 -4.461940e+01
      endloop
   endfacet
   facet normal 8.314699e-01 -0.000000e+00 5.555699e-01
      outer loop
         vertex -6.961940e+01 1.000000e+01 -4.191342e+01
         vertex -6.961940e+01 5.000000e+00 -4.191342e+01
         vertex -6.853554e+01 5.000000e+00 -4.353553e+01
      endloop
   endfacet
   facet normal 8.314699e-01 0.000000e+00 5.555699e-01
      outer loop
         vertex -6.853554e+01 1.000000e+01 -4.353553e+01
         vertex -6.961940e+01 1.000000e+01 -4.191342e+01
         vertex -6.853554e+01 5.000000e+00 -4.353553e+01
      endloop
   endfacet
   facet normal 9.807855e-01 -0.000000e+00 1.950891e-01
      outer loop
         vertex -7.000000e+01 1.000000e+01 -4.000000e+01
         vertex -7.000000e+01 5.000000e+00 -4.000000e+01
         vertex -6.961940e+01 5.000000e+00 -4.191342e+01
      endloop
   endfacet
   facet normal 9.807855e-01 0.000000e+00 1.950891e-01
      outer loop
         vertex -6.961940e+01 1.000000e+01 -4.191342e+01
         vertex -7.000000e+01 1.000000e+01 -4.000000e+01
         vertex -6.961940e+01 5.000000e+00 -4.191342e+01
      endloop
   endfacet
   facet normal 1.000000e+00 0.000000e+00 0.000000e+00
      outer loop
         vertex -7.000000e+01 5.000000e+00 4.000000e+01
         vertex -7.000000e+01 5.000000e+00 -4.000000e+01
         vertex -7.000000e+01 1.000000e+01 -4.000000e+01
      endloop
   endfacet
   facet normal 1.000000e+00 0.000000e+00 0.000000e+00
      outer loop
         vertex -7.000000e+01 1.000000e+01 -4.000000e+01
         vertex -7.000000e+01 1.000000e+01 4.000000e+01
         vertex -7.000000e+01 5.000000e+00 4.000000e+01
      endloop
   endfacet
   facet normal 9.807855e-01 0.000000e+00 -1.950891e-01
      outer loop
         vertex -6.961940e+01 1.000000e+01 4.191342e+01
         vertex -6.961940e+01 5.000000e+00 4.191342e+01
         vertex -7.000000e+01 5.000000e+00 4.000000e+01
      endloop
   endfacet
   facet normal 9.807855e-01 0.000000e+00 -1.950891e-01
      outer loop
         vertex -7.000000e+01 1.000000e+01 4.000000e+01
         vertex -6.961940e+01 1.000000e+01 4.191342e+01
         vertex -7.000000e+01 5.000000e+00 4.000000e+01
      endloop
   endfacet
   facet normal 8.314699e-01 0.000000e+00 -5.555699e-01
      outer loop
         vertex -6.853554e+01 1.000000e+01 4.353553e+01
         vertex -6.853554e+01 5.000000e+00 4.353553e+01
         vertex -6.961940e+01 5.000000e+00 4.191342e+01
      endloop
   endfacet
   facet normal 8.314699e-01 0.000000e+00 -5.555699e-01
      outer loop
         vertex -6.961940e+01 1.000000e+01 4.191342e+01
         vertex -6.853554e+01 1.000000e+01 4.353553e+01
         vertex -6.961940e+01 5.000000e+00 4.191342e+01
      endloop
   endfacet
   facet normal 5.555681e-01 0.000000e+00 -8.314711e-01
      outer loop
         vertex -6.691341e+01 1.000000e+01 4.461940e+01
         vertex -6.691341e+01 5.000000e+00 4.461940e+01
         vertex -6.853554e+01 5.000000e+00 4.353553e+01
      endloop
   endfacet
   facet normal 5.555681e-01 0.000000e+00 -8.314711e-01
      outer loop
         vertex -6.853554e+01 1.000000e+01 4.353553e+01
         vertex -6.691341e+01 1.000000e+01 4.461940e+01
         vertex -6.853554e+01 5.000000e+00 4.353553e+01
      endloop
   endfacet
   facet normal 1.950913e-01 0.000000e+00 -9.807851e-01
      outer loop
         vertex -6.500000e+01 1.000000e+01 4.500000e+01
         vertex -6.500000e+01 5.000000e+00 4.500000e+01
         vertex -6.691341e+01 5.000000e+00 4.461940e+01
      endloop
   endfacet
   facet normal 1.950913e-01 0.000000e+00 -9.807851e-01
      outer loop
         vertex -6.691341e+01 1.000000e+01 4.461940e+01
         vertex -6.500000e+01 1.000000e+01 4.500000e+01
         vertex -6.691341e+01 5.000000e+00 4.461940e+01
      endloop
   endfacet
   facet normal 0.000000e+00 0.000000e+00 -1.000000e+00
      outer loop
         vertex 6.500000e+01 5.000000e+00 4.500000e+01
         vertex -6.500000e+01 5.000000e+00 4.500000e+01
         vertex -6.500000e+01 1.000000e+01 4.500000e+01
      endloop
   endfacet
   facet normal -0.000000e+00 -0.000000e+00 -1.000000e+00
      outer loop
         vertex -6.500000e+01 1.000000e+01 4.500000e+01
         vertex 6.500000e+01 1.000000e+01 4.500000e+01
         vertex 6.500000e+01 5.000000e+00 4.500000e+01
      endloop
   endfacet
   facet normal -1.950913e-01 0.000000e+00 -9.807851e-01
      outer loop
         vertex 6.691341e+01 1.000000e+01 4.461940e+01
         vertex 6.691341e+01 5.000000e+00 4.461940e+01
         vertex 6.500000e+01 5.000000e+00 4.500000e+01
      endloop
   endfacet
   facet normal -1.950913e-01 0.000000e+00 -9.807851e-01
      outer loop
         vertex 6.500000e+01 1.000000e+01 4.500000e+01
         vertex 6.691341e+01 1.000000e+01 4.461940e+01
         vertex 6.500000e+01 5.000000e+00 4.500000e+01
      endloop
   endfacet
   facet normal -5.555681e-01 0.000000e+00 -8.314711e-01
      outer loop
         vertex 6.853554e+01 1.000000e+01 4.353553e+01
         vertex 6.853554e+01 5.000000e+00 4.353553e+01
         vertex 6.691341e+01 5.000000e+00 4.461940e+01
      endloop
   endfacet
   facet normal -5.555681e-01 0.000000e+00 -8.314711e-01
      outer loop
         vertex 6.691341e+01 1.000000e+01 4.461940e+01
         vertex 6.853554e+01 1.000000e+01 4.353553e+01
         vertex 6.691341e+01 5.000000e+00 4.461940e+01
      endloop
   endfacet
   facet normal -8.314699e-01 0.000000e+00 -5.555699e-01
      outer loop
         vertex 6.961940e+01 1.000000e+01 4.191342e+01
         vertex 6.961940e+01 5.000000e+00 4.191342e+01
         vertex 6.853554e+01 5.000000e+00 4.353553e+01
      endloop
   endfacet
   facet normal -8.314699e-01 0.000000e+00 -5.555699e-01
      outer loop
         vertex 6.853554e+01 1.000000e+01 4.353553e+01
         vertex 6.961940e+01 1.000000e+01 4.191342e+01
         vertex 6.853554e+01 5.000000e+00 4.353553e+01
      endloop
   endfacet
   facet normal -9.807855e-01 0.000000e+00 -1.950891e-01
      outer loop
         vertex 7.000000e+01 1.000000e+01 4.000000e+01
         vertex 7.000000e+01 5.000000e+00 4.000000e+01
         vertex 6.961940e+01 5.000000e+00 4.191342e+01
      endloop
   endfacet
   facet normal -9.807855e-01 0.000000e+00 -1.950891e-01
      outer loop
         vertex 6.961940e+01 1.000000e+01 4.191342e+01
         vertex 7.000000e+01 1.000000e+01 4.000000e+01
         vertex 6.961940e+01 5.000000e+00 4.191342e+01
      endloop
   endfacet
   facet normal -1.000000e+00 0.000000e+00 0.000000e+00
      outer loop
         vertex 7.000000e+01 5.000000e+00 -4.000000e+01
         vertex 7.000000e+01 5.000000e+00 4.000000e+01
         vertex 7.000000e+01 1.000000e+01 4.000000e+01
      endloop
   endfacet
   facet normal -1.000000e+00 0.000000e+00 0.000000e+00
      outer loop
         vertex 7.000000e+01 1.000000e+01 4.000000e+01
         vertex 7.000000e+01 1.000000e+01 -4.000000e+01
         vertex 7.000000e+01 5.000000e+00 -4.000000e+01
      endloop
   endfacet
   facet normal -9.807855e-01 0.000000e+00 1.950891e-01
      outer loop
         vertex 6.961940e+01 1.000000e+01 -4.191342e+01
         vertex 6.961940e+01 5.000000e+00 -4.191342e+01
         vertex 7.000000e+01 5.000000e+00 -4.000000e+01
      endloop
   endfacet
   facet normal -9.807855e-01 0.000000e+00 1.950891e-01
      outer loop
         vertex 7.000000e+01 1.000000e+01 -4.000000e+01
         vertex 6.961940e+01 1.000000e+01 -4.191342e+01
         vertex 7.000000e+01 5.000000e+00 -4.000000e+01
      endloop
   endfacet
   facet normal -8.314699e-01 0.000000e+00 5.555699e-01
      outer loop
         vertex 6.853554e+01 1.000000e+01 -4.353553e+01
         vertex 6.853554e+01 5.000000e+00 -4.353553e+01
         vertex 6.961940e+01 5.000000e+00 -4.191342e+01
      endloop
   endfacet
   facet normal -8.314699e-01 0.000000e+00 5.555699e-01
      outer loop
         vertex 6.961940e+01 1.000000e+01 -4.191342e+01
         vertex 6.853554e+01 1.000000e+01 -4.353553e+01
         vertex 6.961940e+01 5.000000e+00 -4.191342e+01
      endloop
   endfacet
   facet normal -5.555681e-01 0.000000e+00 8.314711e-01
      outer loop
         vertex 6.691341e+01 1.000000e+01 -4.461940e+01
         vertex 6.691341e+01 5.000000e+00 -4.461940e+01
         vertex 6.853554e+01 5.000000e+00 -4.353553e+01
      endloop
   endfacet
   facet normal -5.555681e-01 0.000000e+00 8.314711e-01
      outer loop
         vertex 6.853554e+01 1.000000e+01 -4.353553e+01
         vertex 6.691341e+01 1.000000e+01 -4.461940e+01
         vertex 6.853554e+01 5.000000e+00 -4.353553e+01
      endloop
   endfacet
   facet normal -1.950913e-01 0.000000e+00 9.807851e-01
      outer loop
         vertex 6.500000e+01 1.000000e+01 -4.500000e+01
         vertex 6.500000e+01 5.000000e+00 -4.500000e+01
         vertex 6.691341e+01 5.000000e+00 -4.461940e+01
      endloop
   endfacet
   facet normal -1.950913e-01 0.000000e+00 9.807851e-01
      outer loop
         vertex 6.691341e+01 1.000000e+01 -4.461940e+01
         vertex 6.500000e+01 1.000000e+01 -4.500000e+01
         vertex 6.691341e+01 5.000000e+00 -4.461940e+01
      endloop
   endfacet
   facet normal 0.000000e+00 -0.000000e+00 1.000000e+00
      outer loop
         vertex -6.500000e+01 5.000000e+00 -4.500000e+01
         vertex 6.500000e+01 5.000000e+00 -4.500000e+01
         vertex 6.500000e+01 1.000000e+01 -4.500000e+01
      endloop
   endfacet
   facet normal -0.000000e+00 0.000000e+00 1.000000e+00
      outer loop
         vertex 6.500000e+01 1.000000e+01 -4.500000e+01
         vertex -6.500000e+01 1.000000e+01 -4.500000e+01
         vertex -6.500000e+01 5.000000e+00 -4.500000e+01
      endloop
   endfacet
endsolid
