solid 
   facet normal 0.000000e+00 -1.000000e+00 0.000000e+00
      outer loop
         vertex 7.000000e+01 -1.000000e+02 -3.500000e+01
         vertex 7.500000e+01 -1.000000e+02 -3.500000e+01
         vertex 7.500000e+01 -1.000000e+02 3.500000e+01
      endloop
   endfacet
   facet normal 0.000000e+00 -1.000000e+00 0.000000e+00
      outer loop
         vertex 7.000000e+01 -1.000000e+02 -3.500000e+01
         vertex 7.462392e+01 -1.000000e+02 -3.833781e+01
         vertex 7.500000e+01 -1.000000e+02 -3.500000e+01
      endloop
   endfacet
   facet normal 0.000000e+00 -1.000000e+00 0.000000e+00
      outer loop
         vertex 6.965926e+01 -1.000000e+02 -3.758819e+01
         vertex 7.351453e+01 -1.000000e+02 -4.150826e+01
         vertex 7.462392e+01 -1.000000e+02 -3.833781e+01
      endloop
   endfacet
   facet normal 0.000000e+00 -1.000000e+00 0.000000e+00
      outer loop
         vertex 6.866026e+01 -1.000000e+02 -4.000000e+01
         vertex 7.172747e+01 -1.000000e+02 -4.435235e+01
         vertex 7.351453e+01 -1.000000e+02 -4.150826e+01
      endloop
   endfacet
   facet normal 0.000000e+00 -1.000000e+00 0.000000e+00
      outer loop
         vertex 6.707107e+01 -1.000000e+02 -4.207107e+01
         vertex 6.935235e+01 -1.000000e+02 -4.672747e+01
         vertex 7.172747e+01 -1.000000e+02 -4.435235e+01
      endloop
   endfacet
   facet normal 0.000000e+00 -1.000000e+00 0.000000e+00
      outer loop
         vertex 6.500000e+01 -1.000000e+02 -4.366026e+01
         vertex 6.650826e+01 -1.000000e+02 -4.851453e+01
         vertex 6.935235e+01 -1.000000e+02 -4.672747e+01
      endloop
   endfacet
   facet normal 0.000000e+00 -1.000000e+00 0.000000e+00
      outer loop
         vertex 6.258819e+01 -1.000000e+02 -4.465926e+01
         vertex 6.333781e+01 -1.000000e+02 -4.962392e+01
         vertex 6.650826e+01 -1.000000e+02 -4.851453e+01
      endloop
   endfacet
   facet normal 0.000000e+00 -1.000000e+00 0.000000e+00
      outer loop
         vertex 6.000000e+01 -1.000000e+02 -4.500000e+01
         vertex 6.000000e+01 -1.000000e+02 -5.000000e+01
         vertex 6.333781e+01 -1.000000e+02 -4.962392e+01
      endloop
   endfacet
   facet normal 0.000000e+00 -1.000000e+00 0.000000e+00
      outer loop
         vertex -6.000000e+01 -1.000000e+02 -4.500000e+01
         vertex -6.000000e+01 -1.000000e+02 -5.000000e+01
         vertex 6.000000e+01 -1.000000e+02 -5.000000e+01
      endloop
   endfacet
   facet normal 0.000000e+00 -1.000000e+00 0.000000e+00
      outer loop
         vertex -6.000000e+01 -1.000000e+02 -4.500000e+01
         vertex -6.333781e+01 -1.000000e+02 -4.962392e+01
         vertex -6.000000e+01 -1.000000e+02 -5.000000e+01
      endloop
   endfacet
   facet normal 0.000000e+00 -1.000000e+00 0.000000e+00
      outer loop
         vertex -6.258819e+01 -1.000000e+02 -4.465926e+01
         vertex -6.650826e+01 -1.000000e+02 -4.851453e+01
         vertex -6.333781e+01 -1.000000e+02 -4.962392e+01
      endloop
   endfacet
   facet normal 0.000000e+00 -1.000000e+00 0.000000e+00
      outer loop
         vertex -6.500000e+01 -1.000000e+02 -4.366026e+01
         vertex -6.935235e+01 -1.000000e+02 -4.672747e+01
         vertex -6.650826e+01 -1.000000e+02 -4.851453e+01
      endloop
   endfacet
   facet normal 0.000000e+00 -1.000000e+00 0.000000e+00
      outer loop
         vertex -6.707107e+01 -1.000000e+02 -4.207107e+01
         vertex -7.172747e+01 -1.000000e+02 -4.435235e+01
         vertex -6.935235e+01 -1.000000e+02 -4.672747e+01
      endloop
   endfacet
   facet normal 0.000000e+00 -1.000000e+00 0.000000e+00
      outer loop
         vertex -6.866026e+01 -1.000000e+02 -4.000000e+01
         vertex -7.351453e+01 -1.000000e+02 -4.150826e+01
         vertex -7.172747e+01 -1.000000e+02 -4.435235e+01
      endloop
   endfacet
   facet normal 0.000000e+00 -1.000000e+00 0.000000e+00
      outer loop
         vertex -6.965926e+01 -1.000000e+02 -3.758819e+01
         vertex -7.462392e+01 -1.000000e+02 -3.833781e+01
         vertex -7.351453e+01 -1.000000e+02 -4.150826e+01
      endloop
   endfacet
   facet normal 0.000000e+00 -1.000000e+00 0.000000e+00
      outer loop
         vertex -7.000000e+01 -1.000000e+02 -3.500000e+01
         vertex -7.500000e+01 -1.000000e+02 -3.500000e+01
         vertex -7.462392e+01 -1.000000e+02 -3.833781e+01
      endloop
   endfacet
   facet normal 0.000000e+00 -1.000000e+00 0.000000e+00
      outer loop
         vertex -7.000000e+01 -1.000000e+02 3.500000e+01
         vertex -7.500000e+01 -1.000000e+02 3.500000e+01
         vertex -7.500000e+01 -1.000000e+02 -3.500000e+01
      endloop
   endfacet
   facet normal 0.000000e+00 -1.000000e+00 -0.000000e+00
      outer loop
         vertex -7.000000e+01 -1.000000e+02 3.500000e+01
         vertex -7.462392e+01 -1.000000e+02 3.833781e+01
         vertex -7.500000e+01 -1.000000e+02 3.500000e+01
      endloop
   endfacet
   facet normal 0.000000e+00 -1.000000e+00 -0.000000e+00
      outer loop
         vertex -6.965926e+01 -1.000000e+02 3.758819e+01
         vertex -7.351453e+01 -1.000000e+02 4.150826e+01
         vertex -7.462392e+01 -1.000000e+02 3.833781e+01
      endloop
   endfacet
   facet normal 0.000000e+00 -1.000000e+00 -0.000000e+00
      outer loop
         vertex -6.866026e+01 -1.000000e+02 4.000000e+01
         vertex -7.172747e+01 -1.000000e+02 4.435235e+01
         vertex -7.351453e+01 -1.000000e+02 4.150826e+01
      endloop
   endfacet
   facet normal 0.000000e+00 -1.000000e+00 -0.000000e+00
      outer loop
         vertex -6.707107e+01 -1.000000e+02 4.207107e+01
         vertex -6.935235e+01 -1.000000e+02 4.672747e+01
         vertex -7.172747e+01 -1.000000e+02 4.435235e+01
      endloop
   endfacet
   facet normal 0.000000e+00 -1.000000e+00 -0.000000e+00
      outer loop
         vertex -6.500000e+01 -1.000000e+02 4.366026e+01
         vertex -6.650826e+01 -1.000000e+02 4.851453e+01
         vertex -6.935235e+01 -1.000000e+02 4.672747e+01
      endloop
   endfacet
   facet normal 0.000000e+00 -1.000000e+00 -0.000000e+00
      outer loop
         vertex -6.258819e+01 -1.000000e+02 4.465926e+01
         vertex -6.333781e+01 -1.000000e+02 4.962392e+01
         vertex -6.650826e+01 -1.000000e+02 4.851453e+01
      endloop
   endfacet
   facet normal 0.000000e+00 -1.000000e+00 -0.000000e+00
      outer loop
         vertex -6.000000e+01 -1.000000e+02 4.500000e+01
         vertex -6.000000e+01 -1.000000e+02 5.000000e+01
         vertex -6.333781e+01 -1.000000e+02 4.962392e+01
      endloop
   endfacet
   facet normal -0.000000e+00 -1.000000e+00 -0.000000e+00
      outer loop
         vertex 6.000000e+01 -1.000000e+02 4.500000e+01
         vertex 6.000000e+01 -1.000000e+02 5.000000e+01
         vertex -6.000000e+01 -1.000000e+02 5.000000e+01
      endloop
   endfacet
   facet normal -0.000000e+00 -1.000000e+00 0.000000e+00
      outer loop
         vertex 6.000000e+01 -1.000000e+02 4.500000e+01
         vertex 6.333781e+01 -1.000000e+02 4.962392e+01
         vertex 6.000000e+01 -1.000000e+02 5.000000e+01
      endloop
   endfacet
   facet normal -0.000000e+00 -1.000000e+00 0.000000e+00
      outer loop
         vertex 6.258819e+01 -1.000000e+02 4.465926e+01
         vertex 6.650826e+01 -1.000000e+02 4.851453e+01
         vertex 6.333781e+01 -1.000000e+02 4.962392e+01
      endloop
   endfacet
   facet normal -0.000000e+00 -1.000000e+00 0.000000e+00
      outer loop
         vertex 6.500000e+01 -1.000000e+02 4.366026e+01
         vertex 6.935235e+01 -1.000000e+02 4.672747e+01
         vertex 6.650826e+01 -1.000000e+02 4.851453e+01
      endloop
   endfacet
   facet normal -0.000000e+00 -1.000000e+00 0.000000e+00
      outer loop
         vertex 6.707107e+01 -1.000000e+02 4.207107e+01
         vertex 7.172747e+01 -1.000000e+02 4.435235e+01
         vertex 6.935235e+01 -1.000000e+02 4.672747e+01
      endloop
   endfacet
   facet normal -0.000000e+00 -1.000000e+00 0.000000e+00
      outer loop
         vertex 6.866026e+01 -1.000000e+02 4.000000e+01
         vertex 7.351453e+01 -1.000000e+02 4.150826e+01
         vertex 7.172747e+01 -1.000000e+02 4.435235e+01
      endloop
   endfacet
   facet normal -0.000000e+00 -1.000000e+00 0.000000e+00
      outer loop
         vertex 6.965926e+01 -1.000000e+02 3.758819e+01
         vertex 7.462392e+01 -1.000000e+02 3.833781e+01
         vertex 7.351453e+01 -1.000000e+02 4.150826e+01
      endloop
   endfacet
   facet normal 0.000000e+00 -1.000000e+00 0.000000e+00
      outer loop
         vertex 7.000000e+01 -1.000000e+02 3.500000e+01
         vertex 7.500000e+01 -1.000000e+02 3.500000e+01
         vertex 7.462392e+01 -1.000000e+02 3.833781e+01
      endloop
   endfacet
   facet normal 0.000000e+00 -1.000000e+00 0.000000e+00
      outer loop
         vertex -7.500000e+01 -1.000000e+02 -3.500000e+01
         vertex -7.000000e+01 -1.000000e+02 -3.500000e+01
         vertex -7.000000e+01 -1.000000e+02 3.500000e+01
      endloop
   endfacet
   facet normal -0.000000e+00 -1.000000e+00 0.000000e+00
      outer loop
         vertex -7.462392e+01 -1.000000e+02 -3.833781e+01
         vertex -6.965926e+01 -1.000000e+02 -3.758819e+01
         vertex -7.000000e+01 -1.000000e+02 -3.500000e+01
      endloop
   endfacet
   facet normal -0.000000e+00 -1.000000e+00 0.000000e+00
      outer loop
         vertex -7.351453e+01 -1.000000e+02 -4.150826e+01
         vertex -6.866026e+01 -1.000000e+02 -4.000000e+01
         vertex -6.965926e+01 -1.000000e+02 -3.758819e+01
      endloop
   endfacet
   facet normal -0.000000e+00 -1.000000e+00 0.000000e+00
      outer loop
         vertex -7.172747e+01 -1.000000e+02 -4.435235e+01
         vertex -6.707107e+01 -1.000000e+02 -4.207107e+01
         vertex -6.866026e+01 -1.000000e+02 -4.000000e+01
      endloop
   endfacet
   facet normal -0.000000e+00 -1.000000e+00 0.000000e+00
      outer loop
         vertex -6.935235e+01 -1.000000e+02 -4.672747e+01
         vertex -6.500000e+01 -1.000000e+02 -4.366026e+01
         vertex -6.707107e+01 -1.000000e+02 -4.207107e+01
      endloop
   endfacet
   facet normal -0.000000e+00 -1.000000e+00 0.000000e+00
      outer loop
         vertex -6.650826e+01 -1.000000e+02 -4.851453e+01
         vertex -6.258819e+01 -1.000000e+02 -4.465926e+01
         vertex -6.500000e+01 -1.000000e+02 -4.366026e+01
      endloop
   endfacet
   facet normal -0.000000e+00 -1.000000e+00 0.000000e+00
      outer loop
         vertex -6.333781e+01 -1.000000e+02 -4.962392e+01
         vertex -6.000000e+01 -1.000000e+02 -4.500000e+01
         vertex -6.258819e+01 -1.000000e+02 -4.465926e+01
      endloop
   endfacet
   facet normal -0.000000e+00 -1.000000e+00 -0.000000e+00
      outer loop
         vertex 6.000000e+01 -1.000000e+02 -5.000000e+01
         vertex 6.000000e+01 -1.000000e+02 -4.500000e+01
         vertex -6.000000e+01 -1.000000e+02 -4.500000e+01
      endloop
   endfacet
   facet normal 0.000000e+00 -1.000000e+00 -0.000000e+00
      outer loop
         vertex 6.333781e+01 -1.000000e+02 -4.962392e+01
         vertex 6.258819e+01 -1.000000e+02 -4.465926e+01
         vertex 6.000000e+01 -1.000000e+02 -4.500000e+01
      endloop
   endfacet
   facet normal 0.000000e+00 -1.000000e+00 -0.000000e+00
      outer loop
         vertex 6.650826e+01 -1.000000e+02 -4.851453e+01
         vertex 6.500000e+01 -1.000000e+02 -4.366026e+01
         vertex 6.258819e+01 -1.000000e+02 -4.465926e+01
      endloop
   endfacet
   facet normal 0.000000e+00 -1.000000e+00 -0.000000e+00
      outer loop
         vertex 6.935235e+01 -1.000000e+02 -4.672747e+01
         vertex 6.707107e+01 -1.000000e+02 -4.207107e+01
         vertex 6.500000e+01 -1.000000e+02 -4.366026e+01
      endloop
   endfacet
   facet normal 0.000000e+00 -1.000000e+00 -0.000000e+00
      outer loop
         vertex 7.172747e+01 -1.000000e+02 -4.435235e+01
         vertex 6.866026e+01 -1.000000e+02 -4.000000e+01
         vertex 6.707107e+01 -1.000000e+02 -4.207107e+01
      endloop
   endfacet
   facet normal 0.000000e+00 -1.000000e+00 -0.000000e+00
      outer loop
         vertex 7.351453e+01 -1.000000e+02 -4.150826e+01
         vertex 6.965926e+01 -1.000000e+02 -3.758819e+01
         vertex 6.866026e+01 -1.000000e+02 -4.000000e+01
      endloop
   endfacet
   facet normal 0.000000e+00 -1.000000e+00 -0.000000e+00
      outer loop
         vertex 7.462392e+01 -1.000000e+02 -3.833781e+01
         vertex 7.000000e+01 -1.000000e+02 -3.500000e+01
         vertex 6.965926e+01 -1.000000e+02 -3.758819e+01
      endloop
   endfacet
   facet normal 0.000000e+00 -1.000000e+00 0.000000e+00
      outer loop
         vertex 7.500000e+01 -1.000000e+02 3.500000e+01
         vertex 7.000000e+01 -1.000000e+02 3.500000e+01
         vertex 7.000000e+01 -1.000000e+02 -3.500000e+01
      endloop
   endfacet
   facet normal 0.000000e+00 -1.000000e+00 0.000000e+00
      outer loop
         vertex 7.462392e+01 -1.000000e+02 3.833781e+01
         vertex 6.965926e+01 -1.000000e+02 3.758819e+01
         vertex 7.000000e+01 -1.000000e+02 3.500000e+01
      endloop
   endfacet
   facet normal 0.000000e+00 -1.000000e+00 0.000000e+00
      outer loop
         vertex 7.351453e+01 -1.000000e+02 4.150826e+01
         vertex 6.866026e+01 -1.000000e+02 4.000000e+01
         vertex 6.965926e+01 -1.000000e+02 3.758819e+01
      endloop
   endfacet
   facet normal 0.000000e+00 -1.000000e+00 0.000000e+00
      outer loop
         vertex 7.172747e+01 -1.000000e+02 4.435235e+01
         vertex 6.707107e+01 -1.000000e+02 4.207107e+01
         vertex 6.866026e+01 -1.000000e+02 4.000000e+01
      endloop
   endfacet
   facet normal 0.000000e+00 -1.000000e+00 0.000000e+00
      outer loop
         vertex 6.935235e+01 -1.000000e+02 4.672747e+01
         vertex 6.500000e+01 -1.000000e+02 4.366026e+01
         vertex 6.707107e+01 -1.000000e+02 4.207107e+01
      endloop
   endfacet
   facet normal 0.000000e+00 -1.000000e+00 0.000000e+00
      outer loop
         vertex 6.650826e+01 -1.000000e+02 4.851453e+01
         vertex 6.258819e+01 -1.000000e+02 4.465926e+01
         vertex 6.500000e+01 -1.000000e+02 4.366026e+01
      endloop
   endfacet
   facet normal 0.000000e+00 -1.000000e+00 0.000000e+00
      outer loop
         vertex 6.333781e+01 -1.000000e+02 4.962392e+01
         vertex 6.000000e+01 -1.000000e+02 4.500000e+01
         vertex 6.258819e+01 -1.000000e+02 4.465926e+01
      endloop
   endfacet
   facet normal 0.000000e+00 -1.000000e+00 0.000000e+00
      outer loop
         vertex -6.000000e+01 -1.000000e+02 5.000000e+01
         vertex -6.000000e+01 -1.000000e+02 4.500000e+01
         vertex 6.000000e+01 -1.000000e+02 4.500000e+01
      endloop
   endfacet
   facet normal 0.000000e+00 -1.000000e+00 0.000000e+00
      outer loop
         vertex -6.333781e+01 -1.000000e+02 4.962392e+01
         vertex -6.258819e+01 -1.000000e+02 4.465926e+01
         vertex -6.000000e+01 -1.000000e+02 4.500000e+01
      endloop
   endfacet
   facet normal 0.000000e+00 -1.000000e+00 0.000000e+00
      outer loop
         vertex -6.650826e+01 -1.000000e+02 4.851453e+01
         vertex -6.500000e+01 -1.000000e+02 4.366026e+01
         vertex -6.258819e+01 -1.000000e+02 4.465926e+01
      endloop
   endfacet
   facet normal 0.000000e+00 -1.000000e+00 0.000000e+00
      outer loop
         vertex -6.935235e+01 -1.000000e+02 4.672747e+01
         vertex -6.707107e+01 -1.000000e+02 4.207107e+01
         vertex -6.500000e+01 -1.000000e+02 4.366026e+01
      endloop
   endfacet
   facet normal 0.000000e+00 -1.000000e+00 0.000000e+00
      outer loop
         vertex -7.172747e+01 -1.000000e+02 4.435235e+01
         vertex -6.866026e+01 -1.000000e+02 4.000000e+01
         vertex -6.707107e+01 -1.000000e+02 4.207107e+01
      endloop
   endfacet
   facet normal 0.000000e+00 -1.000000e+00 0.000000e+00
      outer loop
         vertex -7.351453e+01 -1.000000e+02 4.150826e+01
         vertex -6.965926e+01 -1.000000e+02 3.758819e+01
         vertex -6.866026e+01 -1.000000e+02 4.000000e+01
      endloop
   endfacet
   facet normal 0.000000e+00 -1.000000e+00 0.000000e+00
      outer loop
         vertex -7.462392e+01 -1.000000e+02 3.833781e+01
         vertex -7.000000e+01 -1.000000e+02 3.500000e+01
         vertex -6.965926e+01 -1.000000e+02 3.758819e+01
      endloop
   endfacet
   facet normal -1.000000e+00 0.000000e+00 0.000000e+00
      outer loop
         vertex 6.500000e+01 5.000000e+00 4.000000e+01
         vertex 6.500000e+01 5.000000e+00 -4.000000e+01
         vertex 6.500000e+01 -9.500000e+01 -4.000000e+01
      endloop
   endfacet
   facet normal -1.000000e+00 0.000000e+00 0.000000e+00
      outer loop
         vertex 6.500000e+01 -9.500000e+01 -4.000000e+01
         vertex 6.500000e+01 -9.500000e+01 4.000000e+01
         vertex 6.500000e+01 5.000000e+00 4.000000e+01
      endloop
   endfacet
   facet normal 1.000000e+00 0.000000e+00 0.000000e+00
      outer loop
         vertex -6.500000e+01 5.000000e+00 -4.000000e+01
         vertex -6.500000e+01 5.000000e+00 4.000000e+01
         vertex -6.500000e+01 -9.500000e+01 4.000000e+01
      endloop
   endfacet
   facet normal 1.000000e+00 0.000000e+00 0.000000e+00
      outer loop
         vertex -6.500000e+01 -9.500000e+01 4.000000e+01
         vertex -6.500000e+01 -9.500000e+01 -4.000000e+01
         vertex -6.500000e+01 5.000000e+00 -4.000000e+01
      endloop
   endfacet
   facet normal -0.000000e+00 0.000000e+00 1.000000e+00
      outer loop
         vertex 6.500000e+01 5.000000e+00 -4.000000e+01
         vertex -6.500000e+01 5.000000e+00 -4.000000e+01
         vertex -6.500000e+01 -9.500000e+01 -4.000000e+01
      endloop
   endfacet
   facet normal 0.000000e+00 -0.000000e+00 1.000000e+00
      outer loop
         vertex -6.500000e+01 -9.500000e+01 -4.000000e+01
         vertex 6.500000e+01 -9.500000e+01 -4.000000e+01
         vertex 6.500000e+01 5.000000e+00 -4.000000e+01
      endloop
   endfacet
   facet normal -0.000000e+00 -0.000000e+00 -1.000000e+00
      outer loop
         vertex -6.500000e+01 5.000000e+00 4.000000e+01
         vertex 6.500000e+01 5.000000e+00 4.000000e+01
         vertex 6.500000e+01 -9.500000e+01 4.000000e+01
      endloop
   endfacet
   facet normal 0.000000e+00 0.000000e+00 -1.000000e+00
      outer loop
         vertex 6.500000e+01 -9.500000e+01 4.000000e+01
         vertex -6.500000e+01 -9.500000e+01 4.000000e+01
         vertex -6.500000e+01 5.000000e+00 4.000000e+01
      endloop
   endfacet
   facet normal 0.000000e+00 -1.000000e+00 -0.000000e+00
      outer loop
         vertex -6.000000e+01 -9.500000e+01 4.500000e+01
         vertex -6.258819e+01 -9.500000e+01 4.465926e+01
         vertex -6.500000e+01 -9.500000e+01 4.000000e+01
      endloop
   endfacet
   facet normal 0.000000e+00 -1.000000e+00 0.000000e+00
      outer loop
         vertex -6.258819e+01 -9.500000e+01 4.465926e+01
         vertex -6.500000e+01 -9.500000e+01 4.366026e+01
         vertex -6.500000e+01 -9.500000e+01 4.000000e+01
      endloop
   endfacet
   facet normal 0.000000e+00 -1.000000e+00 0.000000e+00
      outer loop
         vertex -6.500000e+01 -9.500000e+01 4.366026e+01
         vertex -6.707107e+01 -9.500000e+01 4.207107e+01
         vertex -6.500000e+01 -9.500000e+01 4.000000e+01
      endloop
   endfacet
   facet normal 0.000000e+00 -1.000000e+00 0.000000e+00
      outer loop
         vertex -6.707107e+01 -9.500000e+01 4.207107e+01
         vertex -6.866026e+01 -9.500000e+01 4.000000e+01
         vertex -6.500000e+01 -9.500000e+01 4.000000e+01
      endloop
   endfacet
   facet normal 0.000000e+00 -1.000000e+00 0.000000e+00
      outer loop
         vertex -6.866026e+01 -9.500000e+01 4.000000e+01
         vertex -6.965926e+01 -9.500000e+01 3.758819e+01
         vertex -6.500000e+01 -9.500000e+01 4.000000e+01
      endloop
   endfacet
   facet normal 0.000000e+00 -1.000000e+00 0.000000e+00
      outer loop
         vertex -6.965926e+01 -9.500000e+01 3.758819e+01
         vertex -7.000000e+01 -9.500000e+01 3.500000e+01
         vertex -6.500000e+01 -9.500000e+01 4.000000e+01
      endloop
   endfacet
   facet normal 0.000000e+00 -1.000000e+00 0.000000e+00
      outer loop
         vertex -7.000000e+01 -9.500000e+01 3.500000e+01
         vertex -7.000000e+01 -9.500000e+01 -3.500000e+01
         vertex -6.500000e+01 -9.500000e+01 -4.000000e+01
      endloop
   endfacet
   facet normal 0.000000e+00 -1.000000e+00 0.000000e+00
      outer loop
         vertex -7.000000e+01 -9.500000e+01 -3.500000e+01
         vertex -6.965926e+01 -9.500000e+01 -3.758819e+01
         vertex -6.500000e+01 -9.500000e+01 -4.000000e+01
      endloop
   endfacet
   facet normal 0.000000e+00 -1.000000e+00 0.000000e+00
      outer loop
         vertex -6.965926e+01 -9.500000e+01 -3.758819e+01
         vertex -6.866026e+01 -9.500000e+01 -4.000000e+01
         vertex -6.500000e+01 -9.500000e+01 -4.000000e+01
      endloop
   endfacet
   facet normal 0.000000e+00 -1.000000e+00 0.000000e+00
      outer loop
         vertex -6.866026e+01 -9.500000e+01 -4.000000e+01
         vertex -6.707107e+01 -9.500000e+01 -4.207107e+01
         vertex -6.500000e+01 -9.500000e+01 -4.000000e+01
      endloop
   endfacet
   facet normal 0.000000e+00 -1.000000e+00 0.000000e+00
      outer loop
         vertex -6.707107e+01 -9.500000e+01 -4.207107e+01
         vertex -6.500000e+01 -9.500000e+01 -4.366026e+01
         vertex -6.500000e+01 -9.500000e+01 -4.000000e+01
      endloop
   endfacet
   facet normal 0.000000e+00 -1.000000e+00 0.000000e+00
      outer loop
         vertex -6.500000e+01 -9.500000e+01 -4.366026e+01
         vertex -6.258819e+01 -9.500000e+01 -4.465926e+01
         vertex -6.500000e+01 -9.500000e+01 -4.000000e+01
      endloop
   endfacet
   facet normal 0.000000e+00 -1.000000e+00 0.000000e+00
      outer loop
         vertex -6.258819e+01 -9.500000e+01 -4.465926e+01
         vertex -6.000000e+01 -9.500000e+01 -4.500000e+01
         vertex -6.500000e+01 -9.500000e+01 -4.000000e+01
      endloop
   endfacet
   facet normal -0.000000e+00 -1.000000e+00 0.000000e+00
      outer loop
         vertex 6.000000e+01 -9.500000e+01 -4.500000e+01
         vertex 6.258819e+01 -9.500000e+01 -4.465926e+01
         vertex 6.500000e+01 -9.500000e+01 -4.000000e+01
      endloop
   endfacet
   facet normal -0.000000e+00 -1.000000e+00 0.000000e+00
      outer loop
         vertex 6.258819e+01 -9.500000e+01 -4.465926e+01
         vertex 6.500000e+01 -9.500000e+01 -4.366026e+01
         vertex 6.500000e+01 -9.500000e+01 -4.000000e+01
      endloop
   endfacet
   facet normal -0.000000e+00 -1.000000e+00 0.000000e+00
      outer loop
         vertex 6.500000e+01 -9.500000e+01 -4.366026e+01
         vertex 6.707107e+01 -9.500000e+01 -4.207107e+01
         vertex 6.500000e+01 -9.500000e+01 -4.000000e+01
      endloop
   endfacet
   facet normal -0.000000e+00 -1.000000e+00 0.000000e+00
      outer loop
         vertex 6.707107e+01 -9.500000e+01 -4.207107e+01
         vertex 6.866026e+01 -9.500000e+01 -4.000000e+01
         vertex 6.500000e+01 -9.500000e+01 -4.000000e+01
      endloop
   endfacet
   facet normal 0.000000e+00 -1.000000e+00 0.000000e+00
      outer loop
         vertex 6.866026e+01 -9.500000e+01 -4.000000e+01
         vertex 6.965926e+01 -9.500000e+01 -3.758819e+01
         vertex 6.500000e+01 -9.500000e+01 -4.000000e+01
      endloop
   endfacet
   facet normal 0.000000e+00 -1.000000e+00 0.000000e+00
      outer loop
         vertex 6.965926e+01 -9.500000e+01 -3.758819e+01
         vertex 7.000000e+01 -9.500000e+01 -3.500000e+01
         vertex 6.500000e+01 -9.500000e+01 -4.000000e+01
      endloop
   endfacet
   facet normal -0.000000e+00 -1.000000e+00 -0.000000e+00
      outer loop
         vertex 7.000000e+01 -9.500000e+01 -3.500000e+01
         vertex 7.000000e+01 -9.500000e+01 3.500000e+01
         vertex 6.500000e+01 -9.500000e+01 4.000000e+01
      endloop
   endfacet
   facet normal -0.000000e+00 -1.000000e+00 -0.000000e+00
      outer loop
         vertex 7.000000e+01 -9.500000e+01 3.500000e+01
         vertex 6.965926e+01 -9.500000e+01 3.758819e+01
         vertex 6.500000e+01 -9.500000e+01 4.000000e+01
      endloop
   endfacet
   facet normal -0.000000e+00 -1.000000e+00 -0.000000e+00
      outer loop
         vertex 6.965926e+01 -9.500000e+01 3.758819e+01
         vertex 6.866026e+01 -9.500000e+01 4.000000e+01
         vertex 6.500000e+01 -9.500000e+01 4.000000e+01
      endloop
   endfacet
   facet normal 0.000000e+00 -1.000000e+00 -0.000000e+00
      outer loop
         vertex 6.866026e+01 -9.500000e+01 4.000000e+01
         vertex 6.707107e+01 -9.500000e+01 4.207107e+01
         vertex 6.500000e+01 -9.500000e+01 4.000000e+01
      endloop
   endfacet
   facet normal 0.000000e+00 -1.000000e+00 0.000000e+00
      outer loop
         vertex 6.707107e+01 -9.500000e+01 4.207107e+01
         vertex 6.500000e+01 -9.500000e+01 4.366026e+01
         vertex 6.500000e+01 -9.500000e+01 4.000000e+01
      endloop
   endfacet
   facet normal 0.000000e+00 -1.000000e+00 0.000000e+00
      outer loop
         vertex 6.500000e+01 -9.500000e+01 4.366026e+01
         vertex 6.258819e+01 -9.500000e+01 4.465926e+01
         vertex 6.500000e+01 -9.500000e+01 4.000000e+01
      endloop
   endfacet
   facet normal 0.000000e+00 -1.000000e+00 0.000000e+00
      outer loop
         vertex 6.258819e+01 -9.500000e+01 4.465926e+01
         vertex 6.000000e+01 -9.500000e+01 4.500000e+01
         vertex 6.500000e+01 -9.500000e+01 4.000000e+01
      endloop
   endfacet
   facet normal 0.000000e+00 -1.000000e+00 -0.000000e+00
      outer loop
         vertex -6.500000e+01 -9.500000e+01 -4.000000e+01
         vertex -6.500000e+01 -9.500000e+01 4.000000e+01
         vertex -7.000000e+01 -9.500000e+01 3.500000e+01
      endloop
   endfacet
   facet normal 0.000000e+00 -1.000000e+00 0.000000e+00
      outer loop
         vertex -6.500000e+01 -9.500000e+01 4.000000e+01
         vertex 6.500000e+01 -9.500000e+01 4.000000e+01
         vertex 6.000000e+01 -9.500000e+01 4.500000e+01
      endloop
   endfacet
   facet normal 0.000000e+00 -1.000000e+00 0.000000e+00
      outer loop
         vertex 6.500000e+01 -9.500000e+01 4.000000e+01
         vertex 6.500000e+01 -9.500000e+01 -4.000000e+01
         vertex 7.000000e+01 -9.500000e+01 -3.500000e+01
      endloop
   endfacet
   facet normal 0.000000e+00 -1.000000e+00 0.000000e+00
      outer loop
         vertex 6.500000e+01 -9.500000e+01 -4.000000e+01
         vertex -6.500000e+01 -9.500000e+01 -4.000000e+01
         vertex -6.000000e+01 -9.500000e+01 -4.500000e+01
      endloop
   endfacet
   facet normal -0.000000e+00 -1.000000e+00 0.000000e+00
      outer loop
         vertex -6.500000e+01 -9.500000e+01 4.000000e+01
         vertex 6.000000e+01 -9.500000e+01 4.500000e+01
         vertex -6.000000e+01 -9.500000e+01 4.500000e+01
      endloop
   endfacet
   facet normal 0.000000e+00 -1.000000e+00 0.000000e+00
      outer loop
         vertex -6.000000e+01 -9.500000e+01 -4.500000e+01
         vertex 6.000000e+01 -9.500000e+01 -4.500000e+01
         vertex 6.500000e+01 -9.500000e+01 -4.000000e+01
      endloop
   endfacet
   facet normal -0.000000e+00 -0.000000e+00 -1.000000e+00
      outer loop
         vertex -6.000000e+01 -9.500000e+01 4.500000e+01
         vertex 6.000000e+01 -9.500000e+01 4.500000e+01
         vertex 6.000000e+01 -1.000000e+02 4.500000e+01
      endloop
   endfacet
   facet normal 0.000000e+00 0.000000e+00 -1.000000e+00
      outer loop
         vertex 6.000000e+01 -1.000000e+02 4.500000e+01
         vertex -6.000000e+01 -1.000000e+02 4.500000e+01
         vertex -6.000000e+01 -9.500000e+01 4.500000e+01
      endloop
   endfacet
   facet normal -9.914448e-01 -0.000000e+00 -1.305270e-01
      outer loop
         vertex 6.965926e+01 -1.000000e+02 3.758819e+01
         vertex 6.965926e+01 -9.500000e+01 3.758819e+01
         vertex 7.000000e+01 -9.500000e+01 3.500000e+01
      endloop
   endfacet
   facet normal -9.914448e-01 0.000000e+00 -1.305270e-01
      outer loop
         vertex 7.000000e+01 -1.000000e+02 3.500000e+01
         vertex 6.965926e+01 -1.000000e+02 3.758819e+01
         vertex 7.000000e+01 -9.500000e+01 3.500000e+01
      endloop
   endfacet
   facet normal -9.238799e-01 -0.000000e+00 -3.826824e-01
      outer loop
         vertex 6.866026e+01 -1.000000e+02 4.000000e+01
         vertex 6.866026e+01 -9.500000e+01 4.000000e+01
         vertex 6.965926e+01 -9.500000e+01 3.758819e+01
      endloop
   endfacet
   facet normal -9.238799e-01 0.000000e+00 -3.826824e-01
      outer loop
         vertex 6.965926e+01 -1.000000e+02 3.758819e+01
         vertex 6.866026e+01 -1.000000e+02 4.000000e+01
         vertex 6.965926e+01 -9.500000e+01 3.758819e+01
      endloop
   endfacet
   facet normal -7.933531e-01 -0.000000e+00 -6.087618e-01
      outer loop
         vertex 6.707107e+01 -1.000000e+02 4.207107e+01
         vertex 6.707107e+01 -9.500000e+01 4.207107e+01
         vertex 6.866026e+01 -9.500000e+01 4.000000e+01
      endloop
   endfacet
   facet normal -7.933531e-01 0.000000e+00 -6.087618e-01
      outer loop
         vertex 6.866026e+01 -1.000000e+02 4.000000e+01
         vertex 6.707107e+01 -1.000000e+02 4.207107e+01
         vertex 6.866026e+01 -9.500000e+01 4.000000e+01
      endloop
   endfacet
   facet normal -6.087618e-01 -0.000000e+00 -7.933531e-01
      outer loop
         vertex 6.500000e+01 -1.000000e+02 4.366026e+01
         vertex 6.500000e+01 -9.500000e+01 4.366026e+01
         vertex 6.707107e+01 -9.500000e+01 4.207107e+01
      endloop
   endfacet
   facet normal -6.087618e-01 0.000000e+00 -7.933531e-01
      outer loop
         vertex 6.707107e+01 -1.000000e+02 4.207107e+01
         vertex 6.500000e+01 -1.000000e+02 4.366026e+01
         vertex 6.707107e+01 -9.500000e+01 4.207107e+01
      endloop
   endfacet
   facet normal -3.826837e-01 -0.000000e+00 -9.238794e-01
      outer loop
         vertex 6.258819e+01 -1.000000e+02 4.465926e+01
         vertex 6.258819e+01 -9.500000e+01 4.465926e+01
         vertex 6.500000e+01 -9.500000e+01 4.366026e+01
      endloop
   endfacet
   facet normal -3.826837e-01 0.000000e+00 -9.238794e-01
      outer loop
         vertex 6.500000e+01 -1.000000e+02 4.366026e+01
         vertex 6.258819e+01 -1.000000e+02 4.465926e+01
         vertex 6.500000e+01 -9.500000e+01 4.366026e+01
      endloop
   endfacet
   facet normal -1.305255e-01 -0.000000e+00 -9.914449e-01
      outer loop
         vertex 6.000000e+01 -1.000000e+02 4.500000e+01
         vertex 6.000000e+01 -9.500000e+01 4.500000e+01
         vertex 6.258819e+01 -9.500000e+01 4.465926e+01
      endloop
   endfacet
   facet normal -1.305255e-01 0.000000e+00 -9.914449e-01
      outer loop
         vertex 6.258819e+01 -1.000000e+02 4.465926e+01
         vertex 6.000000e+01 -1.000000e+02 4.500000e+01
         vertex 6.258819e+01 -9.500000e+01 4.465926e+01
      endloop
   endfacet
   facet normal -1.000000e+00 0.000000e+00 0.000000e+00
      outer loop
         vertex 7.000000e+01 -9.500000e+01 3.500000e+01
         vertex 7.000000e+01 -9.500000e+01 -3.500000e+01
         vertex 7.000000e+01 -1.000000e+02 -3.500000e+01
      endloop
   endfacet
   facet normal -1.000000e+00 0.000000e+00 0.000000e+00
      outer loop
         vertex 7.000000e+01 -1.000000e+02 -3.500000e+01
         vertex 7.000000e+01 -1.000000e+02 3.500000e+01
         vertex 7.000000e+01 -9.500000e+01 3.500000e+01
      endloop
   endfacet
   facet normal -1.305255e-01 0.000000e+00 9.914449e-01
      outer loop
         vertex 6.258819e+01 -1.000000e+02 -4.465926e+01
         vertex 6.258819e+01 -9.500000e+01 -4.465926e+01
         vertex 6.000000e+01 -9.500000e+01 -4.500000e+01
      endloop
   endfacet
   facet normal -1.305255e-01 0.000000e+00 9.914449e-01
      outer loop
         vertex 6.000000e+01 -1.000000e+02 -4.500000e+01
         vertex 6.258819e+01 -1.000000e+02 -4.465926e+01
         vertex 6.000000e+01 -9.500000e+01 -4.500000e+01
      endloop
   endfacet
   facet normal -3.826837e-01 0.000000e+00 9.238794e-01
      outer loop
         vertex 6.500000e+01 -1.000000e+02 -4.366026e+01
         vertex 6.500000e+01 -9.500000e+01 -4.366026e+01
         vertex 6.258819e+01 -9.500000e+01 -4.465926e+01
      endloop
   endfacet
   facet normal -3.826837e-01 0.000000e+00 9.238794e-01
      outer loop
         vertex 6.258819e+01 -1.000000e+02 -4.465926e+01
         vertex 6.500000e+01 -1.000000e+02 -4.366026e+01
         vertex 6.258819e+01 -9.500000e+01 -4.465926e+01
      endloop
   endfacet
   facet normal -6.087618e-01 0.000000e+00 7.933531e-01
      outer loop
         vertex 6.707107e+01 -1.000000e+02 -4.207107e+01
         vertex 6.707107e+01 -9.500000e+01 -4.207107e+01
         vertex 6.500000e+01 -9.500000e+01 -4.366026e+01
      endloop
   endfacet
   facet normal -6.087618e-01 0.000000e+00 7.933531e-01
      outer loop
         vertex 6.500000e+01 -1.000000e+02 -4.366026e+01
         vertex 6.707107e+01 -1.000000e+02 -4.207107e+01
         vertex 6.500000e+01 -9.500000e+01 -4.366026e+01
      endloop
   endfacet
   facet normal -7.933531e-01 0.000000e+00 6.087618e-01
      outer loop
         vertex 6.866026e+01 -1.000000e+02 -4.000000e+01
         vertex 6.866026e+01 -9.500000e+01 -4.000000e+01
         vertex 6.707107e+01 -9.500000e+01 -4.207107e+01
      endloop
   endfacet
   facet normal -7.933531e-01 0.000000e+00 6.087618e-01
      outer loop
         vertex 6.707107e+01 -1.000000e+02 -4.207107e+01
         vertex 6.866026e+01 -1.000000e+02 -4.000000e+01
         vertex 6.707107e+01 -9.500000e+01 -4.207107e+01
      endloop
   endfacet
   facet normal -9.238799e-01 0.000000e+00 3.826824e-01
      outer loop
         vertex 6.965926e+01 -1.000000e+02 -3.758819e+01
         vertex 6.965926e+01 -9.500000e+01 -3.758819e+01
         vertex 6.866026e+01 -9.500000e+01 -4.000000e+01
      endloop
   endfacet
   facet normal -9.238799e-01 0.000000e+00 3.826824e-01
      outer loop
         vertex 6.866026e+01 -1.000000e+02 -4.000000e+01
         vertex 6.965926e+01 -1.000000e+02 -3.758819e+01
         vertex 6.866026e+01 -9.500000e+01 -4.000000e+01
      endloop
   endfacet
   facet normal -9.914448e-01 0.000000e+00 1.305270e-01
      outer loop
         vertex 7.000000e+01 -1.000000e+02 -3.500000e+01
         vertex 7.000000e+01 -9.500000e+01 -3.500000e+01
         vertex 6.965926e+01 -9.500000e+01 -3.758819e+01
      endloop
   endfacet
   facet normal -9.914448e-01 0.000000e+00 1.305270e-01
      outer loop
         vertex 6.965926e+01 -1.000000e+02 -3.758819e+01
         vertex 7.000000e+01 -1.000000e+02 -3.500000e+01
         vertex 6.965926e+01 -9.500000e+01 -3.758819e+01
      endloop
   endfacet
   facet normal -0.000000e+00 0.000000e+00 1.000000e+00
      outer loop
         vertex 6.000000e+01 -9.500000e+01 -4.500000e+01
         vertex -6.000000e+01 -9.500000e+01 -4.500000e+01
         vertex -6.000000e+01 -1.000000e+02 -4.500000e+01
      endloop
   endfacet
   facet normal 0.000000e+00 -0.000000e+00 1.000000e+00
      outer loop
         vertex -6.000000e+01 -1.000000e+02 -4.500000e+01
         vertex 6.000000e+01 -1.000000e+02 -4.500000e+01
         vertex 6.000000e+01 -9.500000e+01 -4.500000e+01
      endloop
   endfacet
   facet normal 9.914448e-01 0.000000e+00 1.305270e-01
      outer loop
         vertex -6.965926e+01 -1.000000e+02 -3.758819e+01
         vertex -6.965926e+01 -9.500000e+01 -3.758819e+01
         vertex -7.000000e+01 -9.500000e+01 -3.500000e+01
      endloop
   endfacet
   facet normal 9.914448e-01 0.000000e+00 1.305270e-01
      outer loop
         vertex -7.000000e+01 -1.000000e+02 -3.500000e+01
         vertex -6.965926e+01 -1.000000e+02 -3.758819e+01
         vertex -7.000000e+01 -9.500000e+01 -3.500000e+01
      endloop
   endfacet
   facet normal 9.238799e-01 0.000000e+00 3.826824e-01
      outer loop
         vertex -6.866026e+01 -1.000000e+02 -4.000000e+01
         vertex -6.866026e+01 -9.500000e+01 -4.000000e+01
         vertex -6.965926e+01 -9.500000e+01 -3.758819e+01
      endloop
   endfacet
   facet normal 9.238799e-01 0.000000e+00 3.826824e-01
      outer loop
         vertex -6.965926e+01 -1.000000e+02 -3.758819e+01
         vertex -6.866026e+01 -1.000000e+02 -4.000000e+01
         vertex -6.965926e+01 -9.500000e+01 -3.758819e+01
      endloop
   endfacet
   facet normal 7.933531e-01 0.000000e+00 6.087618e-01
      outer loop
         vertex -6.707107e+01 -1.000000e+02 -4.207107e+01
         vertex -6.707107e+01 -9.500000e+01 -4.207107e+01
         vertex -6.866026e+01 -9.500000e+01 -4.000000e+01
      endloop
   endfacet
   facet normal 7.933531e-01 0.000000e+00 6.087618e-01
      outer loop
         vertex -6.866026e+01 -1.000000e+02 -4.000000e+01
         vertex -6.707107e+01 -1.000000e+02 -4.207107e+01
         vertex -6.866026e+01 -9.500000e+01 -4.000000e+01
      endloop
   endfacet
   facet normal 6.087618e-01 0.000000e+00 7.933531e-01
      outer loop
         vertex -6.500000e+01 -1.000000e+02 -4.366026e+01
         vertex -6.500000e+01 -9.500000e+01 -4.366026e+01
         vertex -6.707107e+01 -9.500000e+01 -4.207107e+01
      endloop
   endfacet
   facet normal 6.087618e-01 0.000000e+00 7.933531e-01
      outer loop
         vertex -6.707107e+01 -1.000000e+02 -4.207107e+01
         vertex -6.500000e+01 -1.000000e+02 -4.366026e+01
         vertex -6.707107e+01 -9.500000e+01 -4.207107e+01
      endloop
   endfacet
   facet normal 3.826837e-01 0.000000e+00 9.238794e-01
      outer loop
         vertex -6.258819e+01 -1.000000e+02 -4.465926e+01
         vertex -6.258819e+01 -9.500000e+01 -4.465926e+01
         vertex -6.500000e+01 -9.500000e+01 -4.366026e+01
      endloop
   endfacet
   facet normal 3.826837e-01 0.000000e+00 9.238794e-01
      outer loop
         vertex -6.500000e+01 -1.000000e+02 -4.366026e+01
         vertex -6.258819e+01 -1.000000e+02 -4.465926e+01
         vertex -6.500000e+01 -9.500000e+01 -4.366026e+01
      endloop
   endfacet
   facet normal 1.305255e-01 0.000000e+00 9.914449e-01
      outer loop
         vertex -6.000000e+01 -1.000000e+02 -4.500000e+01
         vertex -6.000000e+01 -9.500000e+01 -4.500000e+01
         vertex -6.258819e+01 -9.500000e+01 -4.465926e+01
      endloop
   endfacet
   facet normal 1.305255e-01 0.000000e+00 9.914449e-01
      outer loop
         vertex -6.258819e+01 -1.000000e+02 -4.465926e+01
         vertex -6.000000e+01 -1.000000e+02 -4.500000e+01
         vertex -6.258819e+01 -9.500000e+01 -4.465926e+01
      endloop
   endfacet
   facet normal 1.000000e+00 0.000000e+00 0.000000e+00
      outer loop
         vertex -7.000000e+01 -9.500000e+01 -3.500000e+01
         vertex -7.000000e+01 -9.500000e+01 3.500000e+01
         vertex -7.000000e+01 -1.000000e+02 3.500000e+01
      endloop
   endfacet
   facet normal 1.000000e+00 0.000000e+00 0.000000e+00
      outer loop
         vertex -7.000000e+01 -1.000000e+02 3.500000e+01
         vertex -7.000000e+01 -1.000000e+02 -3.500000e+01
         vertex -7.000000e+01 -9.500000e+01 -3.500000e+01
      endloop
   endfacet
   facet normal 1.305255e-01 0.000000e+00 -9.914449e-01
      outer loop
         vertex -6.258819e+01 -1.000000e+02 4.465926e+01
         vertex -6.258819e+01 -9.500000e+01 4.465926e+01
         vertex -6.000000e+01 -9.500000e+01 4.500000e+01
      endloop
   endfacet
   facet normal 1.305255e-01 0.000000e+00 -9.914449e-01
      outer loop
         vertex -6.000000e+01 -1.000000e+02 4.500000e+01
         vertex -6.258819e+01 -1.000000e+02 4.465926e+01
         vertex -6.000000e+01 -9.500000e+01 4.500000e+01
      endloop
   endfacet
   facet normal 3.826837e-01 0.000000e+00 -9.238794e-01
      outer loop
         vertex -6.500000e+01 -1.000000e+02 4.366026e+01
         vertex -6.500000e+01 -9.500000e+01 4.366026e+01
         vertex -6.258819e+01 -9.500000e+01 4.465926e+01
      endloop
   endfacet
   facet normal 3.826837e-01 0.000000e+00 -9.238794e-01
      outer loop
         vertex -6.258819e+01 -1.000000e+02 4.465926e+01
         vertex -6.500000e+01 -1.000000e+02 4.366026e+01
         vertex -6.258819e+01 -9.500000e+01 4.465926e+01
      endloop
   endfacet
   facet normal 6.087618e-01 0.000000e+00 -7.933531e-01
      outer loop
         vertex -6.707107e+01 -1.000000e+02 4.207107e+01
         vertex -6.707107e+01 -9.500000e+01 4.207107e+01
         vertex -6.500000e+01 -9.500000e+01 4.366026e+01
      endloop
   endfacet
   facet normal 6.087618e-01 0.000000e+00 -7.933531e-01
      outer loop
         vertex -6.500000e+01 -1.000000e+02 4.366026e+01
         vertex -6.707107e+01 -1.000000e+02 4.207107e+01
         vertex -6.500000e+01 -9.500000e+01 4.366026e+01
      endloop
   endfacet
   facet normal 7.933531e-01 0.000000e+00 -6.087618e-01
      outer loop
         vertex -6.866026e+01 -1.000000e+02 4.000000e+01
         vertex -6.866026e+01 -9.500000e+01 4.000000e+01
         vertex -6.707107e+01 -9.500000e+01 4.207107e+01
      endloop
   endfacet
   facet normal 7.933531e-01 0.000000e+00 -6.087618e-01
      outer loop
         vertex -6.707107e+01 -1.000000e+02 4.207107e+01
         vertex -6.866026e+01 -1.000000e+02 4.000000e+01
         vertex -6.707107e+01 -9.500000e+01 4.207107e+01
      endloop
   endfacet
   facet normal 9.238799e-01 0.000000e+00 -3.826824e-01
      outer loop
         vertex -6.965926e+01 -1.000000e+02 3.758819e+01
         vertex -6.965926e+01 -9.500000e+01 3.758819e+01
         vertex -6.866026e+01 -9.500000e+01 4.000000e+01
      endloop
   endfacet
   facet normal 9.238799e-01 0.000000e+00 -3.826824e-01
      outer loop
         vertex -6.866026e+01 -1.000000e+02 4.000000e+01
         vertex -6.965926e+01 -1.000000e+02 3.758819e+01
         vertex -6.866026e+01 -9.500000e+01 4.000000e+01
      endloop
   endfacet
   facet normal 9.914448e-01 0.000000e+00 -1.305270e-01
      outer loop
         vertex -7.000000e+01 -1.000000e+02 3.500000e+01
         vertex -7.000000e+01 -9.500000e+01 3.500000e+01
         vertex -6.965926e+01 -9.500000e+01 3.758819e+01
      endloop
   endfacet
   facet normal 9.914448e-01 0.000000e+00 -1.305270e-01
      outer loop
         vertex -6.965926e+01 -1.000000e+02 3.758819e+01
         vertex -7.000000e+01 -1.000000e+02 3.500000e+01
         vertex -6.965926e+01 -9.500000e+01 3.758819e+01
      endloop
   endfacet
   facet normal 9.937121e-01 -0.000000e+00 1.119651e-01
      outer loop
         vertex 7.462392e+01 1.000000e+01 3.833781e+01
         vertex 7.462392e+01 -1.000000e+02 3.833781e+01
         vertex 7.500000e+01 -1.000000e+02 3.500000e+01
      endloop
   endfacet
   facet normal 9.937121e-01 0.000000e+00 1.119651e-01
      outer loop
         vertex 7.500000e+01 1.000000e+01 3.500000e+01
         vertex 7.462392e+01 1.000000e+01 3.833781e+01
         vertex 7.500000e+01 -1.000000e+02 3.500000e+01
      endloop
   endfacet
   facet normal 9.438836e-01 -0.000000e+00 3.302784e-01
      outer loop
         vertex 7.351453e+01 1.000000e+01 4.150826e+01
         vertex 7.351453e+01 -1.000000e+02 4.150826e+01
         vertex 7.462392e+01 -1.000000e+02 3.833781e+01
      endloop
   endfacet
   facet normal 9.438836e-01 0.000000e+00 3.302784e-01
      outer loop
         vertex 7.462392e+01 1.000000e+01 3.833781e+01
         vertex 7.351453e+01 1.000000e+01 4.150826e+01
         vertex 7.462392e+01 -1.000000e+02 3.833781e+01
      endloop
   endfacet
   facet normal 8.467240e-01 -0.000000e+00 5.320324e-01
      outer loop
         vertex 7.172747e+01 1.000000e+01 4.435235e+01
         vertex 7.172747e+01 -1.000000e+02 4.435235e+01
         vertex 7.351453e+01 -1.000000e+02 4.150826e+01
      endloop
   endfacet
   facet normal 8.467240e-01 0.000000e+00 5.320324e-01
      outer loop
         vertex 7.351453e+01 1.000000e+01 4.150826e+01
         vertex 7.172747e+01 1.000000e+01 4.435235e+01
         vertex 7.351453e+01 -1.000000e+02 4.150826e+01
      endloop
   endfacet
   facet normal 7.071068e-01 -0.000000e+00 7.071068e-01
      outer loop
         vertex 6.935235e+01 1.000000e+01 4.672747e+01
         vertex 6.935235e+01 -1.000000e+02 4.672747e+01
         vertex 7.172747e+01 -1.000000e+02 4.435235e+01
      endloop
   endfacet
   facet normal 7.071068e-01 0.000000e+00 7.071068e-01
      outer loop
         vertex 7.172747e+01 1.000000e+01 4.435235e+01
         vertex 6.935235e+01 1.000000e+01 4.672747e+01
         vertex 7.172747e+01 -1.000000e+02 4.435235e+01
      endloop
   endfacet
   facet normal 5.320324e-01 -0.000000e+00 8.467240e-01
      outer loop
         vertex 6.650826e+01 1.000000e+01 4.851453e+01
         vertex 6.650826e+01 -1.000000e+02 4.851453e+01
         vertex 6.935235e+01 -1.000000e+02 4.672747e+01
      endloop
   endfacet
   facet normal 5.320324e-01 0.000000e+00 8.467240e-01
      outer loop
         vertex 6.935235e+01 1.000000e+01 4.672747e+01
         vertex 6.650826e+01 1.000000e+01 4.851453e+01
         vertex 6.935235e+01 -1.000000e+02 4.672747e+01
      endloop
   endfacet
   facet normal 3.302794e-01 -0.000000e+00 9.438832e-01
      outer loop
         vertex 6.333781e+01 1.000000e+01 4.962392e+01
         vertex 6.333781e+01 -1.000000e+02 4.962392e+01
         vertex 6.650826e+01 -1.000000e+02 4.851453e+01
      endloop
   endfacet
   facet normal 3.302794e-01 0.000000e+00 9.438832e-01
      outer loop
         vertex 6.650826e+01 1.000000e+01 4.851453e+01
         vertex 6.333781e+01 1.000000e+01 4.962392e+01
         vertex 6.650826e+01 -1.000000e+02 4.851453e+01
      endloop
   endfacet
   facet normal 1.119639e-01 -0.000000e+00 9.937123e-01
      outer loop
         vertex 6.000000e+01 1.000000e+01 5.000000e+01
         vertex 6.000000e+01 -1.000000e+02 5.000000e+01
         vertex 6.333781e+01 -1.000000e+02 4.962392e+01
      endloop
   endfacet
   facet normal 1.119639e-01 0.000000e+00 9.937123e-01
      outer loop
         vertex 6.333781e+01 1.000000e+01 4.962392e+01
         vertex 6.000000e+01 1.000000e+01 5.000000e+01
         vertex 6.333781e+01 -1.000000e+02 4.962392e+01
      endloop
   endfacet
   facet normal 0.000000e+00 0.000000e+00 1.000000e+00
      outer loop
         vertex 6.000000e+01 -1.000000e+02 5.000000e+01
         vertex 6.000000e+01 1.000000e+01 5.000000e+01
         vertex -6.000000e+01 1.000000e+01 5.000000e+01
      endloop
   endfacet
   facet normal 0.000000e+00 0.000000e+00 1.000000e+00
      outer loop
         vertex -6.000000e+01 1.000000e+01 5.000000e+01
         vertex -6.000000e+01 -1.000000e+02 5.000000e+01
         vertex 6.000000e+01 -1.000000e+02 5.000000e+01
      endloop
   endfacet
   facet normal -1.119639e-01 0.000000e+00 9.937123e-01
      outer loop
         vertex -6.333781e+01 1.000000e+01 4.962392e+01
         vertex -6.333781e+01 -1.000000e+02 4.962392e+01
         vertex -6.000000e+01 -1.000000e+02 5.000000e+01
      endloop
   endfacet
   facet normal -1.119639e-01 0.000000e+00 9.937123e-01
      outer loop
         vertex -6.000000e+01 1.000000e+01 5.000000e+01
         vertex -6.333781e+01 1.000000e+01 4.962392e+01
         vertex -6.000000e+01 -1.000000e+02 5.000000e+01
      endloop
   endfacet
   facet normal -3.302794e-01 0.000000e+00 9.438832e-01
      outer loop
         vertex -6.650826e+01 1.000000e+01 4.851453e+01
         vertex -6.650826e+01 -1.000000e+02 4.851453e+01
         vertex -6.333781e+01 -1.000000e+02 4.962392e+01
      endloop
   endfacet
   facet normal -3.302794e-01 0.000000e+00 9.438832e-01
      outer loop
         vertex -6.333781e+01 1.000000e+01 4.962392e+01
         vertex -6.650826e+01 1.000000e+01 4.851453e+01
         vertex -6.333781e+01 -1.000000e+02 4.962392e+01
      endloop
   endfacet
   facet normal -5.320324e-01 0.000000e+00 8.467240e-01
      outer loop
         vertex -6.935235e+01 1.000000e+01 4.672747e+01
         vertex -6.935235e+01 -1.000000e+02 4.672747e+01
         vertex -6.650826e+01 -1.000000e+02 4.851453e+01
      endloop
   endfacet
   facet normal -5.320324e-01 0.000000e+00 8.467240e-01
      outer loop
         vertex -6.650826e+01 1.000000e+01 4.851453e+01
         vertex -6.935235e+01 1.000000e+01 4.672747e+01
         vertex -6.650826e+01 -1.000000e+02 4.851453e+01
      endloop
   endfacet
   facet normal -7.071068e-01 0.000000e+00 7.071068e-01
      outer loop
         vertex -7.172747e+01 1.000000e+01 4.435235e+01
         vertex -7.172747e+01 -1.000000e+02 4.435235e+01
         vertex -6.935235e+01 -1.000000e+02 4.672747e+01
      endloop
   endfacet
   facet normal -7.071068e-01 0.000000e+00 7.071068e-01
      outer loop
         vertex -6.935235e+01 1.000000e+01 4.672747e+01
         vertex -7.172747e+01 1.000000e+01 4.435235e+01
         vertex -6.935235e+01 -1.000000e+02 4.672747e+01
      endloop
   endfacet
   facet normal -8.467240e-01 0.000000e+00 5.320324e-01
      outer loop
         vertex -7.351453e+01 1.000000e+01 4.150826e+01
         vertex -7.351453e+01 -1.000000e+02 4.150826e+01
         vertex -7.172747e+01 -1.000000e+02 4.435235e+01
      endloop
   endfacet
   facet normal -8.467240e-01 0.000000e+00 5.320324e-01
      outer loop
         vertex -7.172747e+01 1.000000e+01 4.435235e+01
         vertex -7.351453e+01 1.000000e+01 4.150826e+01
         vertex -7.172747e+01 -1.000000e+02 4.435235e+01
      endloop
   endfacet
   facet normal -9.438836e-01 0.000000e+00 3.302784e-01
      outer loop
         vertex -7.462392e+01 1.000000e+01 3.833781e+01
         vertex -7.462392e+01 -1.000000e+02 3.833781e+01
         vertex -7.351453e+01 -1.000000e+02 4.150826e+01
      endloop
   endfacet
   facet normal -9.438836e-01 0.000000e+00 3.302784e-01
      outer loop
         vertex -7.351453e+01 1.000000e+01 4.150826e+01
         vertex -7.462392e+01 1.000000e+01 3.833781e+01
         vertex -7.351453e+01 -1.000000e+02 4.150826e+01
      endloop
   endfacet
   facet normal -9.937121e-01 0.000000e+00 1.119651e-01
      outer loop
         vertex -7.500000e+01 1.000000e+01 3.500000e+01
         vertex -7.500000e+01 -1.000000e+02 3.500000e+01
         vertex -7.462392e+01 -1.000000e+02 3.833781e+01
      endloop
   endfacet
   facet normal -9.937121e-01 0.000000e+00 1.119651e-01
      outer loop
         vertex -7.462392e+01 1.000000e+01 3.833781e+01
         vertex -7.500000e+01 1.000000e+01 3.500000e+01
         vertex -7.462392e+01 -1.000000e+02 3.833781e+01
      endloop
   endfacet
   facet normal -1.000000e+00 0.000000e+00 0.000000e+00
      outer loop
         vertex -7.500000e+01 1.000000e+01 3.500000e+01
         vertex -7.500000e+01 1.000000e+01 -3.500000e+01
         vertex -7.500000e+01 -1.000000e+02 -3.500000e+01
      endloop
   endfacet
   facet normal -1.000000e+00 0.000000e+00 0.000000e+00
      outer loop
         vertex -7.500000e+01 -1.000000e+02 -3.500000e+01
         vertex -7.500000e+01 -1.000000e+02 3.500000e+01
         vertex -7.500000e+01 1.000000e+01 3.500000e+01
      endloop
   endfacet
   facet normal -9.937121e-01 0.000000e+00 -1.119651e-01
      outer loop
         vertex -7.462392e+01 1.000000e+01 -3.833781e+01
         vertex -7.462392e+01 -1.000000e+02 -3.833781e+01
         vertex -7.500000e+01 -1.000000e+02 -3.500000e+01
      endloop
   endfacet
   facet normal -9.937121e-01 0.000000e+00 -1.119651e-01
      outer loop
         vertex -7.500000e+01 1.000000e+01 -3.500000e+01
         vertex -7.462392e+01 1.000000e+01 -3.833781e+01
         vertex -7.500000e+01 -1.000000e+02 -3.500000e+01
      endloop
   endfacet
   facet normal -9.438836e-01 0.000000e+00 -3.302784e-01
      outer loop
         vertex -7.351453e+01 1.000000e+01 -4.150826e+01
         vertex -7.351453e+01 -1.000000e+02 -4.150826e+01
         vertex -7.462392e+01 -1.000000e+02 -3.833781e+01
      endloop
   endfacet
   facet normal -9.438836e-01 0.000000e+00 -3.302784e-01
      outer loop
         vertex -7.462392e+01 1.000000e+01 -3.833781e+01
         vertex -7.351453e+01 1.000000e+01 -4.150826e+01
         vertex -7.462392e+01 -1.000000e+02 -3.833781e+01
      endloop
   endfacet
   facet normal -8.467240e-01 0.000000e+00 -5.320324e-01
      outer loop
         vertex -7.172747e+01 1.000000e+01 -4.435235e+01
         vertex -7.172747e+01 -1.000000e+02 -4.435235e+01
         vertex -7.351453e+01 -1.000000e+02 -4.150826e+01
      endloop
   endfacet
   facet normal -8.467240e-01 0.000000e+00 -5.320324e-01
      outer loop
         vertex -7.351453e+01 1.000000e+01 -4.150826e+01
         vertex -7.172747e+01 1.000000e+01 -4.435235e+01
         vertex -7.351453e+01 -1.000000e+02 -4.150826e+01
      endloop
   endfacet
   facet normal -7.071068e-01 0.000000e+00 -7.071068e-01
      outer loop
         vertex -6.935235e+01 1.000000e+01 -4.672747e+01
         vertex -6.935235e+01 -1.000000e+02 -4.672747e+01
         vertex -7.172747e+01 -1.000000e+02 -4.435235e+01
      endloop
   endfacet
   facet normal -7.071068e-01 0.000000e+00 -7.071068e-01
      outer loop
         vertex -7.172747e+01 1.000000e+01 -4.435235e+01
         vertex -6.935235e+01 1.000000e+01 -4.672747e+01
         vertex -7.172747e+01 -1.000000e+02 -4.435235e+01
      endloop
   endfacet
   facet normal -5.320324e-01 0.000000e+00 -8.467240e-01
      outer loop
         vertex -6.650826e+01 1.000000e+01 -4.851453e+01
         vertex -6.650826e+01 -1.000000e+02 -4.851453e+01
         vertex -6.935235e+01 -1.000000e+02 -4.672747e+01
      endloop
   endfacet
   facet normal -5.320324e-01 0.000000e+00 -8.467240e-01
      outer loop
         vertex -6.935235e+01 1.000000e+01 -4.672747e+01
         vertex -6.650826e+01 1.000000e+01 -4.851453e+01
         vertex -6.935235e+01 -1.000000e+02 -4.672747e+01
      endloop
   endfacet
   facet normal -3.302794e-01 0.000000e+00 -9.438832e-01
      outer loop
         vertex -6.333781e+01 1.000000e+01 -4.962392e+01
         vertex -6.333781e+01 -1.000000e+02 -4.962392e+01
         vertex -6.650826e+01 -1.000000e+02 -4.851453e+01
      endloop
   endfacet
   facet normal -3.302794e-01 0.000000e+00 -9.438832e-01
      outer loop
         vertex -6.650826e+01 1.000000e+01 -4.851453e+01
         vertex -6.333781e+01 1.000000e+01 -4.962392e+01
         vertex -6.650826e+01 -1.000000e+02 -4.851453e+01
      endloop
   endfacet
   facet normal -1.119639e-01 0.000000e+00 -9.937123e-01
      outer loop
         vertex -6.000000e+01 1.000000e+01 -5.000000e+01
         vertex -6.000000e+01 -1.000000e+02 -5.000000e+01
         vertex -6.333781e+01 -1.000000e+02 -4.962392e+01
      endloop
   endfacet
   facet normal -1.119639e-01 0.000000e+00 -9.937123e-01
      outer loop
         vertex -6.333781e+01 1.000000e+01 -4.962392e+01
         vertex -6.000000e+01 1.000000e+01 -5.000000e+01
         vertex -6.333781e+01 -1.000000e+02 -4.962392e+01
      endloop
   endfacet
   facet normal -0.000000e+00 -0.000000e+00 -1.000000e+00
      outer loop
         vertex -6.000000e+01 1.000000e+01 -5.000000e+01
         vertex 6.000000e+01 1.000000e+01 -5.000000e+01
         vertex 6.000000e+01 -1.000000e+02 -5.000000e+01
      endloop
   endfacet
   facet normal 0.000000e+00 0.000000e+00 -1.000000e+00
      outer loop
         vertex 6.000000e+01 -1.000000e+02 -5.000000e+01
         vertex -6.000000e+01 -1.000000e+02 -5.000000e+01
         vertex -6.000000e+01 1.000000e+01 -5.000000e+01
      endloop
   endfacet
   facet normal 1.119639e-01 0.000000e+00 -9.937123e-01
      outer loop
         vertex 6.333781e+01 1.000000e+01 -4.962392e+01
         vertex 6.333781e+01 -1.000000e+02 -4.962392e+01
         vertex 6.000000e+01 -1.000000e+02 -5.000000e+01
      endloop
   endfacet
   facet normal 1.119639e-01 0.000000e+00 -9.937123e-01
      outer loop
         vertex 6.000000e+01 1.000000e+01 -5.000000e+01
         vertex 6.333781e+01 1.000000e+01 -4.962392e+01
         vertex 6.000000e+01 -1.000000e+02 -5.000000e+01
      endloop
   endfacet
   facet normal 3.302794e-01 0.000000e+00 -9.438832e-01
      outer loop
         vertex 6.650826e+01 1.000000e+01 -4.851453e+01
         vertex 6.650826e+01 -1.000000e+02 -4.851453e+01
         vertex 6.333781e+01 -1.000000e+02 -4.962392e+01
      endloop
   endfacet
   facet normal 3.302794e-01 0.000000e+00 -9.438832e-01
      outer loop
         vertex 6.333781e+01 1.000000e+01 -4.962392e+01
         vertex 6.650826e+01 1.000000e+01 -4.851453e+01
         vertex 6.333781e+01 -1.000000e+02 -4.962392e+01
      endloop
   endfacet
   facet normal 5.320324e-01 0.000000e+00 -8.467240e-01
      outer loop
         vertex 6.935235e+01 1.000000e+01 -4.672747e+01
         vertex 6.935235e+01 -1.000000e+02 -4.672747e+01
         vertex 6.650826e+01 -1.000000e+02 -4.851453e+01
      endloop
   endfacet
   facet normal 5.320324e-01 0.000000e+00 -8.467240e-01
      outer loop
         vertex 6.650826e+01 1.000000e+01 -4.851453e+01
         vertex 6.935235e+01 1.000000e+01 -4.672747e+01
         vertex 6.650826e+01 -1.000000e+02 -4.851453e+01
      endloop
   endfacet
   facet normal 7.071068e-01 0.000000e+00 -7.071068e-01
      outer loop
         vertex 7.172747e+01 1.000000e+01 -4.435235e+01
         vertex 7.172747e+01 -1.000000e+02 -4.435235e+01
         vertex 6.935235e+01 -1.000000e+02 -4.672747e+01
      endloop
   endfacet
   facet normal 7.071068e-01 0.000000e+00 -7.071068e-01
      outer loop
         vertex 6.935235e+01 1.000000e+01 -4.672747e+01
         vertex 7.172747e+01 1.000000e+01 -4.435235e+01
         vertex 6.935235e+01 -1.000000e+02 -4.672747e+01
      endloop
   endfacet
   facet normal 8.467240e-01 0.000000e+00 -5.320324e-01
      outer loop
         vertex 7.351453e+01 1.000000e+01 -4.150826e+01
         vertex 7.351453e+01 -1.000000e+02 -4.150826e+01
         vertex 7.172747e+01 -1.000000e+02 -4.435235e+01
      endloop
   endfacet
   facet normal 8.467240e-01 0.000000e+00 -5.320324e-01
      outer loop
         vertex 7.172747e+01 1.000000e+01 -4.435235e+01
         vertex 7.351453e+01 1.000000e+01 -4.150826e+01
         vertex 7.172747e+01 -1.000000e+02 -4.435235e+01
      endloop
   endfacet
   facet normal 9.438836e-01 0.000000e+00 -3.302784e-01
      outer loop
         vertex 7.462392e+01 1.000000e+01 -3.833781e+01
         vertex 7.462392e+01 -1.000000e+02 -3.833781e+01
         vertex 7.351453e+01 -1.000000e+02 -4.150826e+01
      endloop
   endfacet
   facet normal 9.438836e-01 0.000000e+00 -3.302784e-01
      outer loop
         vertex 7.351453e+01 1.000000e+01 -4.150826e+01
         vertex 7.462392e+01 1.000000e+01 -3.833781e+01
         vertex 7.351453e+01 -1.000000e+02 -4.150826e+01
      endloop
   endfacet
   facet normal 9.937121e-01 0.000000e+00 -1.119651e-01
      outer loop
         vertex 7.500000e+01 1.000000e+01 -3.500000e+01
         vertex 7.500000e+01 -1.000000e+02 -3.500000e+01
         vertex 7.462392e+01 -1.000000e+02 -3.833781e+01
      endloop
   endfacet
   facet normal 9.937121e-01 0.000000e+00 -1.119651e-01
      outer loop
         vertex 7.462392e+01 1.000000e+01 -3.833781e+01
         vertex 7.500000e+01 1.000000e+01 -3.500000e+01
         vertex 7.462392e+01 -1.000000e+02 -3.833781e+01
      endloop
   endfacet
   facet normal 1.000000e+00 0.000000e+00 0.000000e+00
      outer loop
         vertex 7.500000e+01 1.000000e+01 -3.500000e+01
         vertex 7.500000e+01 1.000000e+01 3.500000e+01
         vertex 7.500000e+01 -1.000000e+02 3.500000e+01
      endloop
   endfacet
   facet normal 1.000000e+00 0.000000e+00 0.000000e+00
      outer loop
         vertex 7.500000e+01 -1.000000e+02 3.500000e+01
         vertex 7.500000e+01 -1.000000e+02 -3.500000e+01
         vertex 7.500000e+01 1.000000e+01 -3.500000e+01
      endloop
   endfacet
   facet normal 0.000000e+00 1.000000e+00 0.000000e+00
      outer loop
         vertex 6.000000e+01 5.000000e+00 4.500000e+01
         vertex 6.258819e+01 5.000000e+00 4.465926e+01
         vertex 6.500000e+01 5.000000e+00 4.000000e+01
      endloop
   endfacet
   facet normal 0.000000e+00 1.000000e+00 0.000000e+00
      outer loop
         vertex 6.258819e+01 5.000000e+00 4.465926e+01
         vertex 6.500000e+01 5.000000e+00 4.366026e+01
         vertex 6.500000e+01 5.000000e+00 4.000000e+01
      endloop
   endfacet
   facet normal 0.000000e+00 1.000000e+00 0.000000e+00
      outer loop
         vertex 6.500000e+01 5.000000e+00 4.366026e+01
         vertex 6.707107e+01 5.000000e+00 4.207107e+01
         vertex 6.500000e+01 5.000000e+00 4.000000e+01
      endloop
   endfacet
   facet normal 0.000000e+00 1.000000e+00 0.000000e+00
      outer loop
         vertex 6.707107e+01 5.000000e+00 4.207107e+01
         vertex 6.866026e+01 5.000000e+00 4.000000e+01
         vertex 6.500000e+01 5.000000e+00 4.000000e+01
      endloop
   endfacet
   facet normal 0.000000e+00 1.000000e+00 0.000000e+00
      outer loop
         vertex 6.866026e+01 5.000000e+00 4.000000e+01
         vertex 6.965926e+01 5.000000e+00 3.758819e+01
         vertex 6.500000e+01 5.000000e+00 4.000000e+01
      endloop
   endfacet
   facet normal 0.000000e+00 1.000000e+00 0.000000e+00
      outer loop
         vertex 6.965926e+01 5.000000e+00 3.758819e+01
         vertex 7.000000e+01 5.000000e+00 3.500000e+01
         vertex 6.500000e+01 5.000000e+00 4.000000e+01
      endloop
   endfacet
   facet normal 0.000000e+00 1.000000e+00 -0.000000e+00
      outer loop
         vertex 7.000000e+01 5.000000e+00 3.500000e+01
         vertex 7.000000e+01 5.000000e+00 -3.500000e+01
         vertex 6.500000e+01 5.000000e+00 -4.000000e+01
      endloop
   endfacet
   facet normal 0.000000e+00 1.000000e+00 -0.000000e+00
      outer loop
         vertex 7.000000e+01 5.000000e+00 -3.500000e+01
         vertex 6.965926e+01 5.000000e+00 -3.758819e+01
         vertex 6.500000e+01 5.000000e+00 -4.000000e+01
      endloop
   endfacet
   facet normal 0.000000e+00 1.000000e+00 -0.000000e+00
      outer loop
         vertex 6.965926e+01 5.000000e+00 -3.758819e+01
         vertex 6.866026e+01 5.000000e+00 -4.000000e+01
         vertex 6.500000e+01 5.000000e+00 -4.000000e+01
      endloop
   endfacet
   facet normal 0.000000e+00 1.000000e+00 -0.000000e+00
      outer loop
         vertex 6.866026e+01 5.000000e+00 -4.000000e+01
         vertex 6.707107e+01 5.000000e+00 -4.207107e+01
         vertex 6.500000e+01 5.000000e+00 -4.000000e+01
      endloop
   endfacet
   facet normal 0.000000e+00 1.000000e+00 0.000000e+00
      outer loop
         vertex 6.707107e+01 5.000000e+00 -4.207107e+01
         vertex 6.500000e+01 5.000000e+00 -4.366026e+01
         vertex 6.500000e+01 5.000000e+00 -4.000000e+01
      endloop
   endfacet
   facet normal 0.000000e+00 1.000000e+00 0.000000e+00
      outer loop
         vertex 6.500000e+01 5.000000e+00 -4.366026e+01
         vertex 6.258819e+01 5.000000e+00 -4.465926e+01
         vertex 6.500000e+01 5.000000e+00 -4.000000e+01
      endloop
   endfacet
   facet normal 0.000000e+00 1.000000e+00 0.000000e+00
      outer loop
         vertex 6.258819e+01 5.000000e+00 -4.465926e+01
         vertex 6.000000e+01 5.000000e+00 -4.500000e+01
         vertex 6.500000e+01 5.000000e+00 -4.000000e+01
      endloop
   endfacet
   facet normal -0.000000e+00 1.000000e+00 -0.000000e+00
      outer loop
         vertex -6.000000e+01 5.000000e+00 -4.500000e+01
         vertex -6.258819e+01 5.000000e+00 -4.465926e+01
         vertex -6.500000e+01 5.000000e+00 -4.000000e+01
      endloop
   endfacet
   facet normal -0.000000e+00 1.000000e+00 0.000000e+00
      outer loop
         vertex -6.258819e+01 5.000000e+00 -4.465926e+01
         vertex -6.500000e+01 5.000000e+00 -4.366026e+01
         vertex -6.500000e+01 5.000000e+00 -4.000000e+01
      endloop
   endfacet
   facet normal -0.000000e+00 1.000000e+00 0.000000e+00
      outer loop
         vertex -6.500000e+01 5.000000e+00 -4.366026e+01
         vertex -6.707107e+01 5.000000e+00 -4.207107e+01
         vertex -6.500000e+01 5.000000e+00 -4.000000e+01
      endloop
   endfacet
   facet normal -0.000000e+00 1.000000e+00 0.000000e+00
      outer loop
         vertex -6.707107e+01 5.000000e+00 -4.207107e+01
         vertex -6.866026e+01 5.000000e+00 -4.000000e+01
         vertex -6.500000e+01 5.000000e+00 -4.000000e+01
      endloop
   endfacet
   facet normal 0.000000e+00 1.000000e+00 0.000000e+00
      outer loop
         vertex -6.866026e+01 5.000000e+00 -4.000000e+01
         vertex -6.965926e+01 5.000000e+00 -3.758819e+01
         vertex -6.500000e+01 5.000000e+00 -4.000000e+01
      endloop
   endfacet
   facet normal 0.000000e+00 1.000000e+00 0.000000e+00
      outer loop
         vertex -6.965926e+01 5.000000e+00 -3.758819e+01
         vertex -7.000000e+01 5.000000e+00 -3.500000e+01
         vertex -6.500000e+01 5.000000e+00 -4.000000e+01
      endloop
   endfacet
   facet normal 0.000000e+00 1.000000e+00 0.000000e+00
      outer loop
         vertex -7.000000e+01 5.000000e+00 -3.500000e+01
         vertex -7.000000e+01 5.000000e+00 3.500000e+01
         vertex -6.500000e+01 5.000000e+00 -4.000000e+01
      endloop
   endfacet
   facet normal -0.000000e+00 1.000000e+00 0.000000e+00
      outer loop
         vertex -7.000000e+01 5.000000e+00 3.500000e+01
         vertex -6.965926e+01 5.000000e+00 3.758819e+01
         vertex -6.500000e+01 5.000000e+00 4.000000e+01
      endloop
   endfacet
   facet normal -0.000000e+00 1.000000e+00 0.000000e+00
      outer loop
         vertex -6.965926e+01 5.000000e+00 3.758819e+01
         vertex -6.866026e+01 5.000000e+00 4.000000e+01
         vertex -6.500000e+01 5.000000e+00 4.000000e+01
      endloop
   endfacet
   facet normal 0.000000e+00 1.000000e+00 0.000000e+00
      outer loop
         vertex -6.866026e+01 5.000000e+00 4.000000e+01
         vertex -6.707107e+01 5.000000e+00 4.207107e+01
         vertex -6.500000e+01 5.000000e+00 4.000000e+01
      endloop
   endfacet
   facet normal 0.000000e+00 1.000000e+00 0.000000e+00
      outer loop
         vertex -6.707107e+01 5.000000e+00 4.207107e+01
         vertex -6.500000e+01 5.000000e+00 4.366026e+01
         vertex -6.500000e+01 5.000000e+00 4.000000e+01
      endloop
   endfacet
   facet normal 0.000000e+00 1.000000e+00 0.000000e+00
      outer loop
         vertex -6.500000e+01 5.000000e+00 4.366026e+01
         vertex -6.258819e+01 5.000000e+00 4.465926e+01
         vertex -6.500000e+01 5.000000e+00 4.000000e+01
      endloop
   endfacet
   facet normal 0.000000e+00 1.000000e+00 0.000000e+00
      outer loop
         vertex -6.258819e+01 5.000000e+00 4.465926e+01
         vertex -6.000000e+01 5.000000e+00 4.500000e+01
         vertex -6.500000e+01 5.000000e+00 4.000000e+01
      endloop
   endfacet
   facet normal 0.000000e+00 1.000000e+00 0.000000e+00
      outer loop
         vertex -6.500000e+01 5.000000e+00 -4.000000e+01
         vertex 6.500000e+01 5.000000e+00 -4.000000e+01
         vertex 6.000000e+01 5.000000e+00 -4.500000e+01
      endloop
   endfacet
   facet normal 0.000000e+00 1.000000e+00 0.000000e+00
      outer loop
         vertex 6.500000e+01 5.000000e+00 -4.000000e+01
         vertex 6.500000e+01 5.000000e+00 4.000000e+01
         vertex 7.000000e+01 5.000000e+00 3.500000e+01
      endloop
   endfacet
   facet normal 0.000000e+00 1.000000e+00 0.000000e+00
      outer loop
         vertex 6.500000e+01 5.000000e+00 4.000000e+01
         vertex -6.500000e+01 5.000000e+00 4.000000e+01
         vertex -6.000000e+01 5.000000e+00 4.500000e+01
      endloop
   endfacet
   facet normal 0.000000e+00 1.000000e+00 -0.000000e+00
      outer loop
         vertex -6.500000e+01 5.000000e+00 4.000000e+01
         vertex -6.500000e+01 5.000000e+00 -4.000000e+01
         vertex -7.000000e+01 5.000000e+00 3.500000e+01
      endloop
   endfacet
   facet normal 0.000000e+00 1.000000e+00 0.000000e+00
      outer loop
         vertex -6.500000e+01 5.000000e+00 -4.000000e+01
         vertex 6.000000e+01 5.000000e+00 -4.500000e+01
         vertex -6.000000e+01 5.000000e+00 -4.500000e+01
      endloop
   endfacet
   facet normal 0.000000e+00 1.000000e+00 0.000000e+00
      outer loop
         vertex -6.000000e+01 5.000000e+00 4.500000e+01
         vertex 6.000000e+01 5.000000e+00 4.500000e+01
         vertex 6.500000e+01 5.000000e+00 4.000000e+01
      endloop
   endfacet
   facet normal 0.000000e+00 1.000000e+00 0.000000e+00
      outer loop
         vertex -6.000000e+01 1.000000e+01 5.000000e+01
         vertex 6.000000e+01 1.000000e+01 5.000000e+01
         vertex 6.000000e+01 1.000000e+01 4.500000e+01
      endloop
   endfacet
   facet normal 0.000000e+00 1.000000e+00 0.000000e+00
      outer loop
         vertex 6.000000e+01 1.000000e+01 5.000000e+01
         vertex 6.333781e+01 1.000000e+01 4.962392e+01
         vertex 6.000000e+01 1.000000e+01 4.500000e+01
      endloop
   endfacet
   facet normal 0.000000e+00 1.000000e+00 0.000000e+00
      outer loop
         vertex 6.333781e+01 1.000000e+01 4.962392e+01
         vertex 6.650826e+01 1.000000e+01 4.851453e+01
         vertex 6.258819e+01 1.000000e+01 4.465926e+01
      endloop
   endfacet
   facet normal 0.000000e+00 1.000000e+00 0.000000e+00
      outer loop
         vertex 6.650826e+01 1.000000e+01 4.851453e+01
         vertex 6.935235e+01 1.000000e+01 4.672747e+01
         vertex 6.500000e+01 1.000000e+01 4.366026e+01
      endloop
   endfacet
   facet normal 0.000000e+00 1.000000e+00 0.000000e+00
      outer loop
         vertex 6.935235e+01 1.000000e+01 4.672747e+01
         vertex 7.172747e+01 1.000000e+01 4.435235e+01
         vertex 6.707107e+01 1.000000e+01 4.207107e+01
      endloop
   endfacet
   facet normal 0.000000e+00 1.000000e+00 0.000000e+00
      outer loop
         vertex 7.172747e+01 1.000000e+01 4.435235e+01
         vertex 7.351453e+01 1.000000e+01 4.150826e+01
         vertex 6.866026e+01 1.000000e+01 4.000000e+01
      endloop
   endfacet
   facet normal 0.000000e+00 1.000000e+00 0.000000e+00
      outer loop
         vertex 7.351453e+01 1.000000e+01 4.150826e+01
         vertex 7.462392e+01 1.000000e+01 3.833781e+01
         vertex 6.965926e+01 1.000000e+01 3.758819e+01
      endloop
   endfacet
   facet normal 0.000000e+00 1.000000e+00 0.000000e+00
      outer loop
         vertex 7.462392e+01 1.000000e+01 3.833781e+01
         vertex 7.500000e+01 1.000000e+01 3.500000e+01
         vertex 7.000000e+01 1.000000e+01 3.500000e+01
      endloop
   endfacet
   facet normal 0.000000e+00 1.000000e+00 -0.000000e+00
      outer loop
         vertex 7.500000e+01 1.000000e+01 3.500000e+01
         vertex 7.500000e+01 1.000000e+01 -3.500000e+01
         vertex 7.000000e+01 1.000000e+01 -3.500000e+01
      endloop
   endfacet
   facet normal 0.000000e+00 1.000000e+00 -0.000000e+00
      outer loop
         vertex 7.500000e+01 1.000000e+01 -3.500000e+01
         vertex 7.462392e+01 1.000000e+01 -3.833781e+01
         vertex 7.000000e+01 1.000000e+01 -3.500000e+01
      endloop
   endfacet
   facet normal 0.000000e+00 1.000000e+00 -0.000000e+00
      outer loop
         vertex 7.462392e+01 1.000000e+01 -3.833781e+01
         vertex 7.351453e+01 1.000000e+01 -4.150826e+01
         vertex 6.965926e+01 1.000000e+01 -3.758819e+01
      endloop
   endfacet
   facet normal 0.000000e+00 1.000000e+00 -0.000000e+00
      outer loop
         vertex 7.351453e+01 1.000000e+01 -4.150826e+01
         vertex 7.172747e+01 1.000000e+01 -4.435235e+01
         vertex 6.866026e+01 1.000000e+01 -4.000000e+01
      endloop
   endfacet
   facet normal 0.000000e+00 1.000000e+00 -0.000000e+00
      outer loop
         vertex 7.172747e+01 1.000000e+01 -4.435235e+01
         vertex 6.935235e+01 1.000000e+01 -4.672747e+01
         vertex 6.707107e+01 1.000000e+01 -4.207107e+01
      endloop
   endfacet
   facet normal 0.000000e+00 1.000000e+00 -0.000000e+00
      outer loop
         vertex 6.935235e+01 1.000000e+01 -4.672747e+01
         vertex 6.650826e+01 1.000000e+01 -4.851453e+01
         vertex 6.500000e+01 1.000000e+01 -4.366026e+01
      endloop
   endfacet
   facet normal 0.000000e+00 1.000000e+00 -0.000000e+00
      outer loop
         vertex 6.650826e+01 1.000000e+01 -4.851453e+01
         vertex 6.333781e+01 1.000000e+01 -4.962392e+01
         vertex 6.258819e+01 1.000000e+01 -4.465926e+01
      endloop
   endfacet
   facet normal 0.000000e+00 1.000000e+00 0.000000e+00
      outer loop
         vertex 6.333781e+01 1.000000e+01 -4.962392e+01
         vertex 6.000000e+01 1.000000e+01 -5.000000e+01
         vertex 6.000000e+01 1.000000e+01 -4.500000e+01
      endloop
   endfacet
   facet normal 0.000000e+00 1.000000e+00 0.000000e+00
      outer loop
         vertex 6.000000e+01 1.000000e+01 -5.000000e+01
         vertex -6.000000e+01 1.000000e+01 -5.000000e+01
         vertex -6.000000e+01 1.000000e+01 -4.500000e+01
      endloop
   endfacet
   facet normal -0.000000e+00 1.000000e+00 0.000000e+00
      outer loop
         vertex -6.000000e+01 1.000000e+01 -5.000000e+01
         vertex -6.333781e+01 1.000000e+01 -4.962392e+01
         vertex -6.000000e+01 1.000000e+01 -4.500000e+01
      endloop
   endfacet
   facet normal -0.000000e+00 1.000000e+00 0.000000e+00
      outer loop
         vertex -6.333781e+01 1.000000e+01 -4.962392e+01
         vertex -6.650826e+01 1.000000e+01 -4.851453e+01
         vertex -6.258819e+01 1.000000e+01 -4.465926e+01
      endloop
   endfacet
   facet normal -0.000000e+00 1.000000e+00 0.000000e+00
      outer loop
         vertex -6.650826e+01 1.000000e+01 -4.851453e+01
         vertex -6.935235e+01 1.000000e+01 -4.672747e+01
         vertex -6.500000e+01 1.000000e+01 -4.366026e+01
      endloop
   endfacet
   facet normal -0.000000e+00 1.000000e+00 0.000000e+00
      outer loop
         vertex -6.935235e+01 1.000000e+01 -4.672747e+01
         vertex -7.172747e+01 1.000000e+01 -4.435235e+01
         vertex -6.707107e+01 1.000000e+01 -4.207107e+01
      endloop
   endfacet
   facet normal -0.000000e+00 1.000000e+00 0.000000e+00
      outer loop
         vertex -7.172747e+01 1.000000e+01 -4.435235e+01
         vertex -7.351453e+01 1.000000e+01 -4.150826e+01
         vertex -6.866026e+01 1.000000e+01 -4.000000e+01
      endloop
   endfacet
   facet normal -0.000000e+00 1.000000e+00 0.000000e+00
      outer loop
         vertex -7.351453e+01 1.000000e+01 -4.150826e+01
         vertex -7.462392e+01 1.000000e+01 -3.833781e+01
         vertex -6.965926e+01 1.000000e+01 -3.758819e+01
      endloop
   endfacet
   facet normal -0.000000e+00 1.000000e+00 0.000000e+00
      outer loop
         vertex -7.462392e+01 1.000000e+01 -3.833781e+01
         vertex -7.500000e+01 1.000000e+01 -3.500000e+01
         vertex -7.000000e+01 1.000000e+01 -3.500000e+01
      endloop
   endfacet
   facet normal -0.000000e+00 1.000000e+00 0.000000e+00
      outer loop
         vertex -7.500000e+01 1.000000e+01 -3.500000e+01
         vertex -7.500000e+01 1.000000e+01 3.500000e+01
         vertex -7.000000e+01 1.000000e+01 3.500000e+01
      endloop
   endfacet
   facet normal 0.000000e+00 1.000000e+00 0.000000e+00
      outer loop
         vertex -7.500000e+01 1.000000e+01 3.500000e+01
         vertex -7.462392e+01 1.000000e+01 3.833781e+01
         vertex -7.000000e+01 1.000000e+01 3.500000e+01
      endloop
   endfacet
   facet normal 0.000000e+00 1.000000e+00 0.000000e+00
      outer loop
         vertex -7.462392e+01 1.000000e+01 3.833781e+01
         vertex -7.351453e+01 1.000000e+01 4.150826e+01
         vertex -6.965926e+01 1.000000e+01 3.758819e+01
      endloop
   endfacet
   facet normal 0.000000e+00 1.000000e+00 0.000000e+00
      outer loop
         vertex -7.351453e+01 1.000000e+01 4.150826e+01
         vertex -7.172747e+01 1.000000e+01 4.435235e+01
         vertex -6.866026e+01 1.000000e+01 4.000000e+01
      endloop
   endfacet
   facet normal 0.000000e+00 1.000000e+00 0.000000e+00
      outer loop
         vertex -7.172747e+01 1.000000e+01 4.435235e+01
         vertex -6.935235e+01 1.000000e+01 4.672747e+01
         vertex -6.707107e+01 1.000000e+01 4.207107e+01
      endloop
   endfacet
   facet normal 0.000000e+00 1.000000e+00 0.000000e+00
      outer loop
         vertex -6.935235e+01 1.000000e+01 4.672747e+01
         vertex -6.650826e+01 1.000000e+01 4.851453e+01
         vertex -6.500000e+01 1.000000e+01 4.366026e+01
      endloop
   endfacet
   facet normal 0.000000e+00 1.000000e+00 0.000000e+00
      outer loop
         vertex -6.650826e+01 1.000000e+01 4.851453e+01
         vertex -6.333781e+01 1.000000e+01 4.962392e+01
         vertex -6.258819e+01 1.000000e+01 4.465926e+01
      endloop
   endfacet
   facet normal 0.000000e+00 1.000000e+00 0.000000e+00
      outer loop
         vertex -6.333781e+01 1.000000e+01 4.962392e+01
         vertex -6.000000e+01 1.000000e+01 5.000000e+01
         vertex -6.000000e+01 1.000000e+01 4.500000e+01
      endloop
   endfacet
   facet normal -0.000000e+00 1.000000e+00 0.000000e+00
      outer loop
         vertex 7.000000e+01 1.000000e+01 -3.500000e+01
         vertex 7.000000e+01 1.000000e+01 3.500000e+01
         vertex 7.500000e+01 1.000000e+01 3.500000e+01
      endloop
   endfacet
   facet normal -0.000000e+00 1.000000e+00 0.000000e+00
      outer loop
         vertex 7.000000e+01 1.000000e+01 3.500000e+01
         vertex 6.965926e+01 1.000000e+01 3.758819e+01
         vertex 7.462392e+01 1.000000e+01 3.833781e+01
      endloop
   endfacet
   facet normal -0.000000e+00 1.000000e+00 0.000000e+00
      outer loop
         vertex 6.965926e+01 1.000000e+01 3.758819e+01
         vertex 6.866026e+01 1.000000e+01 4.000000e+01
         vertex 7.351453e+01 1.000000e+01 4.150826e+01
      endloop
   endfacet
   facet normal -0.000000e+00 1.000000e+00 0.000000e+00
      outer loop
         vertex 6.866026e+01 1.000000e+01 4.000000e+01
         vertex 6.707107e+01 1.000000e+01 4.207107e+01
         vertex 7.172747e+01 1.000000e+01 4.435235e+01
      endloop
   endfacet
   facet normal -0.000000e+00 1.000000e+00 0.000000e+00
      outer loop
         vertex 6.707107e+01 1.000000e+01 4.207107e+01
         vertex 6.500000e+01 1.000000e+01 4.366026e+01
         vertex 6.935235e+01 1.000000e+01 4.672747e+01
      endloop
   endfacet
   facet normal -0.000000e+00 1.000000e+00 0.000000e+00
      outer loop
         vertex 6.500000e+01 1.000000e+01 4.366026e+01
         vertex 6.258819e+01 1.000000e+01 4.465926e+01
         vertex 6.650826e+01 1.000000e+01 4.851453e+01
      endloop
   endfacet
   facet normal -0.000000e+00 1.000000e+00 0.000000e+00
      outer loop
         vertex 6.258819e+01 1.000000e+01 4.465926e+01
         vertex 6.000000e+01 1.000000e+01 4.500000e+01
         vertex 6.333781e+01 1.000000e+01 4.962392e+01
      endloop
   endfacet
   facet normal 0.000000e+00 1.000000e+00 0.000000e+00
      outer loop
         vertex 6.000000e+01 1.000000e+01 4.500000e+01
         vertex -6.000000e+01 1.000000e+01 4.500000e+01
         vertex -6.000000e+01 1.000000e+01 5.000000e+01
      endloop
   endfacet
   facet normal 0.000000e+00 1.000000e+00 -0.000000e+00
      outer loop
         vertex -6.000000e+01 1.000000e+01 4.500000e+01
         vertex -6.258819e+01 1.000000e+01 4.465926e+01
         vertex -6.333781e+01 1.000000e+01 4.962392e+01
      endloop
   endfacet
   facet normal 0.000000e+00 1.000000e+00 -0.000000e+00
      outer loop
         vertex -6.258819e+01 1.000000e+01 4.465926e+01
         vertex -6.500000e+01 1.000000e+01 4.366026e+01
         vertex -6.650826e+01 1.000000e+01 4.851453e+01
      endloop
   endfacet
   facet normal 0.000000e+00 1.000000e+00 -0.000000e+00
      outer loop
         vertex -6.500000e+01 1.000000e+01 4.366026e+01
         vertex -6.707107e+01 1.000000e+01 4.207107e+01
         vertex -6.935235e+01 1.000000e+01 4.672747e+01
      endloop
   endfacet
   facet normal 0.000000e+00 1.000000e+00 -0.000000e+00
      outer loop
         vertex -6.707107e+01 1.000000e+01 4.207107e+01
         vertex -6.866026e+01 1.000000e+01 4.000000e+01
         vertex -7.172747e+01 1.000000e+01 4.435235e+01
      endloop
   endfacet
   facet normal 0.000000e+00 1.000000e+00 -0.000000e+00
      outer loop
         vertex -6.866026e+01 1.000000e+01 4.000000e+01
         vertex -6.965926e+01 1.000000e+01 3.758819e+01
         vertex -7.351453e+01 1.000000e+01 4.150826e+01
      endloop
   endfacet
   facet normal 0.000000e+00 1.000000e+00 -0.000000e+00
      outer loop
         vertex -6.965926e+01 1.000000e+01 3.758819e+01
         vertex -7.000000e+01 1.000000e+01 3.500000e+01
         vertex -7.462392e+01 1.000000e+01 3.833781e+01
      endloop
   endfacet
   facet normal 0.000000e+00 1.000000e+00 -0.000000e+00
      outer loop
         vertex -7.000000e+01 1.000000e+01 3.500000e+01
         vertex -7.000000e+01 1.000000e+01 -3.500000e+01
         vertex -7.500000e+01 1.000000e+01 -3.500000e+01
      endloop
   endfacet
   facet normal 0.000000e+00 1.000000e+00 0.000000e+00
      outer loop
         vertex -7.000000e+01 1.000000e+01 -3.500000e+01
         vertex -6.965926e+01 1.000000e+01 -3.758819e+01
         vertex -7.462392e+01 1.000000e+01 -3.833781e+01
      endloop
   endfacet
   facet normal 0.000000e+00 1.000000e+00 0.000000e+00
      outer loop
         vertex -6.965926e+01 1.000000e+01 -3.758819e+01
         vertex -6.866026e+01 1.000000e+01 -4.000000e+01
         vertex -7.351453e+01 1.000000e+01 -4.150826e+01
      endloop
   endfacet
   facet normal 0.000000e+00 1.000000e+00 0.000000e+00
      outer loop
         vertex -6.866026e+01 1.000000e+01 -4.000000e+01
         vertex -6.707107e+01 1.000000e+01 -4.207107e+01
         vertex -7.172747e+01 1.000000e+01 -4.435235e+01
      endloop
   endfacet
   facet normal 0.000000e+00 1.000000e+00 0.000000e+00
      outer loop
         vertex -6.707107e+01 1.000000e+01 -4.207107e+01
         vertex -6.500000e+01 1.000000e+01 -4.366026e+01
         vertex -6.935235e+01 1.000000e+01 -4.672747e+01
      endloop
   endfacet
   facet normal 0.000000e+00 1.000000e+00 0.000000e+00
      outer loop
         vertex -6.500000e+01 1.000000e+01 -4.366026e+01
         vertex -6.258819e+01 1.000000e+01 -4.465926e+01
         vertex -6.650826e+01 1.000000e+01 -4.851453e+01
      endloop
   endfacet
   facet normal 0.000000e+00 1.000000e+00 0.000000e+00
      outer loop
         vertex -6.258819e+01 1.000000e+01 -4.465926e+01
         vertex -6.000000e+01 1.000000e+01 -4.500000e+01
         vertex -6.333781e+01 1.000000e+01 -4.962392e+01
      endloop
   endfacet
   facet normal 0.000000e+00 1.000000e+00 0.000000e+00
      outer loop
         vertex -6.000000e+01 1.000000e+01 -4.500000e+01
         vertex 6.000000e+01 1.000000e+01 -4.500000e+01
         vertex 6.000000e+01 1.000000e+01 -5.000000e+01
      endloop
   endfacet
   facet normal 0.000000e+00 1.000000e+00 0.000000e+00
      outer loop
         vertex 6.000000e+01 1.000000e+01 -4.500000e+01
         vertex 6.258819e+01 1.000000e+01 -4.465926e+01
         vertex 6.333781e+01 1.000000e+01 -4.962392e+01
      endloop
   endfacet
   facet normal 0.000000e+00 1.000000e+00 0.000000e+00
      outer loop
         vertex 6.258819e+01 1.000000e+01 -4.465926e+01
         vertex 6.500000e+01 1.000000e+01 -4.366026e+01
         vertex 6.650826e+01 1.000000e+01 -4.851453e+01
      endloop
   endfacet
   facet normal 0.000000e+00 1.000000e+00 0.000000e+00
      outer loop
         vertex 6.500000e+01 1.000000e+01 -4.366026e+01
         vertex 6.707107e+01 1.000000e+01 -4.207107e+01
         vertex 6.935235e+01 1.000000e+01 -4.672747e+01
      endloop
   endfacet
   facet normal 0.000000e+00 1.000000e+00 0.000000e+00
      outer loop
         vertex 6.707107e+01 1.000000e+01 -4.207107e+01
         vertex 6.866026e+01 1.000000e+01 -4.000000e+01
         vertex 7.172747e+01 1.000000e+01 -4.435235e+01
      endloop
   endfacet
   facet normal 0.000000e+00 1.000000e+00 0.000000e+00
      outer loop
         vertex 6.866026e+01 1.000000e+01 -4.000000e+01
         vertex 6.965926e+01 1.000000e+01 -3.758819e+01
         vertex 7.351453e+01 1.000000e+01 -4.150826e+01
      endloop
   endfacet
   facet normal 0.000000e+00 1.000000e+00 0.000000e+00
      outer loop
         vertex 6.965926e+01 1.000000e+01 -3.758819e+01
         vertex 7.000000e+01 1.000000e+01 -3.500000e+01
         vertex 7.462392e+01 1.000000e+01 -3.833781e+01
      endloop
   endfacet
   facet normal -1.305255e-01 0.000000e+00 -9.914449e-01
      outer loop
         vertex 6.258819e+01 1.000000e+01 4.465926e+01
         vertex 6.258819e+01 5.000000e+00 4.465926e+01
         vertex 6.000000e+01 5.000000e+00 4.500000e+01
      endloop
   endfacet
   facet normal -1.305255e-01 0.000000e+00 -9.914449e-01
      outer loop
         vertex 6.000000e+01 1.000000e+01 4.500000e+01
         vertex 6.258819e+01 1.000000e+01 4.465926e+01
         vertex 6.000000e+01 5.000000e+00 4.500000e+01
      endloop
   endfacet
   facet normal -3.826837e-01 0.000000e+00 -9.238794e-01
      outer loop
         vertex 6.500000e+01 1.000000e+01 4.366026e+01
         vertex 6.500000e+01 5.000000e+00 4.366026e+01
         vertex 6.258819e+01 5.000000e+00 4.465926e+01
      endloop
   endfacet
   facet normal -3.826837e-01 0.000000e+00 -9.238794e-01
      outer loop
         vertex 6.258819e+01 1.000000e+01 4.465926e+01
         vertex 6.500000e+01 1.000000e+01 4.366026e+01
         vertex 6.258819e+01 5.000000e+00 4.465926e+01
      endloop
   endfacet
   facet normal -6.087618e-01 0.000000e+00 -7.933531e-01
      outer loop
         vertex 6.707107e+01 1.000000e+01 4.207107e+01
         vertex 6.707107e+01 5.000000e+00 4.207107e+01
         vertex 6.500000e+01 5.000000e+00 4.366026e+01
      endloop
   endfacet
   facet normal -6.087618e-01 0.000000e+00 -7.933531e-01
      outer loop
         vertex 6.500000e+01 1.000000e+01 4.366026e+01
         vertex 6.707107e+01 1.000000e+01 4.207107e+01
         vertex 6.500000e+01 5.000000e+00 4.366026e+01
      endloop
   endfacet
   facet normal -7.933531e-01 0.000000e+00 -6.087618e-01
      outer loop
         vertex 6.866026e+01 1.000000e+01 4.000000e+01
         vertex 6.866026e+01 5.000000e+00 4.000000e+01
         vertex 6.707107e+01 5.000000e+00 4.207107e+01
      endloop
   endfacet
   facet normal -7.933531e-01 0.000000e+00 -6.087618e-01
      outer loop
         vertex 6.707107e+01 1.000000e+01 4.207107e+01
         vertex 6.866026e+01 1.000000e+01 4.000000e+01
         vertex 6.707107e+01 5.000000e+00 4.207107e+01
      endloop
   endfacet
   facet normal -9.238799e-01 0.000000e+00 -3.826824e-01
      outer loop
         vertex 6.965926e+01 1.000000e+01 3.758819e+01
         vertex 6.965926e+01 5.000000e+00 3.758819e+01
         vertex 6.866026e+01 5.000000e+00 4.000000e+01
      endloop
   endfacet
   facet normal -9.238799e-01 0.000000e+00 -3.826824e-01
      outer loop
         vertex 6.866026e+01 1.000000e+01 4.000000e+01
         vertex 6.965926e+01 1.000000e+01 3.758819e+01
         vertex 6.866026e+01 5.000000e+00 4.000000e+01
      endloop
   endfacet
   facet normal -9.914448e-01 0.000000e+00 -1.305270e-01
      outer loop
         vertex 7.000000e+01 1.000000e+01 3.500000e+01
         vertex 7.000000e+01 5.000000e+00 3.500000e+01
         vertex 6.965926e+01 5.000000e+00 3.758819e+01
      endloop
   endfacet
   facet normal -9.914448e-01 0.000000e+00 -1.305270e-01
      outer loop
         vertex 6.965926e+01 1.000000e+01 3.758819e+01
         vertex 7.000000e+01 1.000000e+01 3.500000e+01
         vertex 6.965926e+01 5.000000e+00 3.758819e+01
      endloop
   endfacet
   facet normal -1.000000e+00 0.000000e+00 0.000000e+00
      outer loop
         vertex 7.000000e+01 5.000000e+00 -3.500000e+01
         vertex 7.000000e+01 5.000000e+00 3.500000e+01
         vertex 7.000000e+01 1.000000e+01 3.500000e+01
      endloop
   endfacet
   facet normal -1.000000e+00 0.000000e+00 0.000000e+00
      outer loop
         vertex 7.000000e+01 1.000000e+01 3.500000e+01
         vertex 7.000000e+01 1.000000e+01 -3.500000e+01
         vertex 7.000000e+01 5.000000e+00 -3.500000e+01
      endloop
   endfacet
   facet normal -9.914448e-01 0.000000e+00 1.305270e-01
      outer loop
         vertex 6.965926e+01 1.000000e+01 -3.758819e+01
         vertex 6.965926e+01 5.000000e+00 -3.758819e+01
         vertex 7.000000e+01 5.000000e+00 -3.500000e+01
      endloop
   endfacet
   facet normal -9.914448e-01 0.000000e+00 1.305270e-01
      outer loop
         vertex 7.000000e+01 1.000000e+01 -3.500000e+01
         vertex 6.965926e+01 1.000000e+01 -3.758819e+01
         vertex 7.000000e+01 5.000000e+00 -3.500000e+01
      endloop
   endfacet
   facet normal -9.238799e-01 0.000000e+00 3.826824e-01
      outer loop
         vertex 6.866026e+01 1.000000e+01 -4.000000e+01
         vertex 6.866026e+01 5.000000e+00 -4.000000e+01
         vertex 6.965926e+01 5.000000e+00 -3.758819e+01
      endloop
   endfacet
   facet normal -9.238799e-01 0.000000e+00 3.826824e-01
      outer loop
         vertex 6.965926e+01 1.000000e+01 -3.758819e+01
         vertex 6.866026e+01 1.000000e+01 -4.000000e+01
         vertex 6.965926e+01 5.000000e+00 -3.758819e+01
      endloop
   endfacet
   facet normal -7.933531e-01 0.000000e+00 6.087618e-01
      outer loop
         vertex 6.707107e+01 1.000000e+01 -4.207107e+01
         vertex 6.707107e+01 5.000000e+00 -4.207107e+01
         vertex 6.866026e+01 5.000000e+00 -4.000000e+01
      endloop
   endfacet
   facet normal -7.933531e-01 0.000000e+00 6.087618e-01
      outer loop
         vertex 6.866026e+01 1.000000e+01 -4.000000e+01
         vertex 6.707107e+01 1.000000e+01 -4.207107e+01
         vertex 6.866026e+01 5.000000e+00 -4.000000e+01
      endloop
   endfacet
   facet normal -6.087618e-01 0.000000e+00 7.933531e-01
      outer loop
         vertex 6.500000e+01 1.000000e+01 -4.366026e+01
         vertex 6.500000e+01 5.000000e+00 -4.366026e+01
         vertex 6.707107e+01 5.000000e+00 -4.207107e+01
      endloop
   endfacet
   facet normal -6.087618e-01 0.000000e+00 7.933531e-01
      outer loop
         vertex 6.707107e+01 1.000000e+01 -4.207107e+01
         vertex 6.500000e+01 1.000000e+01 -4.366026e+01
         vertex 6.707107e+01 5.000000e+00 -4.207107e+01
      endloop
   endfacet
   facet normal -3.826837e-01 0.000000e+00 9.238794e-01
      outer loop
         vertex 6.258819e+01 1.000000e+01 -4.465926e+01
         vertex 6.258819e+01 5.000000e+00 -4.465926e+01
         vertex 6.500000e+01 5.000000e+00 -4.366026e+01
      endloop
   endfacet
   facet normal -3.826837e-01 0.000000e+00 9.238794e-01
      outer loop
         vertex 6.500000e+01 1.000000e+01 -4.366026e+01
         vertex 6.258819e+01 1.000000e+01 -4.465926e+01
         vertex 6.500000e+01 5.000000e+00 -4.366026e+01
      endloop
   endfacet
   facet normal -1.305255e-01 0.000000e+00 9.914449e-01
      outer loop
         vertex 6.000000e+01 1.000000e+01 -4.500000e+01
         vertex 6.000000e+01 5.000000e+00 -4.500000e+01
         vertex 6.258819e+01 5.000000e+00 -4.465926e+01
      endloop
   endfacet
   facet normal -1.305255e-01 0.000000e+00 9.914449e-01
      outer loop
         vertex 6.258819e+01 1.000000e+01 -4.465926e+01
         vertex 6.000000e+01 1.000000e+01 -4.500000e+01
         vertex 6.258819e+01 5.000000e+00 -4.465926e+01
      endloop
   endfacet
   facet normal 0.000000e+00 -0.000000e+00 1.000000e+00
      outer loop
         vertex -6.000000e+01 5.000000e+00 -4.500000e+01
         vertex 6.000000e+01 5.000000e+00 -4.500000e+01
         vertex 6.000000e+01 1.000000e+01 -4.500000e+01
      endloop
   endfacet
   facet normal -0.000000e+00 0.000000e+00 1.000000e+00
      outer loop
         vertex 6.000000e+01 1.000000e+01 -4.500000e+01
         vertex -6.000000e+01 1.000000e+01 -4.500000e+01
         vertex -6.000000e+01 5.000000e+00 -4.500000e+01
      endloop
   endfacet
   facet normal 1.305255e-01 -0.000000e+00 9.914449e-01
      outer loop
         vertex -6.258819e+01 1.000000e+01 -4.465926e+01
         vertex -6.258819e+01 5.000000e+00 -4.465926e+01
         vertex -6.000000e+01 5.000000e+00 -4.500000e+01
      endloop
   endfacet
   facet normal 1.305255e-01 0.000000e+00 9.914449e-01
      outer loop
         vertex -6.000000e+01 1.000000e+01 -4.500000e+01
         vertex -6.258819e+01 1.000000e+01 -4.465926e+01
         vertex -6.000000e+01 5.000000e+00 -4.500000e+01
      endloop
   endfacet
   facet normal 3.826837e-01 -0.000000e+00 9.238794e-01
      outer loop
         vertex -6.500000e+01 1.000000e+01 -4.366026e+01
         vertex -6.500000e+01 5.000000e+00 -4.366026e+01
         vertex -6.258819e+01 5.000000e+00 -4.465926e+01
      endloop
   endfacet
   facet normal 3.826837e-01 0.000000e+00 9.238794e-01
      outer loop
         vertex -6.258819e+01 1.000000e+01 -4.465926e+01
         vertex -6.500000e+01 1.000000e+01 -4.366026e+01
         vertex -6.258819e+01 5.000000e+00 -4.465926e+01
      endloop
   endfacet
   facet normal 6.087618e-01 -0.000000e+00 7.933531e-01
      outer loop
         vertex -6.707107e+01 1.000000e+01 -4.207107e+01
         vertex -6.707107e+01 5.000000e+00 -4.207107e+01
         vertex -6.500000e+01 5.000000e+00 -4.366026e+01
      endloop
   endfacet
   facet normal 6.087618e-01 0.000000e+00 7.933531e-01
      outer loop
         vertex -6.500000e+01 1.000000e+01 -4.366026e+01
         vertex -6.707107e+01 1.000000e+01 -4.207107e+01
         vertex -6.500000e+01 5.000000e+00 -4.366026e+01
      endloop
   endfacet
   facet normal 7.933531e-01 -0.000000e+00 6.087618e-01
      outer loop
         vertex -6.866026e+01 1.000000e+01 -4.000000e+01
         vertex -6.866026e+01 5.000000e+00 -4.000000e+01
         vertex -6.707107e+01 5.000000e+00 -4.207107e+01
      endloop
   endfacet
   facet normal 7.933531e-01 0.000000e+00 6.087618e-01
      outer loop
         vertex -6.707107e+01 1.000000e+01 -4.207107e+01
         vertex -6.866026e+01 1.000000e+01 -4.000000e+01
         vertex -6.707107e+01 5.000000e+00 -4.207107e+01
      endloop
   endfacet
   facet normal 9.238799e-01 -0.000000e+00 3.826824e-01
      outer loop
         vertex -6.965926e+01 1.000000e+01 -3.758819e+01
         vertex -6.965926e+01 5.000000e+00 -3.758819e+01
         vertex -6.866026e+01 5.000000e+00 -4.000000e+01
      endloop
   endfacet
   facet normal 9.238799e-01 0.000000e+00 3.826824e-01
      outer loop
         vertex -6.866026e+01 1.000000e+01 -4.000000e+01
         vertex -6.965926e+01 1.000000e+01 -3.758819e+01
         vertex -6.866026e+01 5.000000e+00 -4.000000e+01
      endloop
   endfacet
   facet normal 9.914448e-01 -0.000000e+00 1.305270e-01
      outer loop
         vertex -7.000000e+01 1.000000e+01 -3.500000e+01
         vertex -7.000000e+01 5.000000e+00 -3.500000e+01
         vertex -6.965926e+01 5.000000e+00 -3.758819e+01
      endloop
   endfacet
   facet normal 9.914448e-01 0.000000e+00 1.305270e-01
      outer loop
         vertex -6.965926e+01 1.000000e+01 -3.758819e+01
         vertex -7.000000e+01 1.000000e+01 -3.500000e+01
         vertex -6.965926e+01 5.000000e+00 -3.758819e+01
      endloop
   endfacet
   facet normal 1.000000e+00 0.000000e+00 0.000000e+00
      outer loop
         vertex -7.000000e+01 5.000000e+00 3.500000e+01
         vertex -7.000000e+01 5.000000e+00 -3.500000e+01
         vertex -7.000000e+01 1.000000e+01 -3.500000e+01
      endloop
   endfacet
   facet normal 1.000000e+00 0.000000e+00 0.000000e+00
      outer loop
         vertex -7.000000e+01 1.000000e+01 -3.500000e+01
         vertex -7.000000e+01 1.000000e+01 3.500000e+01
         vertex -7.000000e+01 5.000000e+00 3.500000e+01
      endloop
   endfacet
   facet normal 9.914448e-01 0.000000e+00 -1.305270e-01
      outer loop
         vertex -6.965926e+01 1.000000e+01 3.758819e+01
         vertex -6.965926e+01 5.000000e+00 3.758819e+01
         vertex -7.000000e+01 5.000000e+00 3.500000e+01
      endloop
   endfacet
   facet normal 9.914448e-01 0.000000e+00 -1.305270e-01
      outer loop
         vertex -7.000000e+01 1.000000e+01 3.500000e+01
         vertex -6.965926e+01 1.000000e+01 3.758819e+01
         vertex -7.000000e+01 5.000000e+00 3.500000e+01
      endloop
   endfacet
   facet normal 9.238799e-01 0.000000e+00 -3.826824e-01
      outer loop
         vertex -6.866026e+01 1.000000e+01 4.000000e+01
         vertex -6.866026e+01 5.000000e+00 4.000000e+01
         vertex -6.965926e+01 5.000000e+00 3.758819e+01
      endloop
   endfacet
   facet normal 9.238799e-01 0.000000e+00 -3.826824e-01
      outer loop
         vertex -6.965926e+01 1.000000e+01 3.758819e+01
         vertex -6.866026e+01 1.000000e+01 4.000000e+01
         vertex -6.965926e+01 5.000000e+00 3.758819e+01
      endloop
   endfacet
   facet normal 7.933531e-01 0.000000e+00 -6.087618e-01
      outer loop
         vertex -6.707107e+01 1.000000e+01 4.207107e+01
         vertex -6.707107e+01 5.000000e+00 4.207107e+01
         vertex -6.866026e+01 5.000000e+00 4.000000e+01
      endloop
   endfacet
   facet normal 7.933531e-01 0.000000e+00 -6.087618e-01
      outer loop
         vertex -6.866026e+01 1.000000e+01 4.000000e+01
         vertex -6.707107e+01 1.000000e+01 4.207107e+01
         vertex -6.866026e+01 5.000000e+00 4.000000e+01
      endloop
   endfacet
   facet normal 6.087618e-01 0.000000e+00 -7.933531e-01
      outer loop
         vertex -6.500000e+01 1.000000e+01 4.366026e+01
         vertex -6.500000e+01 5.000000e+00 4.366026e+01
         vertex -6.707107e+01 5.000000e+00 4.207107e+01
      endloop
   endfacet
   facet normal 6.087618e-01 0.000000e+00 -7.933531e-01
      outer loop
         vertex -6.707107e+01 1.000000e+01 4.207107e+01
         vertex -6.500000e+01 1.000000e+01 4.366026e+01
         vertex -6.707107e+01 5.000000e+00 4.207107e+01
      endloop
   endfacet
   facet normal 3.826837e-01 0.000000e+00 -9.238794e-01
      outer loop
         vertex -6.258819e+01 1.000000e+01 4.465926e+01
         vertex -6.258819e+01 5.000000e+00 4.465926e+01
         vertex -6.500000e+01 5.000000e+00 4.366026e+01
      endloop
   endfacet
   facet normal 3.826837e-01 0.000000e+00 -9.238794e-01
      outer loop
         vertex -6.500000e+01 1.000000e+01 4.366026e+01
         vertex -6.258819e+01 1.000000e+01 4.465926e+01
         vertex -6.500000e+01 5.000000e+00 4.366026e+01
      endloop
   endfacet
   facet normal 1.305255e-01 0.000000e+00 -9.914449e-01
      outer loop
         vertex -6.000000e+01 1.000000e+01 4.500000e+01
         vertex -6.000000e+01 5.000000e+00 4.500000e+01
         vertex -6.258819e+01 5.000000e+00 4.465926e+01
      endloop
   endfacet
   facet normal 1.305255e-01 0.000000e+00 -9.914449e-01
      outer loop
         vertex -6.258819e+01 1.000000e+01 4.465926e+01
         vertex -6.000000e+01 1.000000e+01 4.500000e+01
         vertex -6.258819e+01 5.000000e+00 4.465926e+01
      endloop
   endfacet
   facet normal 0.000000e+00 0.000000e+00 -1.000000e+00
      outer loop
         vertex 6.000000e+01 5.000000e+00 4.500000e+01
         vertex -6.000000e+01 5.000000e+00 4.500000e+01
         vertex -6.000000e+01 1.000000e+01 4.500000e+01
      endloop
   endfacet
   facet normal -0.000000e+00 -0.000000e+00 -1.000000e+00
      outer loop
         vertex -6.000000e+01 1.000000e+01 4.500000e+01
         vertex 6.000000e+01 1.000000e+01 4.500000e+01
         vertex 6.000000e+01 5.000000e+00 4.500000e+01
      endloop
   endfacet
endsolid
