solid 
   facet normal -0.000000e+00 0.000000e+00 1.000000e+00
      outer loop
         vertex 5.275000e+01 5.000000e+00 -2.125000e+01
         vertex -4.275000e+01 5.000000e+00 -2.125000e+01
         vertex -4.275000e+01 1.285879e-15 -2.125000e+01
      endloop
   endfacet
   facet normal 0.000000e+00 -0.000000e+00 1.000000e+00
      outer loop
         vertex -4.275000e+01 1.285879e-15 -2.125000e+01
         vertex 5.275000e+01 4.130088e-16 -2.125000e+01
         vertex 5.275000e+01 5.000000e+00 -2.125000e+01
      endloop
   endfacet
   facet normal -0.000000e+00 -0.000000e+00 -1.000000e+00
      outer loop
         vertex -4.275000e+01 5.000000e+00 2.125000e+01
         vertex 5.275000e+01 5.000000e+00 2.125000e+01
         vertex 5.275000e+01 -1.301187e-15 2.125000e+01
      endloop
   endfacet
   facet normal 0.000000e+00 0.000000e+00 -1.000000e+00
      outer loop
         vertex 5.275000e+01 -1.301187e-15 2.125000e+01
         vertex -4.275000e+01 -4.130088e-16 2.125000e+01
         vertex -4.275000e+01 5.000000e+00 2.125000e+01
      endloop
   endfacet
   facet normal 7.441432e-18 -1.000000e+00 -4.025459e-17
      outer loop
         vertex -5.800000e+01 2.449294e-16 -4.500000e+00
         vertex -7.000000e+01 -1.434424e-15 3.500000e+01
         vertex -7.000000e+01 1.383397e-15 -3.500000e+01
      endloop
   endfacet
   facet normal 4.079059e-17 -1.000000e+00 1.042112e-16
      outer loop
         vertex -5.603854e+01 -1.670056e-15 2.727408e+01
         vertex -6.965926e+01 -1.150806e-15 3.758819e+01
         vertex -7.000000e+01 -1.434424e-15 3.500000e+01
      endloop
   endfacet
   facet normal -4.666800e-17 -1.000000e+00 -1.128575e-17
      outer loop
         vertex -5.603854e+01 -1.670056e-15 2.727408e+01
         vertex -6.866026e+01 -1.224647e-15 4.000000e+01
         vertex -6.965926e+01 -1.150806e-15 3.758819e+01
      endloop
   endfacet
   facet normal -3.730022e-17 -1.000000e+00 -1.994671e-18
      outer loop
         vertex -5.603854e+01 -1.670056e-15 2.727408e+01
         vertex -6.707107e+01 -1.288055e-15 4.207107e+01
         vertex -6.866026e+01 -1.224647e-15 4.000000e+01
      endloop
   endfacet
   facet normal -2.754384e-17 -1.000000e+00 5.279622e-18
      outer loop
         vertex -5.603854e+01 -1.670056e-15 2.727408e+01
         vertex -6.500000e+01 -1.336710e-15 4.366026e+01
         vertex -6.707107e+01 -1.288055e-15 4.207107e+01
      endloop
   endfacet
   facet normal -1.720954e-17 -1.000000e+00 1.093136e-17
      outer loop
         vertex -5.603854e+01 -1.670056e-15 2.727408e+01
         vertex -6.258819e+01 -1.367295e-15 4.465926e+01
         vertex -6.500000e+01 -1.336710e-15 4.366026e+01
      endloop
   endfacet
   facet normal -1.375102e-16 -1.000000e+00 -3.439044e-17
      outer loop
         vertex -5.603854e+01 -1.670056e-15 2.727408e+01
         vertex -6.000000e+01 -1.734916e-15 4.500000e+01
         vertex -6.258819e+01 -1.367295e-15 4.465926e+01
      endloop
   endfacet
   facet normal -0.000000e+00 -1.000000e+00 -5.565926e-17
      outer loop
         vertex -4.275000e+01 -4.130088e-16 2.125000e+01
         vertex 6.000000e+01 -1.734916e-15 4.500000e+01
         vertex -6.000000e+01 -1.734916e-15 4.500000e+01
      endloop
   endfacet
   facet normal 2.023075e-16 -1.000000e+00 4.577971e-16
      outer loop
         vertex 6.500000e+01 -1.336710e-15 4.366026e+01
         vertex 6.258819e+01 -1.367295e-15 4.465926e+01
         vertex 6.000000e+01 -1.734916e-15 4.500000e+01
      endloop
   endfacet
   facet normal -3.200994e-15 -1.000000e+00 -4.202230e-15
      outer loop
         vertex 6.866026e+01 2.328067e-15 4.000000e+01
         vertex 6.707107e+01 -1.288055e-15 4.207107e+01
         vertex 6.500000e+01 -1.336710e-15 4.366026e+01
      endloop
   endfacet
   facet normal -4.786850e-15 -1.000000e+00 -5.403384e-16
      outer loop
         vertex 7.000000e+01 -1.383397e-15 3.500000e+01
         vertex 6.965926e+01 -1.150806e-15 3.758819e+01
         vertex 6.866026e+01 2.328067e-15 4.000000e+01
      endloop
   endfacet
   facet normal 2.732119e-17 -1.000000e+00 -4.025459e-17
      outer loop
         vertex 5.275000e+01 -1.301187e-15 2.125000e+01
         vertex 7.000000e+01 1.434424e-15 -3.500000e+01
         vertex 7.000000e+01 -1.383397e-15 3.500000e+01
      endloop
   endfacet
   facet normal -1.614536e-16 -1.000000e+00 1.308374e-16
      outer loop
         vertex 6.258819e+01 1.367295e-15 -4.465926e+01
         vertex 6.965926e+01 1.150806e-15 -3.758819e+01
         vertex 7.000000e+01 1.434424e-15 -3.500000e+01
      endloop
   endfacet
   facet normal 7.080461e-23 -1.000000e+00 -3.061624e-17
      outer loop
         vertex 6.500000e+01 1.336710e-15 -4.366026e+01
         vertex 6.866026e+01 1.224647e-15 -4.000000e+01
         vertex 6.965926e+01 1.150806e-15 -3.758819e+01
      endloop
   endfacet
   facet normal -2.245677e-23 -1.000000e+00 -3.061614e-17
      outer loop
         vertex 6.500000e+01 1.336710e-15 -4.366026e+01
         vertex 6.707107e+01 1.288055e-15 -4.207107e+01
         vertex 6.866026e+01 1.224647e-15 -4.000000e+01
      endloop
   endfacet
   facet normal 4.950039e-23 -1.000000e+00 -3.061622e-17
      outer loop
         vertex 6.965926e+01 1.150806e-15 -3.758819e+01
         vertex 6.258819e+01 1.367295e-15 -4.465926e+01
         vertex 6.500000e+01 1.336710e-15 -4.366026e+01
      endloop
   endfacet
   facet normal -1.590165e-16 -1.000000e+00 1.289673e-16
      outer loop
         vertex 7.000000e+01 1.434424e-15 -3.500000e+01
         vertex 6.000000e+01 1.734916e-15 -4.500000e+01
         vertex 6.258819e+01 1.367295e-15 -4.465926e+01
      endloop
   endfacet
   facet normal 0.000000e+00 -1.000000e+00 -1.890683e-17
      outer loop
         vertex -4.275000e+01 1.285879e-15 -2.125000e+01
         vertex -6.000000e+01 1.734916e-15 -4.500000e+01
         vertex 6.000000e+01 1.734916e-15 -4.500000e+01
      endloop
   endfacet
   facet normal 1.375102e-16 -1.000000e+00 -3.439044e-17
      outer loop
         vertex -5.603854e+01 1.670056e-15 -2.727408e+01
         vertex -6.258819e+01 1.367295e-15 -4.465926e+01
         vertex -6.000000e+01 1.734916e-15 -4.500000e+01
      endloop
   endfacet
   facet normal 1.720954e-17 -1.000000e+00 1.093136e-17
      outer loop
         vertex -5.603854e+01 1.670056e-15 -2.727408e+01
         vertex -6.500000e+01 1.336710e-15 -4.366026e+01
         vertex -6.258819e+01 1.367295e-15 -4.465926e+01
      endloop
   endfacet
   facet normal 2.754384e-17 -1.000000e+00 5.279622e-18
      outer loop
         vertex -5.603854e+01 1.670056e-15 -2.727408e+01
         vertex -6.707107e+01 1.288055e-15 -4.207107e+01
         vertex -6.500000e+01 1.336710e-15 -4.366026e+01
      endloop
   endfacet
   facet normal 3.730022e-17 -1.000000e+00 -1.994671e-18
      outer loop
         vertex -5.603854e+01 1.670056e-15 -2.727408e+01
         vertex -6.866026e+01 1.224647e-15 -4.000000e+01
         vertex -6.707107e+01 1.288055e-15 -4.207107e+01
      endloop
   endfacet
   facet normal 1.094338e-15 -1.000000e+00 -1.050378e-15
      outer loop
         vertex -5.603854e+01 1.670056e-15 -2.727408e+01
         vertex -6.965926e+01 -2.401907e-15 -3.758819e+01
         vertex -6.866026e+01 1.224647e-15 -4.000000e+01
      endloop
   endfacet
   facet normal -7.352299e-16 -1.000000e+00 1.365733e-15
      outer loop
         vertex -5.603854e+01 1.670056e-15 -2.727408e+01
         vertex -7.000000e+01 1.383397e-15 -3.500000e+01
         vertex -6.965926e+01 -2.401907e-15 -3.758819e+01
      endloop
   endfacet
   facet normal -9.300298e-18 -1.000000e+00 -1.542324e-17
      outer loop
         vertex 6.000000e+01 -1.734916e-15 4.500000e+01
         vertex -4.275000e+01 -4.130088e-16 2.125000e+01
         vertex 5.275000e+01 -1.301187e-15 2.125000e+01
      endloop
   endfacet
   facet normal 4.015006e-17 -1.000000e+00 -3.997383e-17
      outer loop
         vertex -5.200000e+01 2.449294e-16 -4.500000e+00
         vertex -4.275000e+01 1.285879e-15 -2.125000e+01
         vertex -4.275000e+01 -4.130088e-16 2.125000e+01
      endloop
   endfacet
   facet normal -9.140004e-18 -1.000000e+00 -5.844937e-17
      outer loop
         vertex 6.000000e+01 1.734916e-15 -4.500000e+01
         vertex 5.275000e+01 4.130088e-16 -2.125000e+01
         vertex -4.275000e+01 1.285879e-15 -2.125000e+01
      endloop
   endfacet
   facet normal 2.706218e-17 -1.000000e+00 -4.033402e-17
      outer loop
         vertex 7.000000e+01 1.434424e-15 -3.500000e+01
         vertex 5.275000e+01 -1.301187e-15 2.125000e+01
         vertex 5.275000e+01 4.130088e-16 -2.125000e+01
      endloop
   endfacet
   facet normal 9.844107e-17 -1.000000e+00 -6.091332e-17
      outer loop
         vertex -4.275000e+01 -4.130088e-16 2.125000e+01
         vertex -5.200000e+01 -3.337472e-16 5.000000e+00
         vertex -5.200000e+01 2.449294e-16 -4.500000e+00
      endloop
   endfacet
   facet normal 0.000000e+00 -1.000000e+00 -5.965832e-17
      outer loop
         vertex -5.464421e+01 -1.379286e-15 2.252545e+01
         vertex -5.800000e+01 -3.337472e-16 5.000000e+00
         vertex -5.200000e+01 -3.337472e-16 5.000000e+00
      endloop
   endfacet
   facet normal -6.056022e-17 -1.000000e+00 -6.091332e-17
      outer loop
         vertex -7.000000e+01 -1.434424e-15 3.500000e+01
         vertex -5.800000e+01 2.449294e-16 -4.500000e+00
         vertex -5.800000e+01 -3.337472e-16 5.000000e+00
      endloop
   endfacet
   facet normal -0.000000e+00 -1.000000e+00 -6.293084e-17
      outer loop
         vertex -5.464421e+01 1.379286e-15 -2.252545e+01
         vertex -5.200000e+01 2.449294e-16 -4.500000e+00
         vertex -5.800000e+01 2.449294e-16 -4.500000e+00
      endloop
   endfacet
   facet normal -7.410353e-17 -1.000000e+00 -8.299100e-17
      outer loop
         vertex -7.000000e+01 -1.434424e-15 3.500000e+01
         vertex -5.710313e+01 -1.448047e-15 2.364840e+01
         vertex -5.750000e+01 -1.530808e-15 2.500000e+01
      endloop
   endfacet
   facet normal 1.230471e-18 -1.000000e+00 -5.981228e-17
      outer loop
         vertex -5.800000e+01 -3.337472e-16 5.000000e+00
         vertex -5.603854e+01 -1.391561e-15 2.272592e+01
         vertex -5.710313e+01 -1.448047e-15 2.364840e+01
      endloop
   endfacet
   facet normal 2.202756e-19 -1.000000e+00 -5.970049e-17
      outer loop
         vertex -5.800000e+01 -3.337472e-16 5.000000e+00
         vertex -5.464421e+01 -1.379286e-15 2.252545e+01
         vertex -5.603854e+01 -1.391561e-15 2.272592e+01
      endloop
   endfacet
   facet normal -6.724729e-19 -1.000000e+00 -5.975978e-17
      outer loop
         vertex -5.200000e+01 -3.337472e-16 5.000000e+00
         vertex -5.336285e+01 -1.415118e-15 2.311063e+01
         vertex -5.464421e+01 -1.379286e-15 2.252545e+01
      endloop
   endfacet
   facet normal 7.521460e-17 -1.000000e+00 -1.095695e-16
      outer loop
         vertex -4.275000e+01 -4.130088e-16 2.125000e+01
         vertex -5.260127e+01 -1.487681e-15 2.429567e+01
         vertex -5.336285e+01 -1.415118e-15 2.311063e+01
      endloop
   endfacet
   facet normal 9.015873e-17 -1.000000e+00 -6.123248e-17
      outer loop
         vertex -4.275000e+01 -4.130088e-16 2.125000e+01
         vertex -5.260127e+01 -1.573936e-15 2.570433e+01
         vertex -5.260127e+01 -1.487681e-15 2.429567e+01
      endloop
   endfacet
   facet normal 1.270886e-16 -1.000000e+00 2.044227e-17
      outer loop
         vertex -4.275000e+01 -4.130088e-16 2.125000e+01
         vertex -5.336285e+01 -1.646499e-15 2.688937e+01
         vertex -5.260127e+01 -1.573936e-15 2.570433e+01
      endloop
   endfacet
   facet normal 3.090699e-17 -1.000000e+00 6.444694e-18
      outer loop
         vertex -6.000000e+01 -1.734916e-15 4.500000e+01
         vertex -5.464421e+01 -1.682331e-15 2.747455e+01
         vertex -5.336285e+01 -1.646499e-15 2.688937e+01
      endloop
   endfacet
   facet normal -8.020134e-18 -1.000000e+00 -5.451456e-18
      outer loop
         vertex -6.000000e+01 -1.734916e-15 4.500000e+01
         vertex -5.603854e+01 -1.670056e-15 2.727408e+01
         vertex -5.464421e+01 -1.682331e-15 2.747455e+01
      endloop
   endfacet
   facet normal -3.097813e-17 -1.000000e+00 -2.548158e-17
      outer loop
         vertex -7.000000e+01 -1.434424e-15 3.500000e+01
         vertex -5.710313e+01 -1.613570e-15 2.635160e+01
         vertex -5.603854e+01 -1.670056e-15 2.727408e+01
      endloop
   endfacet
   facet normal -4.591187e-17 -1.000000e+00 -4.775142e-17
      outer loop
         vertex -7.000000e+01 -1.434424e-15 3.500000e+01
         vertex -5.750000e+01 -1.530808e-15 2.500000e+01
         vertex -5.710313e+01 -1.613570e-15 2.635160e+01
      endloop
   endfacet
   facet normal 4.921752e-17 -1.000000e+00 -4.678079e-17
      outer loop
         vertex -7.000000e+01 1.383397e-15 -3.500000e+01
         vertex -5.710313e+01 1.613570e-15 -2.635160e+01
         vertex -5.750000e+01 1.530808e-15 -2.500000e+01
      endloop
   endfacet
   facet normal 3.320856e-17 -1.000000e+00 -2.290753e-17
      outer loop
         vertex -7.000000e+01 1.383397e-15 -3.500000e+01
         vertex -5.603854e+01 1.670056e-15 -2.727408e+01
         vertex -5.710313e+01 1.613570e-15 -2.635160e+01
      endloop
   endfacet
   facet normal 8.020134e-18 -1.000000e+00 -5.451456e-18
      outer loop
         vertex -6.000000e+01 1.734916e-15 -4.500000e+01
         vertex -5.464421e+01 1.682331e-15 -2.747455e+01
         vertex -5.603854e+01 1.670056e-15 -2.727408e+01
      endloop
   endfacet
   facet normal -3.090699e-17 -1.000000e+00 6.444694e-18
      outer loop
         vertex -6.000000e+01 1.734916e-15 -4.500000e+01
         vertex -5.336285e+01 1.646499e-15 -2.688937e+01
         vertex -5.464421e+01 1.682331e-15 -2.747455e+01
      endloop
   endfacet
   facet normal -2.190487e-18 -1.000000e+00 -5.982452e-17
      outer loop
         vertex -4.275000e+01 1.285879e-15 -2.125000e+01
         vertex -5.260127e+01 1.573936e-15 -2.570433e+01
         vertex -5.336285e+01 1.646499e-15 -2.688937e+01
      endloop
   endfacet
   facet normal -1.553868e-18 -1.000000e+00 -6.123248e-17
      outer loop
         vertex -4.275000e+01 1.285879e-15 -2.125000e+01
         vertex -5.260127e+01 1.487681e-15 -2.429567e+01
         vertex -5.260127e+01 1.573936e-15 -2.570433e+01
      endloop
   endfacet
   facet normal -1.296365e-18 -1.000000e+00 -6.206538e-17
      outer loop
         vertex -4.275000e+01 1.285879e-15 -2.125000e+01
         vertex -5.336285e+01 1.415118e-15 -2.311063e+01
         vertex -5.260127e+01 1.487681e-15 -2.429567e+01
      endloop
   endfacet
   facet normal -7.269963e-19 -1.000000e+00 -6.282419e-17
      outer loop
         vertex -5.200000e+01 2.449294e-16 -4.500000e+00
         vertex -5.464421e+01 1.379286e-15 -2.252545e+01
         vertex -5.336285e+01 1.415118e-15 -2.311063e+01
      endloop
   endfacet
   facet normal 2.378136e-19 -1.000000e+00 -6.288656e-17
      outer loop
         vertex -5.800000e+01 2.449294e-16 -4.500000e+00
         vertex -5.603854e+01 1.391561e-15 -2.272592e+01
         vertex -5.464421e+01 1.379286e-15 -2.252545e+01
      endloop
   endfacet
   facet normal 1.331426e-18 -1.000000e+00 -6.276887e-17
      outer loop
         vertex -5.800000e+01 2.449294e-16 -4.500000e+00
         vertex -5.710313e+01 1.448047e-15 -2.364840e+01
         vertex -5.603854e+01 1.391561e-15 -2.272592e+01
      endloop
   endfacet
   facet normal 7.943900e-17 -1.000000e+00 -8.455763e-17
      outer loop
         vertex -7.000000e+01 1.383397e-15 -3.500000e+01
         vertex -5.750000e+01 1.530808e-15 -2.500000e+01
         vertex -5.710313e+01 1.448047e-15 -2.364840e+01
      endloop
   endfacet
   facet normal 5.792768e-17 -1.000000e+00 -6.011804e-17
      outer loop
         vertex -5.710313e+01 1.448047e-15 -2.364840e+01
         vertex -5.800000e+01 2.449294e-16 -4.500000e+00
         vertex -7.000000e+01 1.383397e-15 -3.500000e+01
      endloop
   endfacet
   facet normal 1.411116e-16 -1.000000e+00 4.683229e-17
      outer loop
         vertex -5.336285e+01 -1.646499e-15 2.688937e+01
         vertex -4.275000e+01 -4.130088e-16 2.125000e+01
         vertex -6.000000e+01 -1.734916e-15 4.500000e+01
      endloop
   endfacet
   facet normal -2.576850e-16 -1.000000e+00 -1.258920e-15
      outer loop
         vertex 6.866026e+01 2.328067e-15 4.000000e+01
         vertex 6.500000e+01 -1.336710e-15 4.366026e+01
         vertex 6.000000e+01 -1.734916e-15 4.500000e+01
      endloop
   endfacet
   facet normal 1.062009e-15 -1.000000e+00 1.026857e-15
      outer loop
         vertex 6.000000e+01 -1.734916e-15 4.500000e+01
         vertex 7.000000e+01 -1.383397e-15 3.500000e+01
         vertex 6.866026e+01 2.328067e-15 4.000000e+01
      endloop
   endfacet
   facet normal 1.293963e-17 -1.000000e+00 -2.221227e-17
      outer loop
         vertex 6.000000e+01 -1.734916e-15 4.500000e+01
         vertex 5.275000e+01 -1.301187e-15 2.125000e+01
         vertex 7.000000e+01 -1.383397e-15 3.500000e+01
      endloop
   endfacet
   facet normal 1.962061e-17 -1.000000e+00 -4.966981e-17
      outer loop
         vertex 5.275000e+01 4.130088e-16 -2.125000e+01
         vertex 6.000000e+01 1.734916e-15 -4.500000e+01
         vertex 7.000000e+01 1.434424e-15 -3.500000e+01
      endloop
   endfacet
   facet normal -3.897532e-17 -1.000000e+00 9.401562e-18
      outer loop
         vertex -5.336285e+01 1.646499e-15 -2.688937e+01
         vertex -6.000000e+01 1.734916e-15 -4.500000e+01
         vertex -4.275000e+01 1.285879e-15 -2.125000e+01
      endloop
   endfacet
   facet normal -1.169006e-18 -1.000000e+00 -6.279182e-17
      outer loop
         vertex -5.336285e+01 1.415118e-15 -2.311063e+01
         vertex -4.275000e+01 1.285879e-15 -2.125000e+01
         vertex -5.200000e+01 2.449294e-16 -4.500000e+00
      endloop
   endfacet
   facet normal 8.507847e-17 -1.000000e+00 -5.330692e-17
      outer loop
         vertex -5.336285e+01 -1.415118e-15 2.311063e+01
         vertex -5.200000e+01 -3.337472e-16 5.000000e+00
         vertex -4.275000e+01 -4.130088e-16 2.125000e+01
      endloop
   endfacet
   facet normal -5.147110e-17 -1.000000e+00 -5.727768e-17
      outer loop
         vertex -5.710313e+01 -1.448047e-15 2.364840e+01
         vertex -7.000000e+01 -1.434424e-15 3.500000e+01
         vertex -5.800000e+01 -3.337472e-16 5.000000e+00
      endloop
   endfacet
   facet normal 0.000000e+00 1.000000e+00 0.000000e+00
      outer loop
         vertex 6.000000e+01 5.000000e+00 -4.500000e+01
         vertex -6.000000e+01 5.000000e+00 -4.500000e+01
         vertex -4.275000e+01 5.000000e+00 -2.125000e+01
      endloop
   endfacet
   facet normal -0.000000e+00 1.000000e+00 0.000000e+00
      outer loop
         vertex -6.000000e+01 5.000000e+00 -4.500000e+01
         vertex -6.258819e+01 5.000000e+00 -4.465926e+01
         vertex -5.603854e+01 5.000000e+00 -2.727408e+01
      endloop
   endfacet
   facet normal -0.000000e+00 1.000000e+00 0.000000e+00
      outer loop
         vertex -6.258819e+01 5.000000e+00 -4.465926e+01
         vertex -6.500000e+01 5.000000e+00 -4.366026e+01
         vertex -5.603854e+01 5.000000e+00 -2.727408e+01
      endloop
   endfacet
   facet normal -0.000000e+00 1.000000e+00 0.000000e+00
      outer loop
         vertex -6.500000e+01 5.000000e+00 -4.366026e+01
         vertex -6.707107e+01 5.000000e+00 -4.207107e+01
         vertex -5.603854e+01 5.000000e+00 -2.727408e+01
      endloop
   endfacet
   facet normal -0.000000e+00 1.000000e+00 0.000000e+00
      outer loop
         vertex -6.707107e+01 5.000000e+00 -4.207107e+01
         vertex -6.866026e+01 5.000000e+00 -4.000000e+01
         vertex -5.603854e+01 5.000000e+00 -2.727408e+01
      endloop
   endfacet
   facet normal -0.000000e+00 1.000000e+00 0.000000e+00
      outer loop
         vertex -6.866026e+01 5.000000e+00 -4.000000e+01
         vertex -6.965926e+01 5.000000e+00 -3.758819e+01
         vertex -5.603854e+01 5.000000e+00 -2.727408e+01
      endloop
   endfacet
   facet normal -0.000000e+00 1.000000e+00 0.000000e+00
      outer loop
         vertex -6.965926e+01 5.000000e+00 -3.758819e+01
         vertex -7.000000e+01 5.000000e+00 -3.500000e+01
         vertex -5.603854e+01 5.000000e+00 -2.727408e+01
      endloop
   endfacet
   facet normal 0.000000e+00 1.000000e+00 0.000000e+00
      outer loop
         vertex -7.000000e+01 5.000000e+00 -3.500000e+01
         vertex -7.000000e+01 5.000000e+00 3.500000e+01
         vertex -5.800000e+01 5.000000e+00 -4.500000e+00
      endloop
   endfacet
   facet normal 0.000000e+00 1.000000e+00 0.000000e+00
      outer loop
         vertex -7.000000e+01 5.000000e+00 3.500000e+01
         vertex -6.965926e+01 5.000000e+00 3.758819e+01
         vertex -5.603854e+01 5.000000e+00 2.727408e+01
      endloop
   endfacet
   facet normal 0.000000e+00 1.000000e+00 0.000000e+00
      outer loop
         vertex -6.965926e+01 5.000000e+00 3.758819e+01
         vertex -6.866026e+01 5.000000e+00 4.000000e+01
         vertex -5.603854e+01 5.000000e+00 2.727408e+01
      endloop
   endfacet
   facet normal 0.000000e+00 1.000000e+00 0.000000e+00
      outer loop
         vertex -6.866026e+01 5.000000e+00 4.000000e+01
         vertex -6.707107e+01 5.000000e+00 4.207107e+01
         vertex -5.603854e+01 5.000000e+00 2.727408e+01
      endloop
   endfacet
   facet normal 0.000000e+00 1.000000e+00 0.000000e+00
      outer loop
         vertex -6.707107e+01 5.000000e+00 4.207107e+01
         vertex -6.500000e+01 5.000000e+00 4.366026e+01
         vertex -5.603854e+01 5.000000e+00 2.727408e+01
      endloop
   endfacet
   facet normal 0.000000e+00 1.000000e+00 0.000000e+00
      outer loop
         vertex -6.500000e+01 5.000000e+00 4.366026e+01
         vertex -6.258819e+01 5.000000e+00 4.465926e+01
         vertex -5.603854e+01 5.000000e+00 2.727408e+01
      endloop
   endfacet
   facet normal 0.000000e+00 1.000000e+00 0.000000e+00
      outer loop
         vertex -6.258819e+01 5.000000e+00 4.465926e+01
         vertex -6.000000e+01 5.000000e+00 4.500000e+01
         vertex -5.603854e+01 5.000000e+00 2.727408e+01
      endloop
   endfacet
   facet normal 0.000000e+00 1.000000e+00 0.000000e+00
      outer loop
         vertex -6.000000e+01 5.000000e+00 4.500000e+01
         vertex 6.000000e+01 5.000000e+00 4.500000e+01
         vertex -4.275000e+01 5.000000e+00 2.125000e+01
      endloop
   endfacet
   facet normal 0.000000e+00 1.000000e+00 0.000000e+00
      outer loop
         vertex 6.000000e+01 5.000000e+00 4.500000e+01
         vertex 6.258819e+01 5.000000e+00 4.465926e+01
         vertex 6.500000e+01 5.000000e+00 4.366026e+01
      endloop
   endfacet
   facet normal 0.000000e+00 1.000000e+00 0.000000e+00
      outer loop
         vertex 6.500000e+01 5.000000e+00 4.366026e+01
         vertex 6.707107e+01 5.000000e+00 4.207107e+01
         vertex 6.965926e+01 5.000000e+00 3.758819e+01
      endloop
   endfacet
   facet normal 0.000000e+00 1.000000e+00 0.000000e+00
      outer loop
         vertex 6.707107e+01 5.000000e+00 4.207107e+01
         vertex 6.866026e+01 5.000000e+00 4.000000e+01
         vertex 6.965926e+01 5.000000e+00 3.758819e+01
      endloop
   endfacet
   facet normal 0.000000e+00 1.000000e+00 0.000000e+00
      outer loop
         vertex 6.965926e+01 5.000000e+00 3.758819e+01
         vertex 7.000000e+01 5.000000e+00 3.500000e+01
         vertex 6.500000e+01 5.000000e+00 4.366026e+01
      endloop
   endfacet
   facet normal 0.000000e+00 1.000000e+00 -0.000000e+00
      outer loop
         vertex 7.000000e+01 5.000000e+00 3.500000e+01
         vertex 7.000000e+01 5.000000e+00 -3.500000e+01
         vertex 5.275000e+01 5.000000e+00 -2.125000e+01
      endloop
   endfacet
   facet normal 0.000000e+00 1.000000e+00 -0.000000e+00
      outer loop
         vertex 7.000000e+01 5.000000e+00 -3.500000e+01
         vertex 6.965926e+01 5.000000e+00 -3.758819e+01
         vertex 6.707107e+01 5.000000e+00 -4.207107e+01
      endloop
   endfacet
   facet normal 0.000000e+00 1.000000e+00 -0.000000e+00
      outer loop
         vertex 6.965926e+01 5.000000e+00 -3.758819e+01
         vertex 6.866026e+01 5.000000e+00 -4.000000e+01
         vertex 6.707107e+01 5.000000e+00 -4.207107e+01
      endloop
   endfacet
   facet normal 0.000000e+00 1.000000e+00 -0.000000e+00
      outer loop
         vertex 6.707107e+01 5.000000e+00 -4.207107e+01
         vertex 6.500000e+01 5.000000e+00 -4.366026e+01
         vertex 6.000000e+01 5.000000e+00 -4.500000e+01
      endloop
   endfacet
   facet normal 0.000000e+00 1.000000e+00 -0.000000e+00
      outer loop
         vertex 6.500000e+01 5.000000e+00 -4.366026e+01
         vertex 6.258819e+01 5.000000e+00 -4.465926e+01
         vertex 6.000000e+01 5.000000e+00 -4.500000e+01
      endloop
   endfacet
   facet normal -0.000000e+00 1.000000e+00 0.000000e+00
      outer loop
         vertex 5.275000e+01 5.000000e+00 -2.125000e+01
         vertex 5.275000e+01 5.000000e+00 2.125000e+01
         vertex 7.000000e+01 5.000000e+00 3.500000e+01
      endloop
   endfacet
   facet normal 0.000000e+00 1.000000e+00 0.000000e+00
      outer loop
         vertex 5.275000e+01 5.000000e+00 2.125000e+01
         vertex -4.275000e+01 5.000000e+00 2.125000e+01
         vertex 6.000000e+01 5.000000e+00 4.500000e+01
      endloop
   endfacet
   facet normal 0.000000e+00 1.000000e+00 -0.000000e+00
      outer loop
         vertex -4.275000e+01 5.000000e+00 2.125000e+01
         vertex -4.275000e+01 5.000000e+00 -2.125000e+01
         vertex -5.200000e+01 5.000000e+00 -4.500000e+00
      endloop
   endfacet
   facet normal 0.000000e+00 1.000000e+00 0.000000e+00
      outer loop
         vertex -4.275000e+01 5.000000e+00 -2.125000e+01
         vertex 5.275000e+01 5.000000e+00 -2.125000e+01
         vertex 6.000000e+01 5.000000e+00 -4.500000e+01
      endloop
   endfacet
   facet normal 0.000000e+00 1.000000e+00 0.000000e+00
      outer loop
         vertex -5.800000e+01 5.000000e+00 -4.500000e+00
         vertex -5.200000e+01 5.000000e+00 -4.500000e+00
         vertex -5.464421e+01 5.000000e+00 -2.252545e+01
      endloop
   endfacet
   facet normal -0.000000e+00 1.000000e+00 0.000000e+00
      outer loop
         vertex -5.200000e+01 5.000000e+00 -4.500000e+00
         vertex -5.200000e+01 5.000000e+00 5.000000e+00
         vertex -4.275000e+01 5.000000e+00 2.125000e+01
      endloop
   endfacet
   facet normal 0.000000e+00 1.000000e+00 0.000000e+00
      outer loop
         vertex -5.200000e+01 5.000000e+00 5.000000e+00
         vertex -5.800000e+01 5.000000e+00 5.000000e+00
         vertex -5.464421e+01 5.000000e+00 2.252545e+01
      endloop
   endfacet
   facet normal 0.000000e+00 1.000000e+00 -0.000000e+00
      outer loop
         vertex -5.800000e+01 5.000000e+00 5.000000e+00
         vertex -5.800000e+01 5.000000e+00 -4.500000e+00
         vertex -7.000000e+01 5.000000e+00 3.500000e+01
      endloop
   endfacet
   facet normal 0.000000e+00 1.000000e+00 -0.000000e+00
      outer loop
         vertex -5.710313e+01 5.000000e+00 2.635160e+01
         vertex -5.750000e+01 5.000000e+00 2.500000e+01
         vertex -7.000000e+01 5.000000e+00 3.500000e+01
      endloop
   endfacet
   facet normal 0.000000e+00 1.000000e+00 0.000000e+00
      outer loop
         vertex -5.750000e+01 5.000000e+00 2.500000e+01
         vertex -5.710313e+01 5.000000e+00 2.364840e+01
         vertex -7.000000e+01 5.000000e+00 3.500000e+01
      endloop
   endfacet
   facet normal 0.000000e+00 1.000000e+00 0.000000e+00
      outer loop
         vertex -5.710313e+01 5.000000e+00 2.364840e+01
         vertex -5.603854e+01 5.000000e+00 2.272592e+01
         vertex -5.800000e+01 5.000000e+00 5.000000e+00
      endloop
   endfacet
   facet normal 0.000000e+00 1.000000e+00 0.000000e+00
      outer loop
         vertex -5.603854e+01 5.000000e+00 2.272592e+01
         vertex -5.464421e+01 5.000000e+00 2.252545e+01
         vertex -5.800000e+01 5.000000e+00 5.000000e+00
      endloop
   endfacet
   facet normal 0.000000e+00 1.000000e+00 0.000000e+00
      outer loop
         vertex -5.464421e+01 5.000000e+00 2.252545e+01
         vertex -5.336285e+01 5.000000e+00 2.311063e+01
         vertex -5.200000e+01 5.000000e+00 5.000000e+00
      endloop
   endfacet
   facet normal 0.000000e+00 1.000000e+00 0.000000e+00
      outer loop
         vertex -5.336285e+01 5.000000e+00 2.311063e+01
         vertex -5.260127e+01 5.000000e+00 2.429567e+01
         vertex -4.275000e+01 5.000000e+00 2.125000e+01
      endloop
   endfacet
   facet normal 0.000000e+00 1.000000e+00 0.000000e+00
      outer loop
         vertex -5.260127e+01 5.000000e+00 2.429567e+01
         vertex -5.260127e+01 5.000000e+00 2.570433e+01
         vertex -4.275000e+01 5.000000e+00 2.125000e+01
      endloop
   endfacet
   facet normal 0.000000e+00 1.000000e+00 0.000000e+00
      outer loop
         vertex -5.260127e+01 5.000000e+00 2.570433e+01
         vertex -5.336285e+01 5.000000e+00 2.688937e+01
         vertex -4.275000e+01 5.000000e+00 2.125000e+01
      endloop
   endfacet
   facet normal -0.000000e+00 1.000000e+00 -0.000000e+00
      outer loop
         vertex -5.336285e+01 5.000000e+00 2.688937e+01
         vertex -5.464421e+01 5.000000e+00 2.747455e+01
         vertex -6.000000e+01 5.000000e+00 4.500000e+01
      endloop
   endfacet
   facet normal 0.000000e+00 1.000000e+00 -0.000000e+00
      outer loop
         vertex -5.464421e+01 5.000000e+00 2.747455e+01
         vertex -5.603854e+01 5.000000e+00 2.727408e+01
         vertex -6.000000e+01 5.000000e+00 4.500000e+01
      endloop
   endfacet
   facet normal 0.000000e+00 1.000000e+00 -0.000000e+00
      outer loop
         vertex -5.603854e+01 5.000000e+00 2.727408e+01
         vertex -5.710313e+01 5.000000e+00 2.635160e+01
         vertex -7.000000e+01 5.000000e+00 3.500000e+01
      endloop
   endfacet
   facet normal 0.000000e+00 1.000000e+00 -0.000000e+00
      outer loop
         vertex -5.710313e+01 5.000000e+00 -2.364840e+01
         vertex -5.750000e+01 5.000000e+00 -2.500000e+01
         vertex -7.000000e+01 5.000000e+00 -3.500000e+01
      endloop
   endfacet
   facet normal 0.000000e+00 1.000000e+00 0.000000e+00
      outer loop
         vertex -5.750000e+01 5.000000e+00 -2.500000e+01
         vertex -5.710313e+01 5.000000e+00 -2.635160e+01
         vertex -7.000000e+01 5.000000e+00 -3.500000e+01
      endloop
   endfacet
   facet normal 0.000000e+00 1.000000e+00 0.000000e+00
      outer loop
         vertex -5.710313e+01 5.000000e+00 -2.635160e+01
         vertex -5.603854e+01 5.000000e+00 -2.727408e+01
         vertex -7.000000e+01 5.000000e+00 -3.500000e+01
      endloop
   endfacet
   facet normal 0.000000e+00 1.000000e+00 0.000000e+00
      outer loop
         vertex -5.603854e+01 5.000000e+00 -2.727408e+01
         vertex -5.464421e+01 5.000000e+00 -2.747455e+01
         vertex -6.000000e+01 5.000000e+00 -4.500000e+01
      endloop
   endfacet
   facet normal 0.000000e+00 1.000000e+00 0.000000e+00
      outer loop
         vertex -5.464421e+01 5.000000e+00 -2.747455e+01
         vertex -5.336285e+01 5.000000e+00 -2.688937e+01
         vertex -6.000000e+01 5.000000e+00 -4.500000e+01
      endloop
   endfacet
   facet normal -0.000000e+00 1.000000e+00 0.000000e+00
      outer loop
         vertex -5.336285e+01 5.000000e+00 -2.688937e+01
         vertex -5.260127e+01 5.000000e+00 -2.570433e+01
         vertex -4.275000e+01 5.000000e+00 -2.125000e+01
      endloop
   endfacet
   facet normal -0.000000e+00 1.000000e+00 0.000000e+00
      outer loop
         vertex -5.260127e+01 5.000000e+00 -2.570433e+01
         vertex -5.260127e+01 5.000000e+00 -2.429567e+01
         vertex -4.275000e+01 5.000000e+00 -2.125000e+01
      endloop
   endfacet
   facet normal -0.000000e+00 1.000000e+00 0.000000e+00
      outer loop
         vertex -5.260127e+01 5.000000e+00 -2.429567e+01
         vertex -5.336285e+01 5.000000e+00 -2.311063e+01
         vertex -4.275000e+01 5.000000e+00 -2.125000e+01
      endloop
   endfacet
   facet normal -0.000000e+00 1.000000e+00 0.000000e+00
      outer loop
         vertex -5.336285e+01 5.000000e+00 -2.311063e+01
         vertex -5.464421e+01 5.000000e+00 -2.252545e+01
         vertex -5.200000e+01 5.000000e+00 -4.500000e+00
      endloop
   endfacet
   facet normal 0.000000e+00 1.000000e+00 -0.000000e+00
      outer loop
         vertex -5.464421e+01 5.000000e+00 -2.252545e+01
         vertex -5.603854e+01 5.000000e+00 -2.272592e+01
         vertex -5.800000e+01 5.000000e+00 -4.500000e+00
      endloop
   endfacet
   facet normal 0.000000e+00 1.000000e+00 -0.000000e+00
      outer loop
         vertex -5.603854e+01 5.000000e+00 -2.272592e+01
         vertex -5.710313e+01 5.000000e+00 -2.364840e+01
         vertex -5.800000e+01 5.000000e+00 -4.500000e+00
      endloop
   endfacet
   facet normal 0.000000e+00 1.000000e+00 0.000000e+00
      outer loop
         vertex -4.275000e+01 5.000000e+00 -2.125000e+01
         vertex -6.000000e+01 5.000000e+00 -4.500000e+01
         vertex -5.336285e+01 5.000000e+00 -2.688937e+01
      endloop
   endfacet
   facet normal 0.000000e+00 1.000000e+00 0.000000e+00
      outer loop
         vertex -7.000000e+01 5.000000e+00 -3.500000e+01
         vertex -5.800000e+01 5.000000e+00 -4.500000e+00
         vertex -5.710313e+01 5.000000e+00 -2.364840e+01
      endloop
   endfacet
   facet normal 0.000000e+00 1.000000e+00 0.000000e+00
      outer loop
         vertex -6.000000e+01 5.000000e+00 4.500000e+01
         vertex -4.275000e+01 5.000000e+00 2.125000e+01
         vertex -5.336285e+01 5.000000e+00 2.688937e+01
      endloop
   endfacet
   facet normal 0.000000e+00 1.000000e+00 0.000000e+00
      outer loop
         vertex 6.000000e+01 5.000000e+00 4.500000e+01
         vertex 6.500000e+01 5.000000e+00 4.366026e+01
         vertex 7.000000e+01 5.000000e+00 3.500000e+01
      endloop
   endfacet
   facet normal 0.000000e+00 1.000000e+00 0.000000e+00
      outer loop
         vertex 5.275000e+01 5.000000e+00 -2.125000e+01
         vertex 7.000000e+01 5.000000e+00 -3.500000e+01
         vertex 6.000000e+01 5.000000e+00 -4.500000e+01
      endloop
   endfacet
   facet normal 0.000000e+00 1.000000e+00 -0.000000e+00
      outer loop
         vertex 7.000000e+01 5.000000e+00 -3.500000e+01
         vertex 6.707107e+01 5.000000e+00 -4.207107e+01
         vertex 6.000000e+01 5.000000e+00 -4.500000e+01
      endloop
   endfacet
   facet normal 0.000000e+00 1.000000e+00 0.000000e+00
      outer loop
         vertex 7.000000e+01 5.000000e+00 3.500000e+01
         vertex 5.275000e+01 5.000000e+00 2.125000e+01
         vertex 6.000000e+01 5.000000e+00 4.500000e+01
      endloop
   endfacet
   facet normal 0.000000e+00 1.000000e+00 0.000000e+00
      outer loop
         vertex -5.200000e+01 5.000000e+00 -4.500000e+00
         vertex -4.275000e+01 5.000000e+00 -2.125000e+01
         vertex -5.336285e+01 5.000000e+00 -2.311063e+01
      endloop
   endfacet
   facet normal 0.000000e+00 1.000000e+00 -0.000000e+00
      outer loop
         vertex -4.275000e+01 5.000000e+00 2.125000e+01
         vertex -5.200000e+01 5.000000e+00 5.000000e+00
         vertex -5.336285e+01 5.000000e+00 2.311063e+01
      endloop
   endfacet
   facet normal 0.000000e+00 1.000000e+00 0.000000e+00
      outer loop
         vertex -5.800000e+01 5.000000e+00 5.000000e+00
         vertex -7.000000e+01 5.000000e+00 3.500000e+01
         vertex -5.710313e+01 5.000000e+00 2.364840e+01
      endloop
   endfacet
   facet normal -1.000000e+00 0.000000e+00 0.000000e+00
      outer loop
         vertex 5.275000e+01 4.130088e-16 -2.125000e+01
         vertex 5.275000e+01 -1.301187e-15 2.125000e+01
         vertex 5.275000e+01 5.000000e+00 2.125000e+01
      endloop
   endfacet
   facet normal -1.000000e+00 0.000000e+00 0.000000e+00
      outer loop
         vertex 5.275000e+01 5.000000e+00 2.125000e+01
         vertex 5.275000e+01 5.000000e+00 -2.125000e+01
         vertex 5.275000e+01 4.130088e-16 -2.125000e+01
      endloop
   endfacet
   facet normal 1.000000e+00 0.000000e+00 -0.000000e+00
      outer loop
         vertex -4.275000e+01 -4.130088e-16 2.125000e+01
         vertex -4.275000e+01 1.285879e-15 -2.125000e+01
         vertex -4.275000e+01 5.000000e+00 -2.125000e+01
      endloop
   endfacet
   facet normal 1.000000e+00 0.000000e+00 0.000000e+00
      outer loop
         vertex -4.275000e+01 5.000000e+00 -2.125000e+01
         vertex -4.275000e+01 5.000000e+00 2.125000e+01
         vertex -4.275000e+01 -4.130088e-16 2.125000e+01
      endloop
   endfacet
   facet normal -1.305255e-01 0.000000e+00 -9.914449e-01
      outer loop
         vertex -6.000000e+01 0.000000e+00 -4.500000e+01
         vertex -6.258819e+01 0.000000e+00 -4.465926e+01
         vertex -6.258819e+01 5.000000e+00 -4.465926e+01
      endloop
   endfacet
   facet normal -1.305255e-01 0.000000e+00 -9.914449e-01
      outer loop
         vertex -6.000000e+01 0.000000e+00 -4.500000e+01
         vertex -6.258819e+01 5.000000e+00 -4.465926e+01
         vertex -6.000000e+01 5.000000e+00 -4.500000e+01
      endloop
   endfacet
   facet normal -3.826837e-01 0.000000e+00 -9.238794e-01
      outer loop
         vertex -6.258819e+01 0.000000e+00 -4.465926e+01
         vertex -6.500000e+01 0.000000e+00 -4.366026e+01
         vertex -6.500000e+01 5.000000e+00 -4.366026e+01
      endloop
   endfacet
   facet normal -3.826837e-01 0.000000e+00 -9.238794e-01
      outer loop
         vertex -6.258819e+01 0.000000e+00 -4.465926e+01
         vertex -6.500000e+01 5.000000e+00 -4.366026e+01
         vertex -6.258819e+01 5.000000e+00 -4.465926e+01
      endloop
   endfacet
   facet normal -6.087618e-01 0.000000e+00 -7.933531e-01
      outer loop
         vertex -6.500000e+01 0.000000e+00 -4.366026e+01
         vertex -6.707107e+01 0.000000e+00 -4.207107e+01
         vertex -6.707107e+01 5.000000e+00 -4.207107e+01
      endloop
   endfacet
   facet normal -6.087618e-01 0.000000e+00 -7.933531e-01
      outer loop
         vertex -6.500000e+01 0.000000e+00 -4.366026e+01
         vertex -6.707107e+01 5.000000e+00 -4.207107e+01
         vertex -6.500000e+01 5.000000e+00 -4.366026e+01
      endloop
   endfacet
   facet normal -7.933531e-01 0.000000e+00 -6.087618e-01
      outer loop
         vertex -6.707107e+01 0.000000e+00 -4.207107e+01
         vertex -6.866026e+01 0.000000e+00 -4.000000e+01
         vertex -6.866026e+01 5.000000e+00 -4.000000e+01
      endloop
   endfacet
   facet normal -7.933531e-01 0.000000e+00 -6.087618e-01
      outer loop
         vertex -6.707107e+01 0.000000e+00 -4.207107e+01
         vertex -6.866026e+01 5.000000e+00 -4.000000e+01
         vertex -6.707107e+01 5.000000e+00 -4.207107e+01
      endloop
   endfacet
   facet normal -9.238799e-01 0.000000e+00 -3.826824e-01
      outer loop
         vertex -6.866026e+01 0.000000e+00 -4.000000e+01
         vertex -6.965926e+01 0.000000e+00 -3.758819e+01
         vertex -6.965926e+01 5.000000e+00 -3.758819e+01
      endloop
   endfacet
   facet normal -9.238799e-01 0.000000e+00 -3.826824e-01
      outer loop
         vertex -6.866026e+01 0.000000e+00 -4.000000e+01
         vertex -6.965926e+01 5.000000e+00 -3.758819e+01
         vertex -6.866026e+01 5.000000e+00 -4.000000e+01
      endloop
   endfacet
   facet normal -9.914448e-01 0.000000e+00 -1.305270e-01
      outer loop
         vertex -6.965926e+01 0.000000e+00 -3.758819e+01
         vertex -7.000000e+01 0.000000e+00 -3.500000e+01
         vertex -7.000000e+01 5.000000e+00 -3.500000e+01
      endloop
   endfacet
   facet normal -9.914448e-01 0.000000e+00 -1.305270e-01
      outer loop
         vertex -6.965926e+01 0.000000e+00 -3.758819e+01
         vertex -7.000000e+01 5.000000e+00 -3.500000e+01
         vertex -6.965926e+01 5.000000e+00 -3.758819e+01
      endloop
   endfacet
   facet normal 0.000000e+00 0.000000e+00 -1.000000e+00
      outer loop
         vertex 6.000000e+01 1.734916e-15 -4.500000e+01
         vertex -6.000000e+01 1.734916e-15 -4.500000e+01
         vertex -6.000000e+01 5.000000e+00 -4.500000e+01
      endloop
   endfacet
   facet normal -0.000000e+00 -0.000000e+00 -1.000000e+00
      outer loop
         vertex -6.000000e+01 5.000000e+00 -4.500000e+01
         vertex 6.000000e+01 5.000000e+00 -4.500000e+01
         vertex 6.000000e+01 1.734916e-15 -4.500000e+01
      endloop
   endfacet
   facet normal 1.305255e-01 0.000000e+00 -9.914449e-01
      outer loop
         vertex 6.000000e+01 5.000000e+00 -4.500000e+01
         vertex 6.258819e+01 5.000000e+00 -4.465926e+01
         vertex 6.258819e+01 0.000000e+00 -4.465926e+01
      endloop
   endfacet
   facet normal 1.305255e-01 0.000000e+00 -9.914449e-01
      outer loop
         vertex 6.000000e+01 5.000000e+00 -4.500000e+01
         vertex 6.258819e+01 0.000000e+00 -4.465926e+01
         vertex 6.000000e+01 0.000000e+00 -4.500000e+01
      endloop
   endfacet
   facet normal 3.826837e-01 0.000000e+00 -9.238794e-01
      outer loop
         vertex 6.258819e+01 5.000000e+00 -4.465926e+01
         vertex 6.500000e+01 5.000000e+00 -4.366026e+01
         vertex 6.500000e+01 0.000000e+00 -4.366026e+01
      endloop
   endfacet
   facet normal 3.826837e-01 0.000000e+00 -9.238794e-01
      outer loop
         vertex 6.258819e+01 5.000000e+00 -4.465926e+01
         vertex 6.500000e+01 0.000000e+00 -4.366026e+01
         vertex 6.258819e+01 0.000000e+00 -4.465926e+01
      endloop
   endfacet
   facet normal 6.087618e-01 0.000000e+00 -7.933531e-01
      outer loop
         vertex 6.500000e+01 5.000000e+00 -4.366026e+01
         vertex 6.707107e+01 5.000000e+00 -4.207107e+01
         vertex 6.707107e+01 0.000000e+00 -4.207107e+01
      endloop
   endfacet
   facet normal 6.087618e-01 0.000000e+00 -7.933531e-01
      outer loop
         vertex 6.500000e+01 5.000000e+00 -4.366026e+01
         vertex 6.707107e+01 0.000000e+00 -4.207107e+01
         vertex 6.500000e+01 0.000000e+00 -4.366026e+01
      endloop
   endfacet
   facet normal 7.933531e-01 0.000000e+00 -6.087618e-01
      outer loop
         vertex 6.707107e+01 5.000000e+00 -4.207107e+01
         vertex 6.866026e+01 5.000000e+00 -4.000000e+01
         vertex 6.866026e+01 0.000000e+00 -4.000000e+01
      endloop
   endfacet
   facet normal 7.933531e-01 0.000000e+00 -6.087618e-01
      outer loop
         vertex 6.707107e+01 5.000000e+00 -4.207107e+01
         vertex 6.866026e+01 0.000000e+00 -4.000000e+01
         vertex 6.707107e+01 0.000000e+00 -4.207107e+01
      endloop
   endfacet
   facet normal 9.238799e-01 0.000000e+00 -3.826824e-01
      outer loop
         vertex 6.866026e+01 5.000000e+00 -4.000000e+01
         vertex 6.965926e+01 5.000000e+00 -3.758819e+01
         vertex 6.965926e+01 0.000000e+00 -3.758819e+01
      endloop
   endfacet
   facet normal 9.238799e-01 0.000000e+00 -3.826824e-01
      outer loop
         vertex 6.866026e+01 5.000000e+00 -4.000000e+01
         vertex 6.965926e+01 0.000000e+00 -3.758819e+01
         vertex 6.866026e+01 0.000000e+00 -4.000000e+01
      endloop
   endfacet
   facet normal 9.914448e-01 0.000000e+00 -1.305270e-01
      outer loop
         vertex 6.965926e+01 5.000000e+00 -3.758819e+01
         vertex 7.000000e+01 5.000000e+00 -3.500000e+01
         vertex 7.000000e+01 0.000000e+00 -3.500000e+01
      endloop
   endfacet
   facet normal 9.914448e-01 0.000000e+00 -1.305270e-01
      outer loop
         vertex 6.965926e+01 5.000000e+00 -3.758819e+01
         vertex 7.000000e+01 0.000000e+00 -3.500000e+01
         vertex 6.965926e+01 0.000000e+00 -3.758819e+01
      endloop
   endfacet
   facet normal 1.000000e+00 0.000000e+00 0.000000e+00
      outer loop
         vertex 7.000000e+01 5.000000e+00 -3.500000e+01
         vertex 7.000000e+01 5.000000e+00 3.500000e+01
         vertex 7.000000e+01 -1.383397e-15 3.500000e+01
      endloop
   endfacet
   facet normal 1.000000e+00 0.000000e+00 -0.000000e+00
      outer loop
         vertex 7.000000e+01 -1.383397e-15 3.500000e+01
         vertex 7.000000e+01 1.434424e-15 -3.500000e+01
         vertex 7.000000e+01 5.000000e+00 -3.500000e+01
      endloop
   endfacet
   facet normal 1.305255e-01 -0.000000e+00 9.914449e-01
      outer loop
         vertex 6.000000e+01 0.000000e+00 4.500000e+01
         vertex 6.258819e+01 0.000000e+00 4.465926e+01
         vertex 6.258819e+01 5.000000e+00 4.465926e+01
      endloop
   endfacet
   facet normal 1.305255e-01 0.000000e+00 9.914449e-01
      outer loop
         vertex 6.000000e+01 0.000000e+00 4.500000e+01
         vertex 6.258819e+01 5.000000e+00 4.465926e+01
         vertex 6.000000e+01 5.000000e+00 4.500000e+01
      endloop
   endfacet
   facet normal 3.826837e-01 -0.000000e+00 9.238794e-01
      outer loop
         vertex 6.258819e+01 0.000000e+00 4.465926e+01
         vertex 6.500000e+01 0.000000e+00 4.366026e+01
         vertex 6.500000e+01 5.000000e+00 4.366026e+01
      endloop
   endfacet
   facet normal 3.826837e-01 0.000000e+00 9.238794e-01
      outer loop
         vertex 6.258819e+01 0.000000e+00 4.465926e+01
         vertex 6.500000e+01 5.000000e+00 4.366026e+01
         vertex 6.258819e+01 5.000000e+00 4.465926e+01
      endloop
   endfacet
   facet normal 6.087618e-01 -0.000000e+00 7.933531e-01
      outer loop
         vertex 6.500000e+01 0.000000e+00 4.366026e+01
         vertex 6.707107e+01 0.000000e+00 4.207107e+01
         vertex 6.707107e+01 5.000000e+00 4.207107e+01
      endloop
   endfacet
   facet normal 6.087618e-01 0.000000e+00 7.933531e-01
      outer loop
         vertex 6.500000e+01 0.000000e+00 4.366026e+01
         vertex 6.707107e+01 5.000000e+00 4.207107e+01
         vertex 6.500000e+01 5.000000e+00 4.366026e+01
      endloop
   endfacet
   facet normal 7.933531e-01 -0.000000e+00 6.087618e-01
      outer loop
         vertex 6.707107e+01 0.000000e+00 4.207107e+01
         vertex 6.866026e+01 0.000000e+00 4.000000e+01
         vertex 6.866026e+01 5.000000e+00 4.000000e+01
      endloop
   endfacet
   facet normal 7.933531e-01 0.000000e+00 6.087618e-01
      outer loop
         vertex 6.707107e+01 0.000000e+00 4.207107e+01
         vertex 6.866026e+01 5.000000e+00 4.000000e+01
         vertex 6.707107e+01 5.000000e+00 4.207107e+01
      endloop
   endfacet
   facet normal 9.238799e-01 -0.000000e+00 3.826824e-01
      outer loop
         vertex 6.866026e+01 0.000000e+00 4.000000e+01
         vertex 6.965926e+01 0.000000e+00 3.758819e+01
         vertex 6.965926e+01 5.000000e+00 3.758819e+01
      endloop
   endfacet
   facet normal 9.238799e-01 0.000000e+00 3.826824e-01
      outer loop
         vertex 6.866026e+01 0.000000e+00 4.000000e+01
         vertex 6.965926e+01 5.000000e+00 3.758819e+01
         vertex 6.866026e+01 5.000000e+00 4.000000e+01
      endloop
   endfacet
   facet normal 9.914448e-01 -0.000000e+00 1.305270e-01
      outer loop
         vertex 6.965926e+01 0.000000e+00 3.758819e+01
         vertex 7.000000e+01 0.000000e+00 3.500000e+01
         vertex 7.000000e+01 5.000000e+00 3.500000e+01
      endloop
   endfacet
   facet normal 9.914448e-01 0.000000e+00 1.305270e-01
      outer loop
         vertex 6.965926e+01 0.000000e+00 3.758819e+01
         vertex 7.000000e+01 5.000000e+00 3.500000e+01
         vertex 6.965926e+01 5.000000e+00 3.758819e+01
      endloop
   endfacet
   facet normal -0.000000e+00 0.000000e+00 1.000000e+00
      outer loop
         vertex 6.000000e+01 5.000000e+00 4.500000e+01
         vertex -6.000000e+01 5.000000e+00 4.500000e+01
         vertex -6.000000e+01 -1.734916e-15 4.500000e+01
      endloop
   endfacet
   facet normal 0.000000e+00 -0.000000e+00 1.000000e+00
      outer loop
         vertex -6.000000e+01 -1.734916e-15 4.500000e+01
         vertex 6.000000e+01 -1.734916e-15 4.500000e+01
         vertex 6.000000e+01 5.000000e+00 4.500000e+01
      endloop
   endfacet
   facet normal -1.305255e-01 0.000000e+00 9.914449e-01
      outer loop
         vertex -6.000000e+01 5.000000e+00 4.500000e+01
         vertex -6.258819e+01 5.000000e+00 4.465926e+01
         vertex -6.258819e+01 0.000000e+00 4.465926e+01
      endloop
   endfacet
   facet normal -1.305255e-01 0.000000e+00 9.914449e-01
      outer loop
         vertex -6.000000e+01 5.000000e+00 4.500000e+01
         vertex -6.258819e+01 0.000000e+00 4.465926e+01
         vertex -6.000000e+01 0.000000e+00 4.500000e+01
      endloop
   endfacet
   facet normal -3.826837e-01 0.000000e+00 9.238794e-01
      outer loop
         vertex -6.258819e+01 5.000000e+00 4.465926e+01
         vertex -6.500000e+01 5.000000e+00 4.366026e+01
         vertex -6.500000e+01 0.000000e+00 4.366026e+01
      endloop
   endfacet
   facet normal -3.826837e-01 0.000000e+00 9.238794e-01
      outer loop
         vertex -6.258819e+01 5.000000e+00 4.465926e+01
         vertex -6.500000e+01 0.000000e+00 4.366026e+01
         vertex -6.258819e+01 0.000000e+00 4.465926e+01
      endloop
   endfacet
   facet normal -6.087618e-01 0.000000e+00 7.933531e-01
      outer loop
         vertex -6.500000e+01 5.000000e+00 4.366026e+01
         vertex -6.707107e+01 5.000000e+00 4.207107e+01
         vertex -6.707107e+01 0.000000e+00 4.207107e+01
      endloop
   endfacet
   facet normal -6.087618e-01 0.000000e+00 7.933531e-01
      outer loop
         vertex -6.500000e+01 5.000000e+00 4.366026e+01
         vertex -6.707107e+01 0.000000e+00 4.207107e+01
         vertex -6.500000e+01 0.000000e+00 4.366026e+01
      endloop
   endfacet
   facet normal -7.933531e-01 0.000000e+00 6.087618e-01
      outer loop
         vertex -6.707107e+01 5.000000e+00 4.207107e+01
         vertex -6.866026e+01 5.000000e+00 4.000000e+01
         vertex -6.866026e+01 0.000000e+00 4.000000e+01
      endloop
   endfacet
   facet normal -7.933531e-01 0.000000e+00 6.087618e-01
      outer loop
         vertex -6.707107e+01 5.000000e+00 4.207107e+01
         vertex -6.866026e+01 0.000000e+00 4.000000e+01
         vertex -6.707107e+01 0.000000e+00 4.207107e+01
      endloop
   endfacet
   facet normal -9.238799e-01 0.000000e+00 3.826824e-01
      outer loop
         vertex -6.866026e+01 5.000000e+00 4.000000e+01
         vertex -6.965926e+01 5.000000e+00 3.758819e+01
         vertex -6.965926e+01 0.000000e+00 3.758819e+01
      endloop
   endfacet
   facet normal -9.238799e-01 0.000000e+00 3.826824e-01
      outer loop
         vertex -6.866026e+01 5.000000e+00 4.000000e+01
         vertex -6.965926e+01 0.000000e+00 3.758819e+01
         vertex -6.866026e+01 0.000000e+00 4.000000e+01
      endloop
   endfacet
   facet normal -9.914448e-01 0.000000e+00 1.305270e-01
      outer loop
         vertex -6.965926e+01 5.000000e+00 3.758819e+01
         vertex -7.000000e+01 5.000000e+00 3.500000e+01
         vertex -7.000000e+01 0.000000e+00 3.500000e+01
      endloop
   endfacet
   facet normal -9.914448e-01 0.000000e+00 1.305270e-01
      outer loop
         vertex -6.965926e+01 5.000000e+00 3.758819e+01
         vertex -7.000000e+01 0.000000e+00 3.500000e+01
         vertex -6.965926e+01 0.000000e+00 3.758819e+01
      endloop
   endfacet
   facet normal -1.000000e+00 0.000000e+00 0.000000e+00
      outer loop
         vertex -7.000000e+01 5.000000e+00 3.500000e+01
         vertex -7.000000e+01 5.000000e+00 -3.500000e+01
         vertex -7.000000e+01 1.383397e-15 -3.500000e+01
      endloop
   endfacet
   facet normal -1.000000e+00 0.000000e+00 0.000000e+00
      outer loop
         vertex -7.000000e+01 1.383397e-15 -3.500000e+01
         vertex -7.000000e+01 -1.434424e-15 3.500000e+01
         vertex -7.000000e+01 5.000000e+00 3.500000e+01
      endloop
   endfacet
   facet normal 0.000000e+00 -0.000000e+00 1.000000e+00
      outer loop
         vertex -5.800000e+01 2.449294e-16 -4.500000e+00
         vertex -5.200000e+01 2.449294e-16 -4.500000e+00
         vertex -5.200000e+01 5.000000e+00 -4.500000e+00
      endloop
   endfacet
   facet normal -0.000000e+00 0.000000e+00 1.000000e+00
      outer loop
         vertex -5.200000e+01 5.000000e+00 -4.500000e+00
         vertex -5.800000e+01 5.000000e+00 -4.500000e+00
         vertex -5.800000e+01 2.449294e-16 -4.500000e+00
      endloop
   endfacet
   facet normal 1.000000e+00 0.000000e+00 -0.000000e+00
      outer loop
         vertex -5.800000e+01 -3.337472e-16 5.000000e+00
         vertex -5.800000e+01 2.449294e-16 -4.500000e+00
         vertex -5.800000e+01 5.000000e+00 -4.500000e+00
      endloop
   endfacet
   facet normal 1.000000e+00 0.000000e+00 0.000000e+00
      outer loop
         vertex -5.800000e+01 5.000000e+00 -4.500000e+00
         vertex -5.800000e+01 5.000000e+00 5.000000e+00
         vertex -5.800000e+01 -3.337472e-16 5.000000e+00
      endloop
   endfacet
   facet normal -0.000000e+00 -0.000000e+00 -1.000000e+00
      outer loop
         vertex -5.800000e+01 5.000000e+00 5.000000e+00
         vertex -5.200000e+01 5.000000e+00 5.000000e+00
         vertex -5.200000e+01 -3.337472e-16 5.000000e+00
      endloop
   endfacet
   facet normal 0.000000e+00 0.000000e+00 -1.000000e+00
      outer loop
         vertex -5.200000e+01 -3.337472e-16 5.000000e+00
         vertex -5.800000e+01 -3.337472e-16 5.000000e+00
         vertex -5.800000e+01 5.000000e+00 5.000000e+00
      endloop
   endfacet
   facet normal -1.000000e+00 0.000000e+00 0.000000e+00
      outer loop
         vertex -5.200000e+01 2.449294e-16 -4.500000e+00
         vertex -5.200000e+01 -3.337472e-16 5.000000e+00
         vertex -5.200000e+01 5.000000e+00 5.000000e+00
      endloop
   endfacet
   facet normal -1.000000e+00 0.000000e+00 0.000000e+00
      outer loop
         vertex -5.200000e+01 5.000000e+00 5.000000e+00
         vertex -5.200000e+01 5.000000e+00 -4.500000e+00
         vertex -5.200000e+01 2.449294e-16 -4.500000e+00
      endloop
   endfacet
   facet normal 9.594931e-01 0.000000e+00 -2.817322e-01
      outer loop
         vertex -5.710313e+01 5.000000e+00 2.635160e+01
         vertex -5.710313e+01 -1.613570e-15 2.635160e+01
         vertex -5.750000e+01 -1.530808e-15 2.500000e+01
      endloop
   endfacet
   facet normal 9.594931e-01 0.000000e+00 -2.817322e-01
      outer loop
         vertex -5.750000e+01 5.000000e+00 2.500000e+01
         vertex -5.710313e+01 5.000000e+00 2.635160e+01
         vertex -5.750000e+01 -1.530808e-15 2.500000e+01
      endloop
   endfacet
   facet normal 6.548600e-01 0.000000e+00 -7.557502e-01
      outer loop
         vertex -5.603854e+01 5.000000e+00 2.727408e+01
         vertex -5.603854e+01 -1.670056e-15 2.727408e+01
         vertex -5.710313e+01 -1.613570e-15 2.635160e+01
      endloop
   endfacet
   facet normal 6.548600e-01 0.000000e+00 -7.557502e-01
      outer loop
         vertex -5.710313e+01 5.000000e+00 2.635160e+01
         vertex -5.603854e+01 5.000000e+00 2.727408e+01
         vertex -5.710313e+01 -1.613570e-15 2.635160e+01
      endloop
   endfacet
   facet normal 1.423153e-01 0.000000e+00 -9.898214e-01
      outer loop
         vertex -5.464421e+01 5.000000e+00 2.747455e+01
         vertex -5.464421e+01 -1.682331e-15 2.747455e+01
         vertex -5.603854e+01 -1.670056e-15 2.727408e+01
      endloop
   endfacet
   facet normal 1.423153e-01 0.000000e+00 -9.898214e-01
      outer loop
         vertex -5.603854e+01 5.000000e+00 2.727408e+01
         vertex -5.464421e+01 5.000000e+00 2.747455e+01
         vertex -5.603854e+01 -1.670056e-15 2.727408e+01
      endloop
   endfacet
   facet normal -4.154144e-01 0.000000e+00 -9.096323e-01
      outer loop
         vertex -5.336285e+01 5.000000e+00 2.688937e+01
         vertex -5.336285e+01 -1.646499e-15 2.688937e+01
         vertex -5.464421e+01 -1.682331e-15 2.747455e+01
      endloop
   endfacet
   facet normal -4.154144e-01 0.000000e+00 -9.096323e-01
      outer loop
         vertex -5.464421e+01 5.000000e+00 2.747455e+01
         vertex -5.336285e+01 5.000000e+00 2.688937e+01
         vertex -5.464421e+01 -1.682331e-15 2.747455e+01
      endloop
   endfacet
   facet normal -8.412547e-01 0.000000e+00 -5.406391e-01
      outer loop
         vertex -5.260127e+01 5.000000e+00 2.570433e+01
         vertex -5.260127e+01 -1.573936e-15 2.570433e+01
         vertex -5.336285e+01 -1.646499e-15 2.688937e+01
      endloop
   endfacet
   facet normal -8.412547e-01 0.000000e+00 -5.406391e-01
      outer loop
         vertex -5.336285e+01 5.000000e+00 2.688937e+01
         vertex -5.260127e+01 5.000000e+00 2.570433e+01
         vertex -5.336285e+01 -1.646499e-15 2.688937e+01
      endloop
   endfacet
   facet normal -1.000000e+00 0.000000e+00 0.000000e+00
      outer loop
         vertex -5.260127e+01 5.000000e+00 2.429567e+01
         vertex -5.260127e+01 -1.487681e-15 2.429567e+01
         vertex -5.260127e+01 -1.573936e-15 2.570433e+01
      endloop
   endfacet
   facet normal -1.000000e+00 0.000000e+00 0.000000e+00
      outer loop
         vertex -5.260127e+01 5.000000e+00 2.570433e+01
         vertex -5.260127e+01 5.000000e+00 2.429567e+01
         vertex -5.260127e+01 -1.573936e-15 2.570433e+01
      endloop
   endfacet
   facet normal -8.412547e-01 0.000000e+00 5.406391e-01
      outer loop
         vertex -5.336285e+01 5.000000e+00 2.311063e+01
         vertex -5.336285e+01 -1.415118e-15 2.311063e+01
         vertex -5.260127e+01 -1.487681e-15 2.429567e+01
      endloop
   endfacet
   facet normal -8.412547e-01 0.000000e+00 5.406391e-01
      outer loop
         vertex -5.260127e+01 5.000000e+00 2.429567e+01
         vertex -5.336285e+01 5.000000e+00 2.311063e+01
         vertex -5.260127e+01 -1.487681e-15 2.429567e+01
      endloop
   endfacet
   facet normal -4.154144e-01 0.000000e+00 9.096323e-01
      outer loop
         vertex -5.464421e+01 5.000000e+00 2.252545e+01
         vertex -5.464421e+01 -1.379286e-15 2.252545e+01
         vertex -5.336285e+01 -1.415118e-15 2.311063e+01
      endloop
   endfacet
   facet normal -4.154144e-01 0.000000e+00 9.096323e-01
      outer loop
         vertex -5.336285e+01 5.000000e+00 2.311063e+01
         vertex -5.464421e+01 5.000000e+00 2.252545e+01
         vertex -5.336285e+01 -1.415118e-15 2.311063e+01
      endloop
   endfacet
   facet normal 1.423153e-01 -0.000000e+00 9.898214e-01
      outer loop
         vertex -5.603854e+01 5.000000e+00 2.272592e+01
         vertex -5.603854e+01 -1.391561e-15 2.272592e+01
         vertex -5.464421e+01 -1.379286e-15 2.252545e+01
      endloop
   endfacet
   facet normal 1.423153e-01 0.000000e+00 9.898214e-01
      outer loop
         vertex -5.464421e+01 5.000000e+00 2.252545e+01
         vertex -5.603854e+01 5.000000e+00 2.272592e+01
         vertex -5.464421e+01 -1.379286e-15 2.252545e+01
      endloop
   endfacet
   facet normal 6.548600e-01 -0.000000e+00 7.557502e-01
      outer loop
         vertex -5.710313e+01 5.000000e+00 2.364840e+01
         vertex -5.710313e+01 -1.448047e-15 2.364840e+01
         vertex -5.603854e+01 -1.391561e-15 2.272592e+01
      endloop
   endfacet
   facet normal 6.548600e-01 0.000000e+00 7.557502e-01
      outer loop
         vertex -5.603854e+01 5.000000e+00 2.272592e+01
         vertex -5.710313e+01 5.000000e+00 2.364840e+01
         vertex -5.603854e+01 -1.391561e-15 2.272592e+01
      endloop
   endfacet
   facet normal 9.594931e-01 -0.000000e+00 2.817322e-01
      outer loop
         vertex -5.750000e+01 5.000000e+00 2.500000e+01
         vertex -5.750000e+01 -1.530808e-15 2.500000e+01
         vertex -5.710313e+01 -1.448047e-15 2.364840e+01
      endloop
   endfacet
   facet normal 9.594931e-01 0.000000e+00 2.817322e-01
      outer loop
         vertex -5.710313e+01 5.000000e+00 2.364840e+01
         vertex -5.750000e+01 5.000000e+00 2.500000e+01
         vertex -5.710313e+01 -1.448047e-15 2.364840e+01
      endloop
   endfacet
   facet normal 9.594931e-01 0.000000e+00 -2.817322e-01
      outer loop
         vertex -5.710313e+01 5.000000e+00 -2.364840e+01
         vertex -5.710313e+01 1.448047e-15 -2.364840e+01
         vertex -5.750000e+01 1.530808e-15 -2.500000e+01
      endloop
   endfacet
   facet normal 9.594931e-01 0.000000e+00 -2.817322e-01
      outer loop
         vertex -5.750000e+01 5.000000e+00 -2.500000e+01
         vertex -5.710313e+01 5.000000e+00 -2.364840e+01
         vertex -5.750000e+01 1.530808e-15 -2.500000e+01
      endloop
   endfacet
   facet normal 6.548600e-01 0.000000e+00 -7.557502e-01
      outer loop
         vertex -5.603854e+01 5.000000e+00 -2.272592e+01
         vertex -5.603854e+01 1.391561e-15 -2.272592e+01
         vertex -5.710313e+01 1.448047e-15 -2.364840e+01
      endloop
   endfacet
   facet normal 6.548600e-01 0.000000e+00 -7.557502e-01
      outer loop
         vertex -5.710313e+01 5.000000e+00 -2.364840e+01
         vertex -5.603854e+01 5.000000e+00 -2.272592e+01
         vertex -5.710313e+01 1.448047e-15 -2.364840e+01
      endloop
   endfacet
   facet normal 1.423153e-01 0.000000e+00 -9.898214e-01
      outer loop
         vertex -5.464421e+01 5.000000e+00 -2.252545e+01
         vertex -5.464421e+01 1.379286e-15 -2.252545e+01
         vertex -5.603854e+01 1.391561e-15 -2.272592e+01
      endloop
   endfacet
   facet normal 1.423153e-01 0.000000e+00 -9.898214e-01
      outer loop
         vertex -5.603854e+01 5.000000e+00 -2.272592e+01
         vertex -5.464421e+01 5.000000e+00 -2.252545e+01
         vertex -5.603854e+01 1.391561e-15 -2.272592e+01
      endloop
   endfacet
   facet normal -4.154144e-01 0.000000e+00 -9.096323e-01
      outer loop
         vertex -5.336285e+01 5.000000e+00 -2.311063e+01
         vertex -5.336285e+01 1.415118e-15 -2.311063e+01
         vertex -5.464421e+01 1.379286e-15 -2.252545e+01
      endloop
   endfacet
   facet normal -4.154144e-01 0.000000e+00 -9.096323e-01
      outer loop
         vertex -5.464421e+01 5.000000e+00 -2.252545e+01
         vertex -5.336285e+01 5.000000e+00 -2.311063e+01
         vertex -5.464421e+01 1.379286e-15 -2.252545e+01
      endloop
   endfacet
   facet normal -8.412547e-01 0.000000e+00 -5.406391e-01
      outer loop
         vertex -5.260127e+01 5.000000e+00 -2.429567e+01
         vertex -5.260127e+01 1.487681e-15 -2.429567e+01
         vertex -5.336285e+01 1.415118e-15 -2.311063e+01
      endloop
   endfacet
   facet normal -8.412547e-01 0.000000e+00 -5.406391e-01
      outer loop
         vertex -5.336285e+01 5.000000e+00 -2.311063e+01
         vertex -5.260127e+01 5.000000e+00 -2.429567e+01
         vertex -5.336285e+01 1.415118e-15 -2.311063e+01
      endloop
   endfacet
   facet normal -1.000000e+00 0.000000e+00 0.000000e+00
      outer loop
         vertex -5.260127e+01 5.000000e+00 -2.570433e+01
         vertex -5.260127e+01 1.573936e-15 -2.570433e+01
         vertex -5.260127e+01 1.487681e-15 -2.429567e+01
      endloop
   endfacet
   facet normal -1.000000e+00 0.000000e+00 0.000000e+00
      outer loop
         vertex -5.260127e+01 5.000000e+00 -2.429567e+01
         vertex -5.260127e+01 5.000000e+00 -2.570433e+01
         vertex -5.260127e+01 1.487681e-15 -2.429567e+01
      endloop
   endfacet
   facet normal -8.412547e-01 0.000000e+00 5.406391e-01
      outer loop
         vertex -5.336285e+01 5.000000e+00 -2.688937e+01
         vertex -5.336285e+01 1.646499e-15 -2.688937e+01
         vertex -5.260127e+01 1.573936e-15 -2.570433e+01
      endloop
   endfacet
   facet normal -8.412547e-01 0.000000e+00 5.406391e-01
      outer loop
         vertex -5.260127e+01 5.000000e+00 -2.570433e+01
         vertex -5.336285e+01 5.000000e+00 -2.688937e+01
         vertex -5.260127e+01 1.573936e-15 -2.570433e+01
      endloop
   endfacet
   facet normal -4.154144e-01 0.000000e+00 9.096323e-01
      outer loop
         vertex -5.464421e+01 5.000000e+00 -2.747455e+01
         vertex -5.464421e+01 1.682331e-15 -2.747455e+01
         vertex -5.336285e+01 1.646499e-15 -2.688937e+01
      endloop
   endfacet
   facet normal -4.154144e-01 0.000000e+00 9.096323e-01
      outer loop
         vertex -5.336285e+01 5.000000e+00 -2.688937e+01
         vertex -5.464421e+01 5.000000e+00 -2.747455e+01
         vertex -5.336285e+01 1.646499e-15 -2.688937e+01
      endloop
   endfacet
   facet normal 1.423153e-01 -0.000000e+00 9.898214e-01
      outer loop
         vertex -5.603854e+01 5.000000e+00 -2.727408e+01
         vertex -5.603854e+01 1.670056e-15 -2.727408e+01
         vertex -5.464421e+01 1.682331e-15 -2.747455e+01
      endloop
   endfacet
   facet normal 1.423153e-01 0.000000e+00 9.898214e-01
      outer loop
         vertex -5.464421e+01 5.000000e+00 -2.747455e+01
         vertex -5.603854e+01 5.000000e+00 -2.727408e+01
         vertex -5.464421e+01 1.682331e-15 -2.747455e+01
      endloop
   endfacet
   facet normal 6.548600e-01 -0.000000e+00 7.557502e-01
      outer loop
         vertex -5.710313e+01 5.000000e+00 -2.635160e+01
         vertex -5.710313e+01 1.613570e-15 -2.635160e+01
         vertex -5.603854e+01 1.670056e-15 -2.727408e+01
      endloop
   endfacet
   facet normal 6.548600e-01 0.000000e+00 7.557502e-01
      outer loop
         vertex -5.603854e+01 5.000000e+00 -2.727408e+01
         vertex -5.710313e+01 5.000000e+00 -2.635160e+01
         vertex -5.603854e+01 1.670056e-15 -2.727408e+01
      endloop
   endfacet
   facet normal 9.594931e-01 -0.000000e+00 2.817322e-01
      outer loop
         vertex -5.750000e+01 5.000000e+00 -2.500000e+01
         vertex -5.750000e+01 1.530808e-15 -2.500000e+01
         vertex -5.710313e+01 1.613570e-15 -2.635160e+01
      endloop
   endfacet
   facet normal 9.594931e-01 0.000000e+00 2.817322e-01
      outer loop
         vertex -5.710313e+01 5.000000e+00 -2.635160e+01
         vertex -5.750000e+01 5.000000e+00 -2.500000e+01
         vertex -5.710313e+01 1.613570e-15 -2.635160e+01
      endloop
   endfacet
endsolid
